<svg width="53" height="53" viewBox="0 0 53 53" fill="none" xmlns="http://www.w3.org/2000/svg">
<mask id="path-1-outside-1_511_1190" maskUnits="userSpaceOnUse" x="0.292969" y="0.0302734" width="52" height="52" fill="black">
<rect fill="white" x="0.292969" y="0.0302734" width="52" height="52"/>
<path d="M51.293 26.0303C51.293 39.8374 40.1001 51.0303 26.293 51.0303C12.4859 51.0303 1.29297 39.8374 1.29297 26.0303C1.29297 12.2232 12.4859 1.03027 26.293 1.03027C40.1001 1.03027 51.293 12.2232 51.293 26.0303ZM6.27449 26.0303C6.27449 37.0862 15.2371 46.0488 26.293 46.0488C37.3489 46.0488 46.3114 37.0862 46.3114 26.0303C46.3114 14.9744 37.3489 6.0118 26.293 6.0118C15.2371 6.0118 6.27449 14.9744 6.27449 26.0303Z"/>
</mask>
<path d="M51.293 26.0303C51.293 39.8374 40.1001 51.0303 26.293 51.0303C12.4859 51.0303 1.29297 39.8374 1.29297 26.0303C1.29297 12.2232 12.4859 1.03027 26.293 1.03027C40.1001 1.03027 51.293 12.2232 51.293 26.0303ZM6.27449 26.0303C6.27449 37.0862 15.2371 46.0488 26.293 46.0488C37.3489 46.0488 46.3114 37.0862 46.3114 26.0303C46.3114 14.9744 37.3489 6.0118 26.293 6.0118C15.2371 6.0118 6.27449 14.9744 6.27449 26.0303Z" fill="#5C61F2"/>
<path d="M51.293 26.0303C51.293 39.8374 40.1001 51.0303 26.293 51.0303C12.4859 51.0303 1.29297 39.8374 1.29297 26.0303C1.29297 12.2232 12.4859 1.03027 26.293 1.03027C40.1001 1.03027 51.293 12.2232 51.293 26.0303ZM6.27449 26.0303C6.27449 37.0862 15.2371 46.0488 26.293 46.0488C37.3489 46.0488 46.3114 37.0862 46.3114 26.0303C46.3114 14.9744 37.3489 6.0118 26.293 6.0118C15.2371 6.0118 6.27449 14.9744 6.27449 26.0303Z" stroke="white" stroke-width="2" mask="url(#path-1-outside-1_511_1190)"/>
<mask id="path-2-outside-2_511_1190" maskUnits="userSpaceOnUse" x="0.292969" y="0.0302734" width="52" height="52" fill="black">
<rect fill="white" x="0.292969" y="0.0302734" width="52" height="52"/>
<path d="M51.293 26.0303C51.293 30.6408 50.018 35.1616 47.609 39.0927C45.2 43.0239 41.7508 46.2123 37.6427 48.3054C33.5347 50.3986 28.9278 51.3149 24.3315 50.9532C19.7351 50.5915 15.3284 48.9657 11.5983 46.2557C7.86832 43.5457 4.96037 39.857 3.19598 35.5974C1.4316 31.3378 0.87951 26.6732 1.60076 22.1194C2.32201 17.5656 4.2885 13.3 7.28282 9.79407C10.2771 6.28818 14.1826 3.6786 18.5675 2.25386L20.1069 6.99157C16.5958 8.13242 13.4685 10.222 11.0708 13.0293C8.67313 15.8366 7.09849 19.2523 6.52095 22.8987C5.94342 26.5451 6.3855 30.2802 7.79831 33.691C9.21112 37.1018 11.5396 40.0555 14.5264 42.2256C17.5132 44.3956 21.0419 45.6974 24.7223 45.987C28.4028 46.2767 32.0917 45.5429 35.3812 43.8669C38.6706 42.1908 41.4325 39.6377 43.3615 36.4899C45.2905 33.3421 46.3114 29.7221 46.3114 26.0303H51.293Z"/>
</mask>
<path d="M51.293 26.0303C51.293 30.6408 50.018 35.1616 47.609 39.0927C45.2 43.0239 41.7508 46.2123 37.6427 48.3054C33.5347 50.3986 28.9278 51.3149 24.3315 50.9532C19.7351 50.5915 15.3284 48.9657 11.5983 46.2557C7.86832 43.5457 4.96037 39.857 3.19598 35.5974C1.4316 31.3378 0.87951 26.6732 1.60076 22.1194C2.32201 17.5656 4.2885 13.3 7.28282 9.79407C10.2771 6.28818 14.1826 3.6786 18.5675 2.25386L20.1069 6.99157C16.5958 8.13242 13.4685 10.222 11.0708 13.0293C8.67313 15.8366 7.09849 19.2523 6.52095 22.8987C5.94342 26.5451 6.3855 30.2802 7.79831 33.691C9.21112 37.1018 11.5396 40.0555 14.5264 42.2256C17.5132 44.3956 21.0419 45.6974 24.7223 45.987C28.4028 46.2767 32.0917 45.5429 35.3812 43.8669C38.6706 42.1908 41.4325 39.6377 43.3615 36.4899C45.2905 33.3421 46.3114 29.7221 46.3114 26.0303H51.293Z" fill="#2ED47E"/>
<path d="M51.293 26.0303C51.293 30.6408 50.018 35.1616 47.609 39.0927C45.2 43.0239 41.7508 46.2123 37.6427 48.3054C33.5347 50.3986 28.9278 51.3149 24.3315 50.9532C19.7351 50.5915 15.3284 48.9657 11.5983 46.2557C7.86832 43.5457 4.96037 39.857 3.19598 35.5974C1.4316 31.3378 0.87951 26.6732 1.60076 22.1194C2.32201 17.5656 4.2885 13.3 7.28282 9.79407C10.2771 6.28818 14.1826 3.6786 18.5675 2.25386L20.1069 6.99157C16.5958 8.13242 13.4685 10.222 11.0708 13.0293C8.67313 15.8366 7.09849 19.2523 6.52095 22.8987C5.94342 26.5451 6.3855 30.2802 7.79831 33.691C9.21112 37.1018 11.5396 40.0555 14.5264 42.2256C17.5132 44.3956 21.0419 45.6974 24.7223 45.987C28.4028 46.2767 32.0917 45.5429 35.3812 43.8669C38.6706 42.1908 41.4325 39.6377 43.3615 36.4899C45.2905 33.3421 46.3114 29.7221 46.3114 26.0303H51.293Z" stroke="white" stroke-width="2" mask="url(#path-2-outside-2_511_1190)"/>
</svg>
