<svg width="51" height="51" viewBox="0 0 51 51" fill="none" xmlns="http://www.w3.org/2000/svg">
<path d="M38.4609 7.13013C36.8033 7.13013 35.2136 7.78861 34.0415 8.96071C32.8694 10.1328 32.2109 11.7225 32.2109 13.3801V38.3801C32.2109 40.0377 32.8694 41.6274 34.0415 42.7995C35.2136 43.9716 36.8033 44.6301 38.4609 44.6301C40.1185 44.6301 41.7083 43.9716 42.8804 42.7995C44.0525 41.6274 44.7109 40.0377 44.7109 38.3801C44.7109 36.7225 44.0525 35.1328 42.8804 33.9607C41.7083 32.7886 40.1185 32.1301 38.4609 32.1301H13.4609C11.8033 32.1301 10.2136 32.7886 9.04152 33.9607C7.86942 35.1328 7.21094 36.7225 7.21094 38.3801C7.21094 40.0377 7.86942 41.6274 9.04152 42.7995C10.2136 43.9716 11.8033 44.6301 13.4609 44.6301C15.1185 44.6301 16.7083 43.9716 17.8804 42.7995C19.0525 41.6274 19.7109 40.0377 19.7109 38.3801V13.3801C19.7109 11.7225 19.0525 10.1328 17.8804 8.96071C16.7083 7.78861 15.1185 7.13013 13.4609 7.13013C11.8033 7.13013 10.2136 7.78861 9.04152 8.96071C7.86942 10.1328 7.21094 11.7225 7.21094 13.3801C7.21094 15.0377 7.86942 16.6274 9.04152 17.7995C10.2136 18.9716 11.8033 19.6301 13.4609 19.6301H38.4609C40.1185 19.6301 41.7083 18.9716 42.8804 17.7995C44.0525 16.6274 44.7109 15.0377 44.7109 13.3801C44.7109 11.7225 44.0525 10.1328 42.8804 8.96071C41.7083 7.78861 40.1185 7.13013 38.4609 7.13013Z" stroke="#5C61F2" stroke-width="2" stroke-linecap="round" stroke-linejoin="round"/>
</svg>
