<svg width="51" height="51" viewBox="0 0 51 51" fill="none" xmlns="http://www.w3.org/2000/svg">
<path d="M43.9336 21.6848C43.9336 36.2681 25.1836 48.7681 25.1836 48.7681C25.1836 48.7681 6.43359 36.2681 6.43359 21.6848C6.43359 16.712 8.40903 11.9429 11.9253 8.42656C15.4416 4.91025 20.2108 2.93481 25.1836 2.93481C30.1564 2.93481 34.9255 4.91025 38.4418 8.42656C41.9581 11.9429 43.9336 16.712 43.9336 21.6848Z" stroke="#5C61F2" stroke-width="2" stroke-linecap="round" stroke-linejoin="round"/>
<path d="M25.1836 27.9348C28.6354 27.9348 31.4336 25.1366 31.4336 21.6848C31.4336 18.233 28.6354 15.4348 25.1836 15.4348C21.7318 15.4348 18.9336 18.233 18.9336 21.6848C18.9336 25.1366 21.7318 27.9348 25.1836 27.9348Z" stroke="#5C61F2" stroke-width="2" stroke-linecap="round" stroke-linejoin="round"/>
</svg>
