<svg width="50" height="51" viewBox="0 0 50 51" fill="none" xmlns="http://www.w3.org/2000/svg">
<path d="M37.5 17.5469C40.9518 17.5469 43.75 14.7487 43.75 11.2969C43.75 7.8451 40.9518 5.04688 37.5 5.04688C34.0482 5.04688 31.25 7.8451 31.25 11.2969C31.25 14.7487 34.0482 17.5469 37.5 17.5469Z" stroke="#5C61F2" stroke-width="2" stroke-linecap="round" stroke-linejoin="round"/>
<path d="M12.5 32.1301C15.9518 32.1301 18.75 29.3319 18.75 25.8801C18.75 22.4283 15.9518 19.6301 12.5 19.6301C9.04822 19.6301 6.25 22.4283 6.25 25.8801C6.25 29.3319 9.04822 32.1301 12.5 32.1301Z" stroke="#5C61F2" stroke-width="2" stroke-linecap="round" stroke-linejoin="round"/>
<path d="M37.5 46.7134C40.9518 46.7134 43.75 43.9152 43.75 40.4634C43.75 37.0116 40.9518 34.2134 37.5 34.2134C34.0482 34.2134 31.25 37.0116 31.25 40.4634C31.25 43.9152 34.0482 46.7134 37.5 46.7134Z" stroke="#5C61F2" stroke-width="2" stroke-linecap="round" stroke-linejoin="round"/>
<path d="M17.8945 29.0259L32.1237 37.3175" stroke="#5C61F2" stroke-width="2" stroke-linecap="round" stroke-linejoin="round"/>
<path d="M32.1029 14.4426L17.8945 22.7343" stroke="#5C61F2" stroke-width="2" stroke-linecap="round" stroke-linejoin="round"/>
</svg>
