<svg width="386" height="21" viewBox="0 0 386 21" fill="none" xmlns="http://www.w3.org/2000/svg">
<path d="M315.195 5.43701H326.029" stroke="#919AA3" stroke-width="1.5" stroke-linecap="round" stroke-linejoin="round"/>
<path d="M315.195 10.437H326.029" stroke="#919AA3" stroke-width="1.5" stroke-linecap="round" stroke-linejoin="round"/>
<path d="M315.195 15.437H326.029" stroke="#919AA3" stroke-width="1.5" stroke-linecap="round" stroke-linejoin="round"/>
<path d="M311.031 5.43701H311.04" stroke="#919AA3" stroke-width="1.5" stroke-linecap="round" stroke-linejoin="round"/>
<path d="M311.031 10.437H311.04" stroke="#919AA3" stroke-width="1.5" stroke-linecap="round" stroke-linejoin="round"/>
<path d="M311.031 15.437H311.04" stroke="#919AA3" stroke-width="1.5" stroke-linecap="round" stroke-linejoin="round"/>
<path d="M352.693 2.93701H341.026C340.106 2.93701 339.359 3.6832 339.359 4.60368V16.2703C339.359 17.1908 340.106 17.937 341.026 17.937H352.693C353.613 17.937 354.359 17.1908 354.359 16.2703V4.60368C354.359 3.6832 353.613 2.93701 352.693 2.93701Z" stroke="#919AA3" stroke-width="1.5" stroke-linecap="round" stroke-linejoin="round"/>
<path d="M343.945 8.77026C344.636 8.77026 345.195 8.21062 345.195 7.52026C345.195 6.82991 344.636 6.27026 343.945 6.27026C343.255 6.27026 342.695 6.82991 342.695 7.52026C342.695 8.21062 343.255 8.77026 343.945 8.77026Z" stroke="#919AA3" stroke-width="1.5" stroke-linecap="round" stroke-linejoin="round"/>
<path d="M354.357 12.9369L350.19 8.77026L341.023 17.9369" stroke="#919AA3" stroke-width="1.5" stroke-linecap="round" stroke-linejoin="round"/>
<path d="M111.867 3.77026H104.367" stroke="#919AA3" stroke-width="1.5" stroke-linecap="round" stroke-linejoin="round"/>
<path d="M107.695 17.1038H100.195" stroke="#919AA3" stroke-width="1.5" stroke-linecap="round" stroke-linejoin="round"/>
<path d="M108.531 3.77026L103.531 17.1036" stroke="#919AA3" stroke-width="1.5" stroke-linecap="round" stroke-linejoin="round"/>
<path d="M72.6953 3.77026H79.362C80.246 3.77026 81.0939 4.12145 81.719 4.74657C82.3441 5.3717 82.6953 6.21954 82.6953 7.1036C82.6953 7.98765 82.3441 8.8355 81.719 9.46062C81.0939 10.0857 80.246 10.4369 79.362 10.4369H72.6953V3.77026Z" stroke="#919AA3" stroke-width="1.5" stroke-linecap="round" stroke-linejoin="round"/>
<path d="M72.6953 10.437H80.1953C81.0794 10.437 81.9272 10.7882 82.5523 11.4133C83.1775 12.0384 83.5286 12.8863 83.5286 13.7703C83.5286 14.6544 83.1775 15.5022 82.5523 16.1274C81.9272 16.7525 81.0794 17.1037 80.1953 17.1037H72.6953V10.437Z" stroke="#919AA3" stroke-width="1.5" stroke-linecap="round" stroke-linejoin="round"/>
<path d="M129.359 2.93701V8.77034C129.359 10.0964 129.886 11.3682 130.824 12.3059C131.762 13.2436 133.033 13.7703 134.359 13.7703C135.685 13.7703 136.957 13.2436 137.895 12.3059C138.833 11.3682 139.359 10.0964 139.359 8.77034V2.93701" stroke="#919AA3" stroke-width="1.5" stroke-linecap="round" stroke-linejoin="round"/>
<path d="M127.695 17.937H141.029" stroke="#919AA3" stroke-width="1.5" stroke-linecap="round" stroke-linejoin="round"/>
<path d="M373.531 11.2702C373.889 11.7487 374.346 12.1446 374.87 12.431C375.394 12.7175 375.974 12.8878 376.57 12.9305C377.166 12.9732 377.764 12.8872 378.324 12.6784C378.884 12.4696 379.392 12.1428 379.815 11.7202L382.315 9.22023C383.074 8.43439 383.494 7.38188 383.484 6.2894C383.475 5.19691 383.036 4.15186 382.264 3.37932C381.491 2.60679 380.446 2.16859 379.354 2.15909C378.261 2.1496 377.209 2.56958 376.423 3.32857L374.99 4.75357" stroke="#919AA3" stroke-width="1.5" stroke-linecap="round" stroke-linejoin="round"/>
<path d="M376.859 9.60378C376.501 9.12534 376.045 8.72947 375.52 8.443C374.996 8.15654 374.416 7.98619 373.82 7.94351C373.224 7.90083 372.626 7.98681 372.066 8.19563C371.507 8.40445 370.998 8.73123 370.576 9.15378L368.076 11.6538C367.317 12.4396 366.897 13.4921 366.906 14.5846C366.916 15.6771 367.354 16.7222 368.127 17.4947C368.899 18.2672 369.944 18.7054 371.037 18.7149C372.129 18.7244 373.182 18.3044 373.968 17.5455L375.393 16.1205" stroke="#919AA3" stroke-width="1.5" stroke-linecap="round" stroke-linejoin="round"/>
<path d="M32.6953 12.1036L36.862 7.93693L32.6953 3.77026" stroke="#919AA3" stroke-width="1.5" stroke-linecap="round" stroke-linejoin="round"/>
<path d="M23.5312 17.1037V11.2703C23.5312 10.3863 23.8824 9.53844 24.5076 8.91332C25.1327 8.2882 25.9805 7.93701 26.8646 7.93701H36.8646" stroke="#919AA3" stroke-width="1.5" stroke-linecap="round" stroke-linejoin="round"/>
<path d="M7.69792 12.1036L3.53125 7.93693L7.69792 3.77026" stroke="#919AA3" stroke-width="1.5" stroke-linecap="round" stroke-linejoin="round"/>
<path d="M16.8646 17.1037V11.2703C16.8646 10.3863 16.5134 9.53844 15.8883 8.91332C15.2632 8.2882 14.4153 7.93701 13.5312 7.93701H3.53125" stroke="#919AA3" stroke-width="1.5" stroke-linecap="round" stroke-linejoin="round"/>
<path d="M247.698 8.77026H236.031" stroke="#919AA3" stroke-width="1.5" stroke-linecap="round" stroke-linejoin="round"/>
<path d="M247.695 5.43701H232.695" stroke="#919AA3" stroke-width="1.5" stroke-linecap="round" stroke-linejoin="round"/>
<path d="M247.695 12.1038H232.695" stroke="#919AA3" stroke-width="1.5" stroke-linecap="round" stroke-linejoin="round"/>
<path d="M247.698 15.437H236.031" stroke="#919AA3" stroke-width="1.5" stroke-linecap="round" stroke-linejoin="round"/>
<path d="M187.698 8.77026H176.031" stroke="#919AA3" stroke-width="1.5" stroke-linecap="round" stroke-linejoin="round"/>
<path d="M191.031 5.43701H176.031" stroke="#919AA3" stroke-width="1.5" stroke-linecap="round" stroke-linejoin="round"/>
<path d="M191.031 12.1038H176.031" stroke="#919AA3" stroke-width="1.5" stroke-linecap="round" stroke-linejoin="round"/>
<path d="M187.698 15.437H176.031" stroke="#919AA3" stroke-width="1.5" stroke-linecap="round" stroke-linejoin="round"/>
<path d="M216.859 8.77026H206.859" stroke="#919AA3" stroke-width="1.5" stroke-linecap="round" stroke-linejoin="round"/>
<path d="M219.359 5.43701H204.359" stroke="#919AA3" stroke-width="1.5" stroke-linecap="round" stroke-linejoin="round"/>
<path d="M219.359 12.1038H204.359" stroke="#919AA3" stroke-width="1.5" stroke-linecap="round" stroke-linejoin="round"/>
<path d="M216.859 15.437H206.859" stroke="#919AA3" stroke-width="1.5" stroke-linecap="round" stroke-linejoin="round"/>
<path d="M276.031 8.77026H261.031" stroke="#919AA3" stroke-width="1.5" stroke-linecap="round" stroke-linejoin="round"/>
<path d="M276.031 5.43701H261.031" stroke="#919AA3" stroke-width="1.5" stroke-linecap="round" stroke-linejoin="round"/>
<path d="M276.031 12.1038H261.031" stroke="#919AA3" stroke-width="1.5" stroke-linecap="round" stroke-linejoin="round"/>
<path d="M276.031 15.437H261.031" stroke="#919AA3" stroke-width="1.5" stroke-linecap="round" stroke-linejoin="round"/>
</svg>
