<svg width="35" height="35" viewBox="0 0 35 35" fill="none" xmlns="http://www.w3.org/2000/svg">
<circle cx="17.1797" cy="17.8301" r="17" fill="#DAE0EC"/>
<g clip-path="url(#clip0_436_1432)">
<path d="M26.349 23.6634C26.349 24.1054 26.1734 24.5294 25.8608 24.8419C25.5482 25.1545 25.1243 25.3301 24.6823 25.3301H9.68229C9.24026 25.3301 8.81634 25.1545 8.50378 24.8419C8.19122 24.5294 8.01562 24.1054 8.01562 23.6634V14.4967C8.01562 14.0547 8.19122 13.6308 8.50378 13.3182C8.81634 13.0057 9.24026 12.8301 9.68229 12.8301H13.0156L14.6823 10.3301H19.6823L21.349 12.8301H24.6823C25.1243 12.8301 25.5482 13.0057 25.8608 13.3182C26.1734 13.6308 26.349 14.0547 26.349 14.4967V23.6634Z" stroke="#171825" stroke-width="2" stroke-linecap="round" stroke-linejoin="round"/>
<path d="M17.1771 21.9967C19.018 21.9967 20.5104 20.5044 20.5104 18.6634C20.5104 16.8225 19.018 15.3301 17.1771 15.3301C15.3361 15.3301 13.8438 16.8225 13.8438 18.6634C13.8438 20.5044 15.3361 21.9967 17.1771 21.9967Z" stroke="#171825" stroke-width="2" stroke-linecap="round" stroke-linejoin="round"/>
</g>
<defs>
<clipPath id="clip0_436_1432">
<rect width="20" height="20" fill="white" transform="translate(7.17969 7.83008)"/>
</clipPath>
</defs>
</svg>
