<svg width="194" height="42" viewBox="0 0 194 42" fill="none" xmlns="http://www.w3.org/2000/svg">
<rect y="0.731934" width="194" height="41" rx="5" fill="#5C61F2"/>
<g clip-path="url(#clip0_427_58636)">
<path d="M43.3307 25.8986C43.3307 26.2522 43.1903 26.5914 42.9402 26.8414C42.6902 27.0915 42.351 27.2319 41.9974 27.2319H29.9974C29.6438 27.2319 29.3046 27.0915 29.0546 26.8414C28.8045 26.5914 28.6641 26.2522 28.6641 25.8986V18.5653C28.6641 18.2116 28.8045 17.8725 29.0546 17.6225C29.3046 17.3724 29.6438 17.2319 29.9974 17.2319H32.6641L33.9974 15.2319H37.9974L39.3307 17.2319H41.9974C42.351 17.2319 42.6902 17.3724 42.9402 17.6225C43.1903 17.8725 43.3307 18.2116 43.3307 18.5653V25.8986Z" stroke="white" stroke-width="2" stroke-linecap="round" stroke-linejoin="round"/>
<path d="M36.0026 24.5653C37.4754 24.5653 38.6693 23.3714 38.6693 21.8986C38.6693 20.4258 37.4754 19.2319 36.0026 19.2319C34.5298 19.2319 33.3359 20.4258 33.3359 21.8986C33.3359 23.3714 34.5298 24.5653 36.0026 24.5653Z" stroke="white" stroke-width="2" stroke-linecap="round" stroke-linejoin="round"/>
</g>
<path d="M55.233 26.7319V16.5501H61.3778V17.6439H56.4659V21.0842H61.0597V22.178H56.4659V25.6382H61.4574V26.7319H55.233ZM66.3246 26.891C65.6882 26.891 65.1264 26.7303 64.6392 26.4088C64.152 26.084 63.7708 25.6266 63.4957 25.0366C63.2206 24.4433 63.0831 23.7424 63.0831 22.9336C63.0831 22.1316 63.2206 21.4355 63.4957 20.8456C63.7708 20.2556 64.1536 19.7999 64.6442 19.4784C65.1347 19.1569 65.7015 18.9961 66.3445 18.9961C66.8416 18.9961 67.2344 19.079 67.5227 19.2447C67.8144 19.4071 68.0365 19.5927 68.1889 19.8015C68.3447 20.007 68.4657 20.1761 68.5518 20.3086H68.6513V16.5501H69.8246V26.7319H68.6911V25.5586H68.5518C68.4657 25.6978 68.343 25.8735 68.1839 26.0856C68.0249 26.2944 67.7978 26.4817 67.5028 26.6474C67.2079 26.8098 66.8151 26.891 66.3246 26.891ZM66.4837 25.837C66.9543 25.837 67.352 25.7144 67.6768 25.4691C68.0017 25.2206 68.2486 24.8775 68.4176 24.44C68.5866 23.9992 68.6712 23.4905 68.6712 22.9138C68.6712 22.3437 68.5883 21.8449 68.4226 21.4173C68.2569 20.9864 68.0116 20.6517 67.6868 20.413C67.362 20.1711 66.9609 20.0501 66.4837 20.0501C65.9865 20.0501 65.5722 20.1777 65.2408 20.4329C64.9126 20.6848 64.6657 21.0279 64.5 21.462C64.3376 21.8929 64.2564 22.3768 64.2564 22.9138C64.2564 23.4573 64.3393 23.9512 64.505 24.3953C64.674 24.8361 64.9226 25.1874 65.2507 25.4493C65.5821 25.7078 65.9931 25.837 66.4837 25.837ZM72.1364 26.7319V19.0956H73.3097V26.7319H72.1364ZM72.733 17.8228C72.5043 17.8228 72.3071 17.745 72.1413 17.5892C71.9789 17.4334 71.8977 17.2461 71.8977 17.0274C71.8977 16.8086 71.9789 16.6214 72.1413 16.4656C72.3071 16.3098 72.5043 16.2319 72.733 16.2319C72.9616 16.2319 73.1572 16.3098 73.3196 16.4656C73.4853 16.6214 73.5682 16.8086 73.5682 17.0274C73.5682 17.2461 73.4853 17.4334 73.3196 17.5892C73.1572 17.745 72.9616 17.8228 72.733 17.8228ZM78.7797 19.0956V20.0899H74.8223V19.0956H78.7797ZM75.9757 17.266H77.149V24.5444C77.149 24.8759 77.197 25.1245 77.2931 25.2902C77.3926 25.4526 77.5185 25.562 77.671 25.6183C77.8268 25.6713 77.9908 25.6978 78.1632 25.6978C78.2924 25.6978 78.3985 25.6912 78.4814 25.678C78.5642 25.6614 78.6305 25.6481 78.6802 25.6382L78.9189 26.6922C78.8393 26.722 78.7283 26.7518 78.5858 26.7816C78.4432 26.8148 78.2626 26.8314 78.0439 26.8314C77.7124 26.8314 77.3876 26.7601 77.0694 26.6176C76.7546 26.4751 76.4927 26.258 76.2839 25.9663C76.0784 25.6746 75.9757 25.3067 75.9757 24.8626V17.266ZM92.8343 19.7319H91.6014C91.5285 19.3773 91.4009 19.0657 91.2186 18.7973C91.0396 18.5288 90.8208 18.3034 90.5623 18.1211C90.3071 17.9355 90.0237 17.7963 89.7122 17.7035C89.4006 17.6107 89.0758 17.5643 88.7377 17.5643C88.1213 17.5643 87.5628 17.7201 87.0623 18.0316C86.5652 18.3432 86.1691 18.8022 85.8741 19.4088C85.5824 20.0153 85.4366 20.7594 85.4366 21.641C85.4366 22.5227 85.5824 23.2667 85.8741 23.8733C86.1691 24.4798 86.5652 24.9388 87.0623 25.2504C87.5628 25.562 88.1213 25.7177 88.7377 25.7177C89.0758 25.7177 89.4006 25.6713 89.7122 25.5785C90.0237 25.4857 90.3071 25.3482 90.5623 25.1659C90.8208 24.9803 91.0396 24.7532 91.2186 24.4848C91.4009 24.213 91.5285 23.9014 91.6014 23.5501H92.8343C92.7415 24.0705 92.5725 24.5361 92.3272 24.9471C92.082 25.3581 91.777 25.7078 91.4125 25.9961C91.0479 26.2812 90.6386 26.4983 90.1845 26.6474C89.7337 26.7966 89.2515 26.8711 88.7377 26.8711C87.8694 26.8711 87.0971 26.659 86.421 26.2348C85.7449 25.8105 85.2129 25.2073 84.8251 24.4251C84.4373 23.6429 84.2434 22.7149 84.2434 21.641C84.2434 20.5672 84.4373 19.6391 84.8251 18.8569C85.2129 18.0747 85.7449 17.4715 86.421 17.0473C87.0971 16.623 87.8694 16.4109 88.7377 16.4109C89.2515 16.4109 89.7337 16.4855 90.1845 16.6346C90.6386 16.7838 91.0479 17.0025 91.4125 17.2909C91.777 17.5759 92.082 17.9239 92.3272 18.3349C92.5725 18.7426 92.7415 19.2083 92.8343 19.7319ZM97.7699 26.891C97.0805 26.891 96.4756 26.727 95.9553 26.3988C95.4382 26.0707 95.0339 25.6117 94.7422 25.0217C94.4538 24.4317 94.3097 23.7424 94.3097 22.9535C94.3097 22.1581 94.4538 21.4637 94.7422 20.8704C95.0339 20.2772 95.4382 19.8165 95.9553 19.4883C96.4756 19.1602 97.0805 18.9961 97.7699 18.9961C98.4593 18.9961 99.0625 19.1602 99.5795 19.4883C100.1 19.8165 100.504 20.2772 100.793 20.8704C101.084 21.4637 101.23 22.1581 101.23 22.9535C101.23 23.7424 101.084 24.4317 100.793 25.0217C100.504 25.6117 100.1 26.0707 99.5795 26.3988C99.0625 26.727 98.4593 26.891 97.7699 26.891ZM97.7699 25.837C98.2936 25.837 98.7244 25.7028 99.0625 25.4343C99.4006 25.1659 99.6508 24.8129 99.8132 24.3754C99.9756 23.9379 100.057 23.4639 100.057 22.9535C100.057 22.4431 99.9756 21.9675 99.8132 21.5267C99.6508 21.0859 99.4006 20.7296 99.0625 20.4578C98.7244 20.186 98.2936 20.0501 97.7699 20.0501C97.2462 20.0501 96.8153 20.186 96.4773 20.4578C96.1392 20.7296 95.889 21.0859 95.7266 21.5267C95.5642 21.9675 95.483 22.4431 95.483 22.9535C95.483 23.4639 95.5642 23.9379 95.7266 24.3754C95.889 24.8129 96.1392 25.1659 96.4773 25.4343C96.8153 25.7028 97.2462 25.837 97.7699 25.837ZM108.992 19.0956L106.168 26.7319H104.975L102.151 19.0956H103.424L105.532 25.1808H105.611L107.719 19.0956H108.992ZM113.469 26.891C112.733 26.891 112.098 26.7286 111.565 26.4038C111.035 26.0757 110.625 25.6183 110.337 25.0316C110.052 24.4417 109.909 23.7556 109.909 22.9734C109.909 22.1912 110.052 21.5018 110.337 20.9052C110.625 20.3053 111.026 19.838 111.54 19.5032C112.057 19.1652 112.66 18.9961 113.35 18.9961C113.747 18.9961 114.14 19.0624 114.528 19.195C114.916 19.3276 115.269 19.543 115.587 19.8413C115.905 20.1363 116.159 20.5274 116.347 21.0146C116.536 21.5018 116.631 22.1017 116.631 22.8143V23.3115H110.744V22.2973H115.438C115.438 21.8664 115.352 21.4819 115.179 21.1439C115.01 20.8058 114.768 20.539 114.453 20.3434C114.142 20.1479 113.774 20.0501 113.35 20.0501C112.882 20.0501 112.478 20.1661 112.137 20.3981C111.798 20.6268 111.538 20.9251 111.356 21.293C111.174 21.6609 111.083 22.0553 111.083 22.4763V23.1524C111.083 23.7291 111.182 24.218 111.381 24.619C111.583 25.0167 111.863 25.32 112.221 25.5288C112.579 25.7343 112.995 25.837 113.469 25.837C113.777 25.837 114.056 25.794 114.304 25.7078C114.556 25.6183 114.773 25.4857 114.955 25.3101C115.138 25.1311 115.279 24.909 115.378 24.6439L116.512 24.962C116.392 25.3465 116.192 25.6846 115.91 25.9763C115.628 26.2646 115.28 26.49 114.866 26.6524C114.452 26.8115 113.986 26.891 113.469 26.891ZM118.416 26.7319V19.0956H119.549V20.249H119.629C119.768 19.8711 120.02 19.5646 120.384 19.3292C120.749 19.0939 121.16 18.9763 121.617 18.9763C121.704 18.9763 121.811 18.9779 121.941 18.9812C122.07 18.9845 122.168 18.9895 122.234 18.9961V20.1893C122.194 20.1794 122.103 20.1645 121.96 20.1446C121.821 20.1214 121.674 20.1098 121.518 20.1098C121.147 20.1098 120.815 20.1877 120.524 20.3434C120.235 20.4959 120.007 20.708 119.838 20.9798C119.672 21.2483 119.589 21.5549 119.589 21.8995V26.7319H118.416ZM127.721 26.7319V16.5501H131.162C131.96 16.5501 132.613 16.6943 133.12 16.9826C133.631 17.2677 134.009 17.6538 134.254 18.141C134.499 18.6282 134.622 19.1718 134.622 19.7717C134.622 20.3716 134.499 20.9168 134.254 21.4074C134.012 21.8979 133.637 22.289 133.13 22.5807C132.623 22.869 131.974 23.0132 131.181 23.0132H128.716V21.9194H131.142C131.689 21.9194 132.128 21.825 132.459 21.6361C132.791 21.4471 133.031 21.1919 133.18 20.8704C133.333 20.5456 133.409 20.1794 133.409 19.7717C133.409 19.364 133.333 18.9995 133.18 18.678C133.031 18.3565 132.789 18.1046 132.454 17.9223C132.119 17.7367 131.675 17.6439 131.122 17.6439H128.954V26.7319H127.721ZM137.622 22.1382V26.7319H136.449V16.5501H137.622V20.2888H137.722C137.901 19.8943 138.169 19.5811 138.527 19.3491C138.888 19.1138 139.369 18.9961 139.969 18.9961C140.489 18.9961 140.945 19.1005 141.336 19.3093C141.727 19.5148 142.03 19.8314 142.246 20.2589C142.464 20.6832 142.574 21.2234 142.574 21.8797V26.7319H141.401V21.9592C141.401 21.3527 141.243 20.8837 140.928 20.5522C140.617 20.2175 140.184 20.0501 139.631 20.0501C139.246 20.0501 138.902 20.1313 138.597 20.2937C138.295 20.4561 138.056 20.6931 137.881 21.0047C137.708 21.3162 137.622 21.6941 137.622 22.1382ZM147.823 26.891C147.133 26.891 146.528 26.727 146.008 26.3988C145.491 26.0707 145.087 25.6117 144.795 25.0217C144.507 24.4317 144.362 23.7424 144.362 22.9535C144.362 22.1581 144.507 21.4637 144.795 20.8704C145.087 20.2772 145.491 19.8165 146.008 19.4883C146.528 19.1602 147.133 18.9961 147.823 18.9961C148.512 18.9961 149.115 19.1602 149.632 19.4883C150.153 19.8165 150.557 20.2772 150.845 20.8704C151.137 21.4637 151.283 22.1581 151.283 22.9535C151.283 23.7424 151.137 24.4317 150.845 25.0217C150.557 25.6117 150.153 26.0707 149.632 26.3988C149.115 26.727 148.512 26.891 147.823 26.891ZM147.823 25.837C148.346 25.837 148.777 25.7028 149.115 25.4343C149.453 25.1659 149.704 24.8129 149.866 24.3754C150.028 23.9379 150.11 23.4639 150.11 22.9535C150.11 22.4431 150.028 21.9675 149.866 21.5267C149.704 21.0859 149.453 20.7296 149.115 20.4578C148.777 20.186 148.346 20.0501 147.823 20.0501C147.299 20.0501 146.868 20.186 146.53 20.4578C146.192 20.7296 145.942 21.0859 145.779 21.5267C145.617 21.9675 145.536 22.4431 145.536 22.9535C145.536 23.4639 145.617 23.9379 145.779 24.3754C145.942 24.8129 146.192 25.1659 146.53 25.4343C146.868 25.7028 147.299 25.837 147.823 25.837ZM156.395 19.0956V20.0899H152.438V19.0956H156.395ZM153.591 17.266H154.764V24.5444C154.764 24.8759 154.812 25.1245 154.908 25.2902C155.008 25.4526 155.134 25.562 155.286 25.6183C155.442 25.6713 155.606 25.6978 155.778 25.6978C155.908 25.6978 156.014 25.6912 156.097 25.678C156.179 25.6614 156.246 25.6481 156.295 25.6382L156.534 26.6922C156.455 26.722 156.344 26.7518 156.201 26.7816C156.058 26.8148 155.878 26.8314 155.659 26.8314C155.328 26.8314 155.003 26.7601 154.685 26.6176C154.37 26.4751 154.108 26.258 153.899 25.9663C153.694 25.6746 153.591 25.3067 153.591 24.8626V17.266ZM161.18 26.891C160.491 26.891 159.886 26.727 159.365 26.3988C158.848 26.0707 158.444 25.6117 158.152 25.0217C157.864 24.4317 157.72 23.7424 157.72 22.9535C157.72 22.1581 157.864 21.4637 158.152 20.8704C158.444 20.2772 158.848 19.8165 159.365 19.4883C159.886 19.1602 160.491 18.9961 161.18 18.9961C161.869 18.9961 162.473 19.1602 162.99 19.4883C163.51 19.8165 163.914 20.2772 164.203 20.8704C164.494 21.4637 164.64 22.1581 164.64 22.9535C164.64 23.7424 164.494 24.4317 164.203 25.0217C163.914 25.6117 163.51 26.0707 162.99 26.3988C162.473 26.727 161.869 26.891 161.18 26.891ZM161.18 25.837C161.704 25.837 162.135 25.7028 162.473 25.4343C162.811 25.1659 163.061 24.8129 163.223 24.3754C163.386 23.9379 163.467 23.4639 163.467 22.9535C163.467 22.4431 163.386 21.9675 163.223 21.5267C163.061 21.0859 162.811 20.7296 162.473 20.4578C162.135 20.186 161.704 20.0501 161.18 20.0501C160.656 20.0501 160.225 20.186 159.887 20.4578C159.549 20.7296 159.299 21.0859 159.137 21.5267C158.974 21.9675 158.893 22.4431 158.893 22.9535C158.893 23.4639 158.974 23.9379 159.137 24.3754C159.299 24.8129 159.549 25.1659 159.887 25.4343C160.225 25.7028 160.656 25.837 161.18 25.837Z" fill="white"/>
<defs>
<clipPath id="clip0_427_58636">
<rect width="16" height="16" fill="white" transform="translate(28 13.2319)"/>
</clipPath>
</defs>
</svg>
