<svg width="35" height="41" viewBox="0 0 35 41" fill="none" xmlns="http://www.w3.org/2000/svg">
<g clip-path="url(#clip0_183_944)">
<path d="M34.0341 13.1119L32.7982 9.77636L33.6487 7.86274C33.755 7.61025 33.7019 7.33118 33.5158 7.13184L31.1902 4.77968C30.167 3.75643 28.652 3.39762 27.2833 3.87603L26.6321 4.10194L23.0706 0.248119L17.0507 0.208252H17.0108L10.951 0.261408L7.40286 4.14181L6.76499 3.91589C5.38293 3.4242 3.85469 3.783 2.83144 4.83284L0.465987 7.22486C0.306519 7.38433 0.266652 7.61025 0.346386 7.80958L1.23675 9.80294L0.0141602 13.1385L0.811502 16.1551L4.42612 29.8827C4.83808 31.4641 5.79489 32.8461 7.13708 33.8029C7.13708 33.8029 11.5225 36.8993 15.8414 39.7033C16.2268 39.9558 16.6255 40.1285 17.0507 40.1285C17.476 40.1285 17.8746 39.9558 18.26 39.7033C23.1238 36.5139 26.9643 33.7896 26.9643 33.7896C28.2932 32.8328 29.25 31.4508 29.662 29.8694L33.25 16.1418L34.0341 13.1119Z" fill="#F15A22"/>
<path opacity="0.15" d="M4.59888 30.4673L0.0141602 13.4307L1.35635 10.0952L0.42612 7.62342L2.64539 5.36429C3.37629 4.71312 4.8115 4.48721 5.47595 4.87259L8.94439 6.86595L13.4627 7.91578L16.9843 6.45399L17.2766 36.7131C17.2235 41.0719 17.5025 40.6068 14.2999 38.547L6.3929 33.2447C5.5424 32.4341 4.89124 31.5171 4.59888 30.4673Z" fill="url(#paint0_linear_183_944)"/>
<path opacity="0.4" d="M26.8844 33.7293L20.1601 38.3273C18.2863 39.3506 17.3827 40.3605 17.2365 39.8689C17.1169 39.4835 17.2099 38.3539 17.1701 36.5997L17.0903 7.00506C17.1036 6.7127 17.303 6.22101 17.6485 6.27417L21.077 7.31071L26.0206 6.53995L29.2897 4.13463C29.6352 3.86885 30.1402 3.89543 30.4591 4.20108L33.3827 6.99177C33.6485 7.27084 33.6618 7.81569 33.5023 8.16121L32.6917 9.66287L34.0339 13.1313L29.4093 30.3273C28.6917 32.4669 27.6817 33.025 26.8844 33.7293Z" fill="url(#paint1_linear_183_944)"/>
<path d="M17.8214 24.7666C17.662 24.7001 17.4892 24.647 17.436 24.647H17.0108C16.9576 24.647 16.7849 24.7001 16.6254 24.7666L14.8978 25.4842C14.7384 25.5506 14.4726 25.6702 14.3131 25.75L11.7085 27.1054C11.549 27.1852 11.5357 27.3314 11.6819 27.4377L13.9809 29.0589C14.1271 29.1652 14.353 29.338 14.4859 29.4576L15.5091 30.3347C15.642 30.4543 15.8547 30.6403 15.9875 30.7599L16.9709 31.637C17.1038 31.7566 17.3164 31.7566 17.4493 31.637L18.4593 30.7599C18.5922 30.6403 18.8048 30.4543 18.9377 30.3347L19.961 29.4443C20.0939 29.3247 20.3198 29.152 20.4659 29.0456L22.7649 27.4111C22.9111 27.3048 22.8978 27.1586 22.7384 27.0789L20.1337 25.75C19.9743 25.6702 19.7085 25.5506 19.549 25.4842L17.8214 24.7666Z" fill="white"/>
<path d="M30.2885 13.7042C30.3416 13.5314 30.3416 13.465 30.3416 13.465C30.3416 13.2922 30.3283 12.9999 30.3018 12.8271L30.1689 12.4417C30.0891 12.2823 29.9563 12.0298 29.8499 11.8836L28.3483 9.66433C28.2553 9.51815 28.0825 9.29224 27.9629 9.14606L26.0227 6.71417C25.9164 6.58128 25.8101 6.46167 25.7968 6.47496H25.7702C25.7702 6.47496 25.624 6.50154 25.4513 6.52812L22.4878 7.11284C22.3151 7.1527 22.036 7.20586 21.8632 7.23244L21.8101 7.24573C21.6373 7.27231 21.3582 7.25902 21.1855 7.20586L18.7004 6.40852C18.5277 6.35536 18.2486 6.27563 18.0891 6.23576C18.0891 6.23576 17.5842 6.11616 17.1722 6.12945C16.7602 6.12945 16.2553 6.23576 16.2553 6.23576C16.0825 6.27563 15.8034 6.35536 15.644 6.40852L13.1589 7.20586C12.9862 7.25902 12.7071 7.27231 12.5343 7.24573L12.4812 7.23244C12.3084 7.20586 12.0293 7.13942 11.8566 7.11284L8.86656 6.5547C8.6938 6.51483 8.54762 6.50154 8.54762 6.50154H8.52104C8.50775 6.50154 8.40144 6.60785 8.29513 6.74074L6.35493 9.17264C6.24862 9.30553 6.07586 9.54473 5.96955 9.69091L4.46789 11.9102C4.37486 12.0564 4.22868 12.3089 4.14895 12.4683L4.01606 12.8537C3.98948 13.0265 3.9629 13.3188 3.97619 13.4916C3.97619 13.4916 3.97619 13.5447 4.02935 13.7308C4.12237 14.0497 4.34828 14.3421 4.34828 14.3421C4.4546 14.475 4.65393 14.7009 4.77353 14.8205L9.1722 19.4982C9.29181 19.6311 9.33167 19.8703 9.26523 20.0298L8.34828 22.1959C8.28184 22.3554 8.26855 22.6211 8.33499 22.7939L8.58749 23.4716C8.80011 24.0431 9.15892 24.5481 9.63732 24.9334L10.5277 25.651C10.6606 25.7574 10.8998 25.7972 11.0592 25.7175L13.8765 24.3753C14.036 24.2956 14.2752 24.1361 14.4081 24.0165L16.428 22.1959C16.7204 21.9301 16.7337 21.4783 16.4679 21.1859L12.2287 18.3288C12.0825 18.2358 12.0293 18.0231 12.1091 17.8637L13.9695 14.3554C14.0493 14.1959 14.0626 13.9434 13.9961 13.7839L13.7702 13.2657C13.7038 13.1062 13.5044 12.9201 13.345 12.8537L7.88317 10.8072C7.7237 10.7407 7.7237 10.6743 7.89646 10.661L11.4181 10.3288C11.5908 10.3155 11.8699 10.3421 12.0426 10.3819L15.1788 11.259C15.3516 11.3122 15.4579 11.4849 15.4313 11.6577L14.3416 17.6245C14.3151 17.7972 14.3151 18.0364 14.3549 18.1693C14.3948 18.3022 14.5676 18.4218 14.7403 18.4617L16.9197 18.9268C17.0925 18.9667 17.3715 18.9667 17.5443 18.9268L19.5775 18.4617C19.7503 18.4218 19.923 18.2889 19.9629 18.1693C20.0028 18.0497 20.0161 17.7972 19.9762 17.6245L18.8998 11.6577C18.8732 11.4849 18.9795 11.2989 19.1523 11.259L22.2885 10.3819C22.4612 10.3288 22.7403 10.3155 22.9131 10.3288L26.4347 10.661C26.6074 10.6743 26.6207 10.7407 26.4479 10.8072L20.9862 12.8803C20.8267 12.9467 20.6274 13.1195 20.5609 13.2922L20.335 13.8105C20.2685 13.97 20.2686 14.2358 20.3616 14.3819L22.2353 17.8902C22.3151 18.0497 22.2619 18.2491 22.1157 18.3554L17.8765 21.2258C17.5975 21.5049 17.624 21.97 17.9164 22.2358L19.9363 24.0564C20.0692 24.176 20.3084 24.3354 20.4679 24.4019L23.2984 25.7441C23.4579 25.8238 23.6971 25.7839 23.83 25.6776L24.7204 24.9467C25.1988 24.5613 25.5576 24.0564 25.7569 23.4849L26.0094 22.8072C26.0759 22.6477 26.0626 22.3687 25.9961 22.2092L25.0792 20.0431C25.0127 19.8836 25.0526 19.6444 25.1722 19.5115L29.5709 14.8338C29.6905 14.7009 29.8765 14.4883 29.9961 14.3554C29.9695 14.3155 30.2087 14.0231 30.2885 13.7042Z" fill="white"/>
</g>
<defs>
<linearGradient id="paint0_linear_183_944" x1="0.0141602" y1="1774.36" x2="1727.93" y2="1774.36" gradientUnits="userSpaceOnUse">
<stop stop-color="white"/>
<stop offset="0.1413" stop-color="white" stop-opacity="0.958"/>
<stop offset="1" stop-color="white" stop-opacity="0.7"/>
</linearGradient>
<linearGradient id="paint1_linear_183_944" x1="16.4295" y1="1805.55" x2="1711.44" y2="1805.55" gradientUnits="userSpaceOnUse">
<stop stop-color="#F1F1F2"/>
<stop offset="0.09191" stop-color="#E4E5E6"/>
<stop offset="0.2357" stop-color="#D9DADB"/>
<stop offset="0.438" stop-color="#D2D4D5"/>
<stop offset="1" stop-color="#D0D2D3"/>
</linearGradient>
<clipPath id="clip0_183_944">
<rect width="34.0199" height="40" fill="white" transform="translate(0.0141602 0.208252)"/>
</clipPath>
</defs>
</svg>
