<svg width="40" height="41" viewBox="0 0 40 41" fill="none" xmlns="http://www.w3.org/2000/svg">
<g clip-path="url(#clip0_183_774)">
<path d="M19.9036 0.21374C19.9036 0.21374 31.6265 -0.312331 37.8418 11.471H18.9061C18.9061 11.471 15.3325 11.3558 12.2799 15.6911C11.403 17.5107 10.4605 19.3851 11.5182 23.0791C9.99447 20.4976 3.42871 9.0651 3.42871 9.0651C3.42871 9.0651 8.05999 0.679576 19.9036 0.21374Z" fill="#EF3F36"/>
<path d="M37.2335 30.1271C37.2335 30.1271 31.824 40.5458 18.5171 40.0306C20.1613 37.1861 27.9876 23.6325 27.9876 23.6325C27.9876 23.6325 29.8785 20.5963 27.6478 15.7843C26.5132 14.1127 25.3568 12.3643 21.6301 11.4325C24.6281 11.4053 37.8091 11.4325 37.8091 11.4325C37.8091 11.4325 42.747 19.6372 37.2335 30.1271Z" fill="#FCD900"/>
<path d="M2.65591 30.2094C2.65591 30.2094 -3.66331 20.3168 3.43957 9.04858C5.07832 11.8931 12.9046 25.4467 12.9046 25.4467C12.9046 25.4467 14.5927 28.6036 19.8705 29.0747C21.8821 28.9269 23.9756 28.8008 26.6503 26.0441C25.1758 28.6529 18.5605 40.0526 18.5605 40.0526C18.5605 40.0526 8.98058 40.228 2.65591 30.2094Z" fill="#61BC5B"/>
<path d="M18.5112 40.1295L21.1747 29.0148C21.1747 29.0148 24.1014 28.7844 26.5568 26.0935C25.0331 28.7737 18.5112 40.1295 18.5112 40.1295Z" fill="#5AB055"/>
<path d="M10.981 20.2948C10.981 15.3952 14.9545 11.4216 19.8541 11.4216C24.7537 11.4216 28.7273 15.3952 28.7273 20.2948C28.7273 25.1946 24.7537 29.1679 19.8541 29.1679C14.9545 29.1625 10.981 25.1946 10.981 20.2948Z" fill="white"/>
<path d="M12.4663 20.2948C12.4663 16.2173 15.7712 12.907 19.8543 12.907C23.9318 12.907 27.2422 16.2119 27.2422 20.2948C27.2422 24.3725 23.9374 27.6829 19.8543 27.6829C15.7767 27.6829 12.4663 24.3725 12.4663 20.2948Z" fill="url(#paint0_linear_183_774)"/>
<path d="M37.8033 11.4382L26.8365 14.6554C26.8365 14.6554 25.1814 12.2273 21.6245 11.4382C24.7101 11.4217 37.8033 11.4382 37.8033 11.4382Z" fill="#EACA05"/>
<path d="M11.3045 22.6733C9.76428 20.0042 3.42871 9.06494 3.42871 9.06494L11.551 17.0995C11.551 17.0995 10.7179 18.815 11.0304 21.2702L11.3045 22.6733Z" fill="#DF3A32"/>
</g>
<defs>
<linearGradient id="paint0_linear_183_774" x1="751.23" y1="23.3388" x2="751.23" y2="1446.02" gradientUnits="userSpaceOnUse">
<stop stop-color="#86BBE5"/>
<stop offset="1" stop-color="#1072BA"/>
</linearGradient>
<clipPath id="clip0_183_774">
<rect width="39.8444" height="40" fill="white" transform="translate(0.0141602 0.208252)"/>
</clipPath>
</defs>
</svg>
