<svg width="41" height="41" viewBox="0 0 41 41" fill="none" xmlns="http://www.w3.org/2000/svg">
<g clip-path="url(#clip0_183_937)">
<path d="M36.1079 29.9739C35.5767 30.2551 35.0298 30.5051 34.4673 30.7083C32.6704 31.3801 30.7798 31.7239 28.8579 31.7239C21.4673 31.7239 15.0298 26.6458 15.0298 20.1145C15.0454 18.3333 16.0298 16.6926 17.5923 15.8489C10.9048 16.1301 9.18604 23.0989 9.18604 27.177C9.18604 38.7239 19.8267 39.8958 22.1235 39.8958C23.3579 39.8958 25.2173 39.5364 26.3423 39.177L26.5454 39.1145C30.8579 37.6301 34.5142 34.7239 36.9517 30.8645C37.1392 30.5676 37.0454 30.1926 36.7642 30.0051C36.561 29.8801 36.311 29.8645 36.1079 29.9739Z" fill="url(#paint0_linear_183_937)"/>
<path opacity="0.35" d="M36.1079 29.9739C35.5767 30.2551 35.0298 30.5051 34.4673 30.7083C32.6704 31.3801 30.7798 31.7239 28.8579 31.7239C21.4673 31.7239 15.0298 26.6458 15.0298 20.1145C15.0454 18.3333 16.0298 16.6926 17.5923 15.8489C10.9048 16.1301 9.18604 23.0989 9.18604 27.177C9.18604 38.7239 19.8267 39.8958 22.1235 39.8958C23.3579 39.8958 25.2173 39.5364 26.3423 39.177L26.5454 39.1145C30.8579 37.6301 34.5142 34.7239 36.9517 30.8645C37.1392 30.5676 37.0454 30.1926 36.7642 30.0051C36.561 29.8801 36.311 29.8645 36.1079 29.9739Z" fill="url(#paint1_radial_183_937)"/>
<path d="M16.5299 37.927C15.1392 37.0676 13.9361 35.927 12.983 34.5989C8.87362 28.9739 10.108 21.0833 15.733 16.9739C16.3267 16.552 16.9361 16.1614 17.5924 15.8489C18.0767 15.6145 18.9049 15.2083 20.0142 15.2239C21.5924 15.2395 23.0767 15.9895 24.0299 17.2551C24.6549 18.0989 25.0143 19.1145 25.0299 20.177C25.0299 20.1458 28.858 7.7395 12.5299 7.7395C5.6705 7.7395 0.0298749 14.2551 0.0298749 19.9583C-0.00137515 22.9739 0.654875 25.9739 1.9205 28.7083C6.233 37.8958 16.733 42.3958 26.358 39.1926C23.0611 40.2239 19.4674 39.7708 16.5299 37.927Z" fill="url(#paint2_linear_183_937)"/>
<path opacity="0.41" d="M16.5299 37.927C15.1392 37.0676 13.9361 35.927 12.983 34.5989C8.87362 28.9739 10.108 21.0833 15.733 16.9739C16.3267 16.552 16.9361 16.1614 17.5924 15.8489C18.0767 15.6145 18.9049 15.2083 20.0142 15.2239C21.5924 15.2395 23.0767 15.9895 24.0299 17.2551C24.6549 18.0989 25.0143 19.1145 25.0299 20.177C25.0299 20.1458 28.858 7.7395 12.5299 7.7395C5.6705 7.7395 0.0298749 14.2551 0.0298749 19.9583C-0.00137515 22.9739 0.654875 25.9739 1.9205 28.7083C6.233 37.8958 16.733 42.3958 26.358 39.1926C23.0611 40.2239 19.4674 39.7708 16.5299 37.927Z" fill="url(#paint3_radial_183_937)"/>
<path d="M23.811 23.4739C23.686 23.6301 23.2954 23.8645 23.2954 24.3645C23.2954 24.7708 23.561 25.1614 24.0298 25.4895C26.2798 27.052 30.5142 26.8489 30.5298 26.8489C32.2017 26.8489 33.8267 26.3958 35.2642 25.552C38.2017 23.8333 40.0142 20.6926 40.0142 17.2864C40.061 13.7864 38.7642 11.4583 38.2485 10.427C34.936 3.94263 27.7798 0.208252 20.0142 0.208252C9.07666 0.208252 0.17041 8.9895 0.0141602 19.927C0.0922852 14.2239 5.76416 9.6145 12.5142 9.6145C13.061 9.6145 16.186 9.66138 19.0767 11.1926C21.6235 12.5364 22.9673 14.1458 23.8892 15.7551C24.8579 17.427 25.0298 19.5208 25.0298 20.3645C25.0298 21.1926 24.6079 22.4426 23.811 23.4739Z" fill="url(#paint4_radial_183_937)"/>
<path d="M23.811 23.4739C23.686 23.6301 23.2954 23.8645 23.2954 24.3645C23.2954 24.7708 23.561 25.1614 24.0298 25.4895C26.2798 27.052 30.5142 26.8489 30.5298 26.8489C32.2017 26.8489 33.8267 26.3958 35.2642 25.552C38.2017 23.8333 40.0142 20.6926 40.0142 17.2864C40.061 13.7864 38.7642 11.4583 38.2485 10.427C34.936 3.94263 27.7798 0.208252 20.0142 0.208252C9.07666 0.208252 0.17041 8.9895 0.0141602 19.927C0.0922852 14.2239 5.76416 9.6145 12.5142 9.6145C13.061 9.6145 16.186 9.66138 19.0767 11.1926C21.6235 12.5364 22.9673 14.1458 23.8892 15.7551C24.8579 17.427 25.0298 19.5208 25.0298 20.3645C25.0298 21.1926 24.6079 22.4426 23.811 23.4739Z" fill="url(#paint5_radial_183_937)"/>
</g>
<defs>
<linearGradient id="paint0_linear_183_937" x1="9.18666" y1="27.8676" x2="37.0434" y2="27.8676" gradientUnits="userSpaceOnUse">
<stop stop-color="#0C59A4"/>
<stop offset="1" stop-color="#114A8B"/>
</linearGradient>
<radialGradient id="paint1_radial_183_937" cx="0" cy="0" r="1" gradientUnits="userSpaceOnUse" gradientTransform="translate(24.5754 28.0889) scale(14.9016 14.155)">
<stop offset="0.72" stop-opacity="0"/>
<stop offset="0.95" stop-opacity="0.53"/>
<stop offset="1"/>
</radialGradient>
<linearGradient id="paint2_linear_183_937" x1="23.8847" y1="15.7936" x2="6.48269" y2="34.7486" gradientUnits="userSpaceOnUse">
<stop stop-color="#1B9DE2"/>
<stop offset="0.16" stop-color="#1595DF"/>
<stop offset="0.67" stop-color="#0680D7"/>
<stop offset="1" stop-color="#0078D4"/>
</linearGradient>
<radialGradient id="paint3_radial_183_937" cx="0" cy="0" r="1" gradientUnits="userSpaceOnUse" gradientTransform="translate(11.0468 31.3035) rotate(-81.3826) scale(22.4059 18.1053)">
<stop offset="0.76" stop-opacity="0"/>
<stop offset="0.95" stop-opacity="0.5"/>
<stop offset="1"/>
</radialGradient>
<radialGradient id="paint4_radial_183_937" cx="0" cy="0" r="1" gradientUnits="userSpaceOnUse" gradientTransform="translate(4.05347 7.61338) rotate(92.2911) scale(31.6487 67.4154)">
<stop stop-color="#35C1F1"/>
<stop offset="0.11" stop-color="#34C1ED"/>
<stop offset="0.23" stop-color="#2FC2DF"/>
<stop offset="0.31" stop-color="#2BC3D2"/>
<stop offset="0.67" stop-color="#36C752"/>
</radialGradient>
<radialGradient id="paint5_radial_183_937" cx="0" cy="0" r="1" gradientUnits="userSpaceOnUse" gradientTransform="translate(37.5236 12.3029) rotate(73.7366) scale(15.2065 12.3683)">
<stop stop-color="#66EB6E"/>
<stop offset="1" stop-color="#66EB6E" stop-opacity="0"/>
</radialGradient>
<clipPath id="clip0_183_937">
<rect width="40" height="40" fill="white" transform="translate(0.0141602 0.208252)"/>
</clipPath>
</defs>
</svg>
