<svg width="41" height="41" viewBox="0 0 41 41" fill="none" xmlns="http://www.w3.org/2000/svg">
<g clip-path="url(#clip0_183_950)">
<path d="M40.649 21.0961C40.649 17.8837 39.8186 14.8659 38.3621 12.2434C44.57 -1.80643 31.7103 0.251345 30.9943 0.391504C28.2698 0.924679 25.7492 1.78055 23.4243 2.86563C23.0814 2.84627 22.7363 2.83563 22.3889 2.83563C13.7119 2.83563 6.44873 8.8877 4.58984 17.0009C9.16317 11.8702 12.3636 9.80008 14.2803 8.97182C13.9764 9.24368 13.6764 9.51979 13.3803 9.80008C13.2822 9.89262 13.1878 9.98658 13.0911 10.0796C12.897 10.2654 12.7045 10.453 12.5136 10.6423C12.4009 10.7545 12.2914 10.8677 12.1803 10.9809C12.0127 11.1508 11.8462 11.322 11.6811 11.4944C11.5646 11.6166 11.4509 11.739 11.3367 11.8613C11.1839 12.0245 11.0323 12.1887 10.8819 12.354C10.766 12.4821 10.6517 12.6101 10.5378 12.7385C10.2807 13.0276 10.0269 13.3197 9.7765 13.6147C9.64598 13.7688 9.51635 13.9237 9.38761 14.0793C9.27428 14.2164 9.16127 14.3533 9.05031 14.4902C8.93134 14.6374 8.81314 14.7853 8.69571 14.9337C8.58206 15.0769 8.46857 15.2198 8.35761 15.3628C8.2519 15.4988 8.14936 15.6344 8.04603 15.7701C7.92936 15.9236 7.81174 16.0769 7.69825 16.2294C7.61698 16.3386 7.53904 16.4469 7.4592 16.5556C6.77112 17.4943 6.11213 18.4539 5.48317 19.4331C5.48158 19.4353 5.48 19.4375 5.47888 19.4399C5.325 19.6799 5.17288 19.921 5.02253 20.1633C5.0146 20.1761 5.00634 20.1891 4.99841 20.2023C4.85285 20.4371 4.70898 20.673 4.56682 20.9099L4.5519 20.9345C4.19543 21.5282 3.8495 22.1282 3.51428 22.7342C1.86968 25.7145 1.06904 27.7967 1.03444 27.9204C-4.15889 46.4871 12.0497 38.6466 14.3114 37.4761C16.7468 38.6793 19.4884 39.3564 22.3889 39.3564C30.3287 39.3564 37.0841 34.2882 39.5987 27.2106H30.0041C28.5844 29.609 25.8513 31.2336 22.7113 31.2336C18.1106 31.2336 14.3813 27.7479 14.3813 23.4479H40.4987C40.5978 22.6779 40.649 21.8929 40.649 21.0961ZM37.2379 3.12674C38.8105 4.18817 40.0716 5.85484 37.9057 11.468C35.8282 8.12706 32.7029 5.50627 28.9881 4.06579C30.6779 3.24976 34.8627 1.52357 37.2379 3.12674ZM3.82047 37.4388C2.53952 36.1253 2.31317 32.9263 5.13952 27.0969C6.56571 31.1977 9.4119 34.6337 13.0906 36.8144C11.2611 37.8215 6.40396 40.0888 3.82047 37.4388ZM14.3409 18.4545C14.487 14.2753 18.1241 10.9291 22.5929 10.9291C27.0616 10.9291 30.6989 14.2753 30.8449 18.4545H14.3409Z" fill="#1EBBEE"/>
</g>
<defs>
<clipPath id="clip0_183_950">
<rect width="40.6349" height="40" fill="white" transform="translate(0.0141602 0.208252)"/>
</clipPath>
</defs>
</svg>
