<svg width="39" height="41" viewBox="0 0 39 41" fill="none" xmlns="http://www.w3.org/2000/svg">
<g clip-path="url(#clip0_183_783)">
<path d="M31.2291 9.71826C30.2631 10.8503 29.8103 13.3862 30.7914 15.9673C31.7725 18.5485 33.282 17.99 34.2178 20.6164C35.4555 24.0881 34.882 28.7522 34.882 28.7522C34.882 28.7522 36.3763 33.0692 37.4178 28.4805C39.7272 19.8617 31.2291 11.8466 31.2291 9.71826Z" fill="url(#paint0_radial_183_783)"/>
<path d="M19.3953 38.231C29.3425 38.231 37.3878 30.1405 37.3878 20.148C37.3878 10.1555 29.3274 2.08008 19.3953 2.08008C9.46327 2.08008 1.41799 10.1706 1.41799 20.148C1.4029 30.1405 9.46327 38.231 19.3953 38.231Z" fill="url(#paint1_radial_183_783)"/>
<path d="M32.8744 32.5175C32.482 32.7892 32.0744 33.0307 31.6518 33.2571C32.2103 32.4269 32.7386 31.5816 33.2065 30.7062C33.5839 30.2835 33.9461 29.876 34.2329 29.4232C34.3688 29.1967 34.5348 28.9401 34.7008 28.6232C35.7122 26.7967 36.8291 23.8533 36.8593 20.8345V20.6081C36.8593 19.8533 36.7839 19.0835 36.6329 18.3439C36.648 18.4043 36.648 18.4647 36.6631 18.525C36.648 18.4798 36.648 18.4345 36.6329 18.3892C36.648 18.4647 36.6631 18.5552 36.6782 18.6307C36.8895 20.3816 36.7386 22.0873 35.999 23.3552C35.9839 23.3703 35.9688 23.3854 35.9688 23.4156C36.3461 21.4986 36.482 19.3854 36.0593 17.2722C36.0593 17.2722 35.8933 16.2458 34.6254 13.1213C33.9008 11.325 32.6027 9.8458 31.4706 8.7741C30.4744 7.53637 29.5537 6.70618 29.0556 6.17787C28.014 5.07599 27.5763 4.2458 27.3952 3.7175C27.2442 3.64203 25.2367 1.69486 25.0857 1.61938C24.2103 2.97788 21.4782 7.20429 22.7763 11.1439C23.365 12.9401 24.8593 14.7967 26.4291 15.8383C26.5046 15.9137 27.365 16.8496 27.7725 18.9628C28.1952 21.1515 27.9688 22.842 27.1084 25.3628C26.082 27.5666 23.4556 29.7552 20.9952 29.9816C15.7423 30.4647 13.8103 27.3401 13.8103 27.3401C15.682 28.0949 17.765 27.9288 19.0329 27.159C20.3008 26.3741 21.0706 25.7854 21.7046 26.0118C22.3235 26.2382 22.8065 25.5741 22.3688 24.8798C21.6744 23.8081 20.4065 23.2647 19.1537 23.476C17.8857 23.6873 16.7084 24.6986 15.048 23.7175C14.9423 23.6571 14.8367 23.5816 14.731 23.5062C14.6254 23.4307 15.0933 23.6118 14.9725 23.5364C14.6556 23.3552 14.0669 22.9779 13.931 22.842C13.9008 22.8118 14.1876 22.9326 14.1574 22.9024C12.6027 21.6194 12.7989 20.7439 12.8442 20.2005C12.8895 19.7628 13.1612 19.2043 13.6442 18.9779C13.8706 19.0986 14.0216 19.2043 14.0216 19.2043C14.0216 19.2043 13.9159 19.0081 13.8706 18.9024C13.8857 18.8873 13.9008 18.9024 13.931 18.8873C14.1273 18.9779 14.5348 19.2194 14.7612 19.3552C15.048 19.5515 15.1386 19.7326 15.1386 19.7326C15.1386 19.7326 15.214 19.6873 15.1537 19.5213C15.1386 19.4458 15.048 19.2194 14.7612 18.993H14.7763C14.9423 19.0835 15.1084 19.2043 15.2593 19.325C15.3348 19.0383 15.4857 18.7364 15.4556 18.193C15.4405 17.8156 15.4405 17.7099 15.3801 17.559C15.3197 17.4383 15.4103 17.3779 15.5159 17.5137C15.5008 17.4081 15.4706 17.3024 15.4254 17.2118V17.1967C15.5612 16.7439 18.1876 15.5515 18.3839 15.4156C18.7008 15.1892 18.9574 14.9024 19.1537 14.5703C19.3046 14.3439 19.4103 14.0118 19.4405 13.5137C19.4556 13.1515 19.2895 12.9099 16.6178 12.6383C15.8933 12.5628 15.4556 12.0345 15.214 11.5515C15.1688 11.4458 15.1235 11.3552 15.0782 11.2496C15.0329 11.1439 15.0027 11.0232 14.9725 10.9024C15.4103 9.64957 16.1348 8.59297 17.2216 7.79297C17.282 7.73259 16.9801 7.80806 17.0405 7.74769C17.1159 7.68731 17.5537 7.50618 17.6442 7.46089C17.7499 7.41561 17.2065 7.1741 16.7235 7.23448C16.2405 7.29486 16.1348 7.35523 15.8631 7.46089C15.9688 7.35523 16.3159 7.20429 16.2405 7.21938C15.7122 7.29486 15.0631 7.61184 14.5046 7.95901C14.5046 7.89863 14.5197 7.83825 14.5348 7.77788C14.2782 7.88354 13.6291 8.33637 13.448 8.71372C13.4631 8.63825 13.4631 8.56278 13.4631 8.48731C13.2669 8.65335 13.0857 8.83448 12.9348 9.0458L12.8442 9.07599C11.3348 8.47221 9.9914 8.42693 8.87442 8.69863C8.63291 8.45712 8.51216 8.63825 7.93857 7.40052C7.96876 7.47599 7.89329 7.32505 7.93857 7.40052C7.99895 7.7175 7.84801 7.15901 7.93857 7.40052C7.00272 8.15523 5.76499 9.00052 5.16121 9.5892C5.85555 9.39297 5.16121 9.61938 5.16121 9.5892C4.9197 9.66467 4.9348 9.80052 4.90461 11.1137C4.88952 11.2194 4.90461 11.325 4.88952 11.4156C4.4065 12.0194 4.08952 12.5326 3.96876 12.8043C3.34989 13.8609 2.67065 15.5213 2.02159 18.1326C2.30838 17.4232 2.65555 16.7439 3.0631 16.0949C2.5197 17.4835 1.9914 19.6722 1.88574 23.0232C2.02159 22.3288 2.18763 21.6496 2.39895 20.9703C2.2631 23.7628 2.74612 26.5401 3.80272 29.1213C4.18008 30.042 4.79895 31.4458 5.87065 32.9854C9.22159 36.5024 13.931 38.6911 19.1537 38.6911C24.6027 38.6911 29.5084 36.3062 32.8744 32.5175Z" fill="url(#paint2_linear_183_783)"/>
<path d="M28.8293 23.9992C35.4255 23.2294 38.3538 16.4369 34.5953 16.3011C31.2142 16.1954 25.7047 24.3614 28.8293 23.9992Z" fill="url(#paint3_radial_183_783)"/>
<path d="M35.0785 24.0015C39.6219 21.36 38.4294 15.6543 38.4294 15.6543C38.4294 15.6543 36.6785 17.692 35.486 20.9373C34.3238 24.1524 32.3464 25.6015 35.0785 24.0015Z" fill="url(#paint4_radial_183_783)"/>
<path d="M20.6634 22.3694C27.003 24.3921 32.437 19.3959 29.086 17.7355C26.037 16.2411 17.6596 21.4185 20.6634 22.3694Z" fill="url(#paint5_radial_183_783)"/>
<path d="M35.5614 28.3819C35.7123 28.1706 35.9236 27.4763 36.1048 27.1593C37.2218 25.348 37.2368 23.914 37.2368 23.8838C37.9161 20.5178 37.8557 19.1291 37.4331 16.5933C37.101 14.5404 35.6368 11.597 34.3689 10.1933C33.0708 8.7291 33.9765 9.21212 32.7236 8.14042C31.6217 6.91778 30.535 5.69514 29.9614 5.21212C25.735 1.68004 25.8255 0.925327 25.9161 0.804572L25.8557 0.86495C25.8104 0.668723 25.7651 0.502686 25.7651 0.502686C25.7651 0.502686 23.4406 2.79702 22.9576 6.64608C22.6406 9.15174 23.5765 11.7782 24.9501 13.4536C25.6595 14.3291 26.4595 15.114 27.335 15.8083C28.3614 17.2876 28.935 19.114 28.935 21.0763C28.935 25.997 24.9501 29.9668 20.0293 29.9668C19.3651 29.9668 18.6859 29.8914 18.0368 29.7404C15.7123 29.3027 14.384 28.1253 13.7048 27.3253C13.3274 26.8725 13.1614 26.5404 13.1614 26.5404C15.2444 27.28 17.5387 27.1291 18.9425 26.3593C20.3463 25.5744 21.2067 25.0008 21.901 25.2272C22.5802 25.4536 23.1236 24.7895 22.6406 24.1102C22.1576 23.431 20.9199 22.4499 19.0784 22.7216C17.6746 22.9329 16.3765 23.9291 14.535 22.9631C14.4142 22.9027 14.2934 22.8272 14.1878 22.7668C14.067 22.6914 14.5802 22.8725 14.4595 22.797C14.0972 22.6159 13.4633 22.2385 13.2972 22.1027C13.267 22.0725 13.5689 22.1933 13.5538 22.1631C11.8331 20.8951 12.0444 20.0348 12.0897 19.4914C12.135 19.0536 12.4519 18.5102 12.9802 18.2838C13.2368 18.4046 13.3878 18.5102 13.3878 18.5102C13.3878 18.5102 13.2821 18.314 13.2218 18.2083C13.2368 18.1933 13.267 18.2083 13.2821 18.1933C13.4934 18.2838 13.9614 18.5102 14.2029 18.6612C14.5199 18.8574 14.6255 19.0385 14.6255 19.0385C14.6255 19.0385 14.7161 18.9933 14.6406 18.8272C14.6104 18.7517 14.5199 18.5253 14.2029 18.2989H14.218C14.3991 18.3895 14.5802 18.5102 14.7463 18.631C14.8368 18.3442 14.9878 18.0423 14.9576 17.4989C14.9425 17.1216 14.9425 17.0159 14.867 16.88C14.8067 16.7593 14.8972 16.6989 15.018 16.8348C15.0029 16.7291 14.9576 16.6385 14.9123 16.5329V16.5178C15.0633 16.0649 17.9765 14.8876 18.1878 14.7517C18.535 14.5404 18.8217 14.2536 19.0482 13.9216C19.2142 13.6951 19.335 13.3631 19.3651 12.865C19.3802 12.6385 19.3048 12.4725 18.535 12.2914C18.067 12.1857 17.3576 12.0951 16.2406 11.9895C15.4406 11.914 14.9576 11.4008 14.6859 10.9178C14.6406 10.8121 14.5802 10.7216 14.535 10.631C14.4897 10.5253 14.4444 10.4046 14.4142 10.2989C14.8972 9.03099 15.7727 7.95929 16.9048 7.21967C16.9651 7.15929 16.6482 7.23476 16.7085 7.17438C16.784 7.11401 17.2821 6.93287 17.3727 6.88759C17.4934 6.84231 16.8897 6.61589 16.3463 6.66118C15.8029 6.72155 15.6972 6.76684 15.3953 6.88759C15.5161 6.78193 15.8934 6.64608 15.8029 6.64608C15.2595 6.70646 14.535 7.00835 13.9161 7.35552C13.9161 7.29514 13.9312 7.23476 13.9463 7.17438C13.6595 7.28004 12.9501 7.73287 12.7387 8.11023C12.7538 8.03476 12.7538 7.95929 12.7538 7.89891C12.5425 8.06495 12.3312 8.24608 12.1651 8.4574L12.1501 8.4725C10.4746 7.86872 8.99533 7.82344 7.7576 8.09514C7.4859 7.85363 7.04817 7.47627 6.4293 6.25363C6.38401 6.17816 6.36892 6.40457 6.33873 6.3291C6.09722 5.77061 5.94628 4.84986 5.97647 4.21589C5.97647 4.21589 5.47835 4.44231 5.07081 5.39325C4.99533 5.55929 4.95005 5.66495 4.88967 5.75552C4.85949 5.7857 4.93496 5.43853 4.93496 5.46872C4.85949 5.58948 4.67835 5.75552 4.60288 5.98193C4.5425 6.14797 4.46703 6.23853 4.42175 6.43476L4.40666 6.44986C4.40666 6.38948 4.42175 6.20835 4.40666 6.23853C4.21043 6.63099 4.04439 7.03853 3.90854 7.44608C3.68213 8.17061 3.42552 9.16684 3.38024 10.4649C3.36515 10.5555 3.38024 10.6763 3.36515 10.7668C2.83684 11.3706 2.47458 11.8838 2.33873 12.1404C1.65949 13.197 0.904769 14.8272 0.18024 17.4234C0.497221 16.714 0.889674 16.0348 1.3425 15.4008C0.738731 16.7744 0.150052 18.948 0.0292969 22.2687C0.18024 21.5744 0.361372 20.8951 0.587787 20.231C0.482127 22.4499 0.738731 25.2121 2.1425 28.3216C2.97269 30.148 4.88967 33.8612 9.58401 36.7593C9.58401 36.7593 11.184 37.9517 13.9161 38.8423C14.1123 38.9178 14.3236 38.9933 14.535 39.0536C14.4746 39.0234 14.3991 38.9933 14.3387 38.9782C16.1651 39.5216 18.0519 39.8083 19.9689 39.8083C27.0633 39.8083 29.1614 36.9555 29.1614 36.9555L29.1463 36.9706C29.2519 36.88 29.3425 36.7744 29.4331 36.6838C28.3161 37.7404 25.7501 37.8159 24.7991 37.7404C26.4293 37.2574 27.501 36.8499 29.584 36.065C29.8255 35.9744 30.0821 35.8687 30.3387 35.748L30.4142 35.7027C30.4595 35.6725 30.5199 35.6574 30.5651 35.6272C31.5765 35.1442 32.5425 34.5555 33.418 33.8461C35.5161 32.1706 35.9689 30.5404 36.2104 29.4687C36.1802 29.5744 36.0746 29.8159 35.9991 29.9668C35.4557 31.114 34.2633 31.8385 32.9651 32.4423C33.584 31.6272 34.1576 30.7819 34.6859 29.9065C35.1085 29.4838 35.2293 28.8197 35.5614 28.3819Z" fill="url(#paint6_radial_183_783)"/>
<path d="M33.0104 33.7253C33.8707 32.7894 34.6255 31.7026 35.2141 30.48C36.7085 27.3403 39.0179 22.1026 37.2066 16.6536C35.7726 12.3366 33.7953 9.98185 31.2896 7.67242C27.2141 3.92902 26.0821 2.25355 26.0821 1.25732C26.0821 1.25732 21.3726 6.49506 23.4104 11.9743C25.4481 17.4536 29.6292 17.2422 32.3915 22.9479C35.6519 29.6649 29.7651 37.0007 24.8896 39.0536C25.1915 38.9932 35.7122 36.6083 36.2707 30.5856C36.2405 30.6913 35.999 32.3668 33.0104 33.7253Z" fill="url(#paint7_radial_183_783)"/>
<path d="M19.3649 19.627C19.38 19.2648 19.1989 19.0384 16.2555 18.7516C15.048 18.6459 14.58 17.5289 14.4442 17.0459C14.0216 18.1629 13.8404 19.3402 13.931 20.7591C13.9914 21.695 14.6253 22.6912 14.9121 23.2648C14.9121 23.2648 14.9725 23.1742 15.0027 23.144C15.5612 22.5553 17.9159 21.6648 18.1423 21.544C18.3989 21.3931 19.3348 20.7138 19.3649 19.627Z" fill="url(#paint8_linear_183_783)"/>
<path d="M6.42927 18.9081C6.38399 18.8326 6.36889 19.059 6.3387 18.9836C6.09719 18.4251 5.94625 17.5194 5.99153 16.8704C5.99153 16.8704 5.49342 17.0968 5.08587 18.0477C5.0104 18.2138 4.96512 18.3194 4.90474 18.41C4.87455 18.4402 4.95002 18.093 4.95002 18.1232C4.87455 18.2439 4.69342 18.41 4.61795 18.6213C4.55757 18.7873 4.4821 18.893 4.43682 19.1043C4.42172 19.1647 4.45191 18.8477 4.43682 18.893C3.47078 20.7496 3.28965 23.5572 3.39531 23.4364C5.44814 21.2477 7.78776 20.7345 7.78776 20.7345C7.50097 20.5534 6.95757 20.01 6.42927 18.9081Z" fill="url(#paint9_linear_183_783)"/>
<path d="M14.1879 25.4046C11.3652 24.1971 8.15012 22.4914 8.27088 18.6272C8.43692 13.5405 13.0256 14.5367 13.0256 14.5367C12.8596 14.582 12.3916 14.914 12.2256 15.2612C12.0596 15.6989 11.7426 16.6952 12.6935 17.7367C14.203 19.3669 9.59918 21.6008 16.6935 25.8272C16.8747 25.9178 15.0331 25.7669 14.1879 25.4046Z" fill="url(#paint10_linear_183_783)"/>
<path d="M13.1917 21.8212C15.1993 22.5155 17.5238 22.3947 18.9276 21.6249C19.8634 21.0966 21.071 20.2664 21.7955 20.4778C21.1615 20.2211 20.6785 20.1004 20.0898 20.0853C19.9842 20.0853 19.8785 20.0853 19.7729 20.0702C19.5615 20.0702 19.3502 20.0853 19.1389 20.1004C18.7766 20.1306 18.3842 20.357 18.0219 20.3268C18.0068 20.3268 18.3691 20.1759 18.3389 20.1759C18.1427 20.2211 17.9314 20.2211 17.72 20.2513C17.5842 20.2664 17.4634 20.2815 17.3125 20.2966C13.1314 20.6438 9.61438 18.0325 9.61438 18.0325C9.31249 19.0287 10.9578 21.0362 13.1917 21.8212Z" fill="url(#paint11_linear_183_783)"/>
<path d="M32.9952 35.9365C37.2216 31.7856 39.3499 26.7592 38.4442 21.0988C38.4442 21.0988 38.8065 23.9969 37.4329 26.9554C38.0971 24.0573 38.1725 20.4648 36.4216 16.7365C34.0971 11.7705 30.2631 9.14408 28.799 8.05729C26.5801 6.39691 25.6593 4.72144 25.6442 4.37427C24.9801 5.73276 22.9725 10.3818 25.4329 14.3818C27.7273 18.1403 31.3499 19.2422 33.8707 22.6837C38.5499 29.0384 32.9952 35.9365 32.9952 35.9365Z" fill="url(#paint12_linear_183_783)"/>
<path d="M32.3917 15.4246C30.9124 12.3755 29.0709 11.0472 27.3351 9.61328C27.5313 9.90007 27.5917 9.99064 27.6973 10.1869C29.237 11.8171 31.486 15.802 29.8558 20.8133C26.7615 30.2321 14.4143 25.7944 13.1162 24.5567C13.6445 30.0057 22.7615 32.6171 28.7087 29.085C32.0747 25.8548 34.8068 20.4208 32.3917 15.4246Z" fill="url(#paint13_linear_183_783)"/>
</g>
<defs>
<radialGradient id="paint0_radial_183_783" cx="0" cy="0" r="1" gradientUnits="userSpaceOnUse" gradientTransform="translate(37.9373 18.327) rotate(2.2603) scale(13.9003 20.4882)">
<stop offset="0.1" stop-color="#FFEA00"/>
<stop offset="0.17" stop-color="#FFDE00"/>
<stop offset="0.28" stop-color="#FFBF00"/>
<stop offset="0.43" stop-color="#FF8E00"/>
<stop offset="0.77" stop-color="#FF272D"/>
<stop offset="0.87" stop-color="#E0255A"/>
<stop offset="0.95" stop-color="#CC2477"/>
<stop offset="1" stop-color="#C42482"/>
</radialGradient>
<radialGradient id="paint1_radial_183_783" cx="0" cy="0" r="1" gradientUnits="userSpaceOnUse" gradientTransform="translate(25.3137 4.89907) scale(39.4473 39.4473)">
<stop stop-color="#00CCDA"/>
<stop offset="0.22" stop-color="#0083FF"/>
<stop offset="0.26" stop-color="#007AF9"/>
<stop offset="0.33" stop-color="#005FE7"/>
<stop offset="0.44" stop-color="#2639AD"/>
<stop offset="0.52" stop-color="#401E84"/>
<stop offset="0.57" stop-color="#4A1475"/>
</radialGradient>
<linearGradient id="paint2_linear_183_783" x1="21.9375" y1="29.4965" x2="14.1781" y2="4.11433" gradientUnits="userSpaceOnUse">
<stop stop-color="#000F43" stop-opacity="0.4"/>
<stop offset="0.48" stop-color="#001962" stop-opacity="0.17"/>
<stop offset="1" stop-color="#002079" stop-opacity="0"/>
</linearGradient>
<radialGradient id="paint3_radial_183_783" cx="0" cy="0" r="1" gradientUnits="userSpaceOnUse" gradientTransform="translate(39.1547 15.4131) rotate(5.61742) scale(13.2608 13.2608)">
<stop stop-color="#FFEA00"/>
<stop offset="0.5" stop-color="#FF272D"/>
<stop offset="1" stop-color="#C42482"/>
</radialGradient>
<radialGradient id="paint4_radial_183_783" cx="0" cy="0" r="1" gradientUnits="userSpaceOnUse" gradientTransform="translate(39.2053 11.7305) rotate(5.61742) scale(22.1442)">
<stop stop-color="#FFE900"/>
<stop offset="0.16" stop-color="#FFAF0E"/>
<stop offset="0.32" stop-color="#FF7A1B"/>
<stop offset="0.47" stop-color="#FF4E26"/>
<stop offset="0.62" stop-color="#FF2C2E"/>
<stop offset="0.76" stop-color="#FF1434"/>
<stop offset="0.89" stop-color="#FF0538"/>
<stop offset="1" stop-color="#FF0039"/>
</radialGradient>
<radialGradient id="paint5_radial_183_783" cx="0" cy="0" r="1" gradientUnits="userSpaceOnUse" gradientTransform="translate(40.3133 18.366) rotate(5.61743) scale(20.3197 20.3197)">
<stop stop-color="#FF272D"/>
<stop offset="0.5" stop-color="#C42482"/>
<stop offset="0.99" stop-color="#620700"/>
</radialGradient>
<radialGradient id="paint6_radial_183_783" cx="0" cy="0" r="1" gradientUnits="userSpaceOnUse" gradientTransform="translate(29.0025 15.8847) scale(31.7036)">
<stop offset="0.16" stop-color="#FFEA00"/>
<stop offset="0.23" stop-color="#FFDE00"/>
<stop offset="0.37" stop-color="#FFBF00"/>
<stop offset="0.54" stop-color="#FF8E00"/>
<stop offset="0.76" stop-color="#FF272D"/>
<stop offset="0.8" stop-color="#F92433"/>
<stop offset="0.84" stop-color="#E91C45"/>
<stop offset="0.89" stop-color="#CF0E62"/>
<stop offset="0.94" stop-color="#B5007F"/>
</radialGradient>
<radialGradient id="paint7_radial_183_783" cx="0" cy="0" r="1" gradientUnits="userSpaceOnUse" gradientTransform="translate(27.1846 2.52493) scale(36.1326 36.1326)">
<stop offset="0.28" stop-color="#FFEA00"/>
<stop offset="0.4" stop-color="#FFDD00"/>
<stop offset="0.63" stop-color="#FFBA00"/>
<stop offset="0.86" stop-color="#FF9100"/>
<stop offset="0.93" stop-color="#FF6711"/>
<stop offset="0.99" stop-color="#FF4A1D"/>
</radialGradient>
<linearGradient id="paint8_linear_183_783" x1="6.03599" y1="21.4752" x2="21.599" y2="19.0986" gradientUnits="userSpaceOnUse">
<stop stop-color="#C42482" stop-opacity="0.5"/>
<stop offset="0.47" stop-color="#FF272D" stop-opacity="0.5"/>
<stop offset="0.49" stop-color="#FF2C2C" stop-opacity="0.51"/>
<stop offset="0.68" stop-color="#FF7A1A" stop-opacity="0.72"/>
<stop offset="0.83" stop-color="#FFB20D" stop-opacity="0.87"/>
<stop offset="0.94" stop-color="#FFD605" stop-opacity="0.96"/>
<stop offset="1" stop-color="#FFE302"/>
</linearGradient>
<linearGradient id="paint9_linear_183_783" x1="5.91896" y1="23.2864" x2="4.29614" y2="17.4535" gradientUnits="userSpaceOnUse">
<stop stop-color="#891551" stop-opacity="0.6"/>
<stop offset="1" stop-color="#C42482" stop-opacity="0"/>
</linearGradient>
<linearGradient id="paint10_linear_183_783" x1="8.88161" y1="15.1265" x2="12.2246" y2="19.7967" gradientUnits="userSpaceOnUse">
<stop offset="0.01" stop-color="#891551" stop-opacity="0.5"/>
<stop offset="0.48" stop-color="#FF272D" stop-opacity="0.5"/>
<stop offset="1" stop-color="#FF272D" stop-opacity="0"/>
</linearGradient>
<linearGradient id="paint11_linear_183_783" x1="15.3963" y1="22.2094" x2="15.7022" y2="19.2089" gradientUnits="userSpaceOnUse">
<stop stop-color="#C42482"/>
<stop offset="0.08" stop-color="#C42482" stop-opacity="0.81"/>
<stop offset="0.21" stop-color="#C42482" stop-opacity="0.57"/>
<stop offset="0.33" stop-color="#C42482" stop-opacity="0.36"/>
<stop offset="0.45" stop-color="#C42482" stop-opacity="0.2"/>
<stop offset="0.56" stop-color="#C42482" stop-opacity="0.09"/>
<stop offset="0.67" stop-color="#C42482" stop-opacity="0.02"/>
<stop offset="0.77" stop-color="#C42482" stop-opacity="0"/>
</linearGradient>
<linearGradient id="paint12_linear_183_783" x1="25.1599" y1="4.90468" x2="37.5487" y2="32.6076" gradientUnits="userSpaceOnUse">
<stop stop-color="#FFF14F"/>
<stop offset="0.27" stop-color="#FFEE4C"/>
<stop offset="0.45" stop-color="#FFE643"/>
<stop offset="0.61" stop-color="#FFD834"/>
<stop offset="0.76" stop-color="#FFC41E"/>
<stop offset="0.89" stop-color="#FFAB02"/>
<stop offset="0.9" stop-color="#FFA900"/>
<stop offset="0.95" stop-color="#FFA000"/>
<stop offset="1" stop-color="#FF9100"/>
</linearGradient>
<linearGradient id="paint13_linear_183_783" x1="27.6201" y1="11.1188" x2="21.7518" y2="26.8755" gradientUnits="userSpaceOnUse">
<stop stop-color="#FF8E00"/>
<stop offset="0.04" stop-color="#FF8E00" stop-opacity="0.86"/>
<stop offset="0.08" stop-color="#FF8E00" stop-opacity="0.73"/>
<stop offset="0.13" stop-color="#FF8E00" stop-opacity="0.63"/>
<stop offset="0.18" stop-color="#FF8E00" stop-opacity="0.56"/>
<stop offset="0.23" stop-color="#FF8E00" stop-opacity="0.51"/>
<stop offset="0.28" stop-color="#FF8E00" stop-opacity="0.5"/>
<stop offset="0.39" stop-color="#FF8E00" stop-opacity="0.48"/>
<stop offset="0.52" stop-color="#FF8E00" stop-opacity="0.42"/>
<stop offset="0.68" stop-color="#FF8E00" stop-opacity="0.31"/>
<stop offset="0.84" stop-color="#FF8E00" stop-opacity="0.17"/>
<stop offset="1" stop-color="#FF8E00" stop-opacity="0"/>
</linearGradient>
<clipPath id="clip0_183_783">
<rect width="38.6415" height="40" fill="white" transform="translate(0.0141602 0.208252)"/>
</clipPath>
</defs>
</svg>
