<svg width="41" height="41" viewBox="0 0 41 41" fill="none" xmlns="http://www.w3.org/2000/svg">
<g clip-path="url(#clip0_183_798)">
<g filter="url(#filter0_d_183_798)">
<path d="M20.0142 39.2708C30.7147 39.2708 39.3892 30.5963 39.3892 19.8958C39.3892 9.19524 30.7147 0.520752 20.0142 0.520752C9.31364 0.520752 0.63916 9.19524 0.63916 19.8958C0.63916 30.5963 9.31364 39.2708 20.0142 39.2708Z" fill="url(#paint0_linear_183_798)"/>
</g>
<path d="M20.0142 37.8176C29.9121 37.8176 37.936 29.7937 37.936 19.8958C37.936 9.99777 29.9121 1.97388 20.0142 1.97388C10.1162 1.97388 2.09229 9.99777 2.09229 19.8958C2.09229 29.7937 10.1162 37.8176 20.0142 37.8176Z" fill="url(#paint1_radial_183_798)"/>
<path d="M20.0444 6.33319C19.9233 6.33319 19.8174 6.24241 19.8174 6.12132V2.95772C19.8174 2.83663 19.9233 2.74585 20.0444 2.74585C20.1655 2.74585 20.2714 2.83663 20.2714 2.95772V6.12132C20.2563 6.24241 20.1655 6.33319 20.0444 6.33319Z" fill="#F3F3F3"/>
<path d="M20.0444 6.34837C19.9082 6.34837 19.8022 6.24243 19.8022 6.12134V2.95774C19.8022 2.83665 19.9082 2.73071 20.0444 2.73071C20.1807 2.73071 20.2866 2.83665 20.2866 2.95774V6.12134C20.2866 6.24243 20.1655 6.34837 20.0444 6.34837ZM20.0444 2.76087C19.9385 2.76087 19.8326 2.85181 19.8326 2.95774V6.12134C19.8326 6.22728 19.9233 6.31821 20.0444 6.31821C20.1504 6.31821 20.2563 6.22728 20.2563 6.12134V2.95774C20.2413 2.85181 20.1504 2.76087 20.0444 2.76087Z" fill="white"/>
<path d="M21.5581 4.6379C21.437 4.62275 21.3462 4.53197 21.3462 4.41087L21.4521 3.00306C21.4671 2.88212 21.5732 2.79118 21.6943 2.80634C21.8154 2.8215 21.9062 2.91243 21.9062 3.03353L21.8003 4.44118C21.7851 4.56228 21.6792 4.6529 21.5581 4.6379Z" fill="#F3F3F3"/>
<path d="M21.5581 4.65309C21.4218 4.63794 21.3311 4.532 21.3311 4.4109L21.437 3.00309C21.4521 2.88215 21.5581 2.77622 21.6943 2.79122C21.8304 2.80637 21.9214 2.91247 21.9214 3.0334L21.8154 4.44122C21.8003 4.57747 21.6943 4.66825 21.5581 4.65309ZM21.6943 2.82153C21.5884 2.82153 21.4823 2.89731 21.4823 3.00325L21.3764 4.41106C21.3764 4.51684 21.4521 4.60778 21.5732 4.62278C21.6792 4.62278 21.7851 4.54715 21.7851 4.44122L21.8911 3.0334C21.8911 2.92747 21.8004 2.83669 21.6943 2.82153Z" fill="white"/>
<path d="M22.6934 6.60583C22.5722 6.57551 22.4965 6.46958 22.5117 6.34848L23.1323 3.24536C23.1626 3.12442 23.2686 3.04864 23.3897 3.07895C23.5108 3.10926 23.5864 3.2152 23.5712 3.33629L22.9506 6.43942C22.9354 6.5452 22.8143 6.62098 22.6933 6.60583H22.6934Z" fill="#F3F3F3"/>
<path d="M22.6934 6.62092C22.557 6.59061 22.4814 6.46952 22.4965 6.34842L23.1172 3.2453C23.1475 3.12436 23.2686 3.03342 23.4047 3.06374C23.5409 3.09405 23.6167 3.21514 23.6015 3.33624L22.9809 6.43936C22.9506 6.5603 22.8295 6.63608 22.6934 6.62092ZM23.4047 3.09405C23.2987 3.07889 23.1928 3.13936 23.1625 3.24546L22.542 6.34858C22.5269 6.45436 22.5873 6.5603 22.7084 6.59077C22.8144 6.60577 22.9203 6.54514 22.9506 6.43921L23.5712 3.33624C23.5864 3.21514 23.5108 3.12436 23.4047 3.09405Z" fill="white"/>
<path d="M24.5097 5.24353C24.4808 5.23658 24.4537 5.22401 24.4297 5.20655C24.4057 5.18909 24.3854 5.16708 24.37 5.14177C24.3545 5.11646 24.3442 5.08836 24.3396 5.05906C24.335 5.02976 24.3363 4.99985 24.3433 4.97103L24.7217 3.60884C24.7519 3.48774 24.873 3.42712 24.994 3.45743C25.1151 3.48774 25.1909 3.60884 25.1606 3.72993L24.7822 5.09228C24.7519 5.21321 24.6308 5.27384 24.5097 5.24353Z" fill="#F3F3F3"/>
<path d="M24.5099 5.25864C24.3888 5.22833 24.298 5.09208 24.3435 4.97114L24.7219 3.60864C24.7521 3.4877 24.8883 3.41192 25.0094 3.44223C25.1305 3.47254 25.2213 3.60879 25.176 3.72973L24.7975 5.09223C24.7672 5.21317 24.6461 5.28895 24.51 5.25864H24.5099ZM25.0094 3.4877C24.9035 3.45739 24.7824 3.51801 24.7521 3.62395L24.3738 4.98614C24.3435 5.09208 24.4039 5.19817 24.525 5.22833C24.631 5.25864 24.7521 5.19817 24.7824 5.09223L25.1608 3.72973C25.176 3.62395 25.1155 3.51801 25.0094 3.48754V3.4877Z" fill="white"/>
<path d="M25.2516 7.37791C25.1305 7.33244 25.0852 7.19619 25.1305 7.09025L26.3415 4.16884C26.3868 4.06291 26.5232 4.00228 26.6289 4.06291C26.7502 4.10822 26.7957 4.24462 26.7502 4.35041L25.5393 7.27181C25.494 7.37791 25.3575 7.43837 25.2518 7.37791H25.2516Z" fill="#F3F3F3"/>
<path d="M25.2515 7.39288C25.1933 7.37072 25.1463 7.3264 25.1208 7.26964C25.0953 7.21287 25.0933 7.1483 25.1153 7.09007L26.3262 4.16867C26.3717 4.04757 26.5079 4.0021 26.6442 4.04757C26.7023 4.06974 26.7493 4.11406 26.7749 4.17082C26.8004 4.22758 26.8024 4.29215 26.7804 4.35038L25.5695 7.27179C25.5089 7.39288 25.3726 7.45335 25.2515 7.39288ZM26.629 4.07788C26.5231 4.03257 26.402 4.07788 26.3565 4.18382L25.1456 7.10523C25.1003 7.21117 25.1607 7.3171 25.2667 7.36257C25.3726 7.40788 25.4937 7.36257 25.5392 7.25663L26.7501 4.33523C26.7804 4.24429 26.7349 4.1232 26.629 4.07788Z" fill="white"/>
<path d="M27.295 6.40907C27.1889 6.34844 27.1435 6.22735 27.1889 6.12141L27.8247 4.86516C27.8852 4.75907 28.0063 4.7136 28.1275 4.77422C28.2335 4.83485 28.2788 4.95594 28.2335 5.06172L27.5975 6.31813C27.5371 6.42407 27.416 6.46969 27.2949 6.40907H27.295Z" fill="#F3F3F3"/>
<path d="M27.2949 6.42427C27.1736 6.36364 27.1283 6.22739 27.1888 6.1063L27.8246 4.85005C27.885 4.7288 28.0214 4.68348 28.1424 4.74395C28.2635 4.80458 28.3089 4.94083 28.2483 5.06192L27.6127 6.31817C27.5521 6.43927 27.4158 6.48473 27.2947 6.42411L27.2949 6.42427ZM28.1274 4.77427C28.0213 4.72895 27.9002 4.75911 27.8549 4.86505L27.2191 6.12145C27.1738 6.21223 27.2191 6.33333 27.3099 6.39395C27.4158 6.43927 27.5369 6.40911 27.5824 6.30317L28.2182 5.04677C28.2635 4.95598 28.2182 4.83489 28.1274 4.77427Z" fill="white"/>
<path d="M27.5977 8.64918C27.4918 8.57355 27.4615 8.4373 27.5371 8.34652L29.293 5.72777C29.3535 5.62184 29.4899 5.60668 29.5957 5.6673C29.7018 5.74293 29.7319 5.87918 29.6563 5.96996L27.9004 8.58871C27.8399 8.69465 27.7037 8.72496 27.5977 8.64918Z" fill="#F3F3F3"/>
<path d="M27.5977 8.6644C27.4918 8.58877 27.4615 8.43737 27.5221 8.33143L29.2779 5.71268C29.3535 5.60674 29.4898 5.57643 29.6109 5.65221C29.7168 5.72784 29.7471 5.87924 29.6866 5.98518L27.9307 8.60393C27.8551 8.70987 27.7037 8.74002 27.5977 8.6644ZM29.5957 5.68252C29.5051 5.6219 29.3687 5.63706 29.3082 5.72784L27.5523 8.34659C27.4918 8.43721 27.522 8.55846 27.6129 8.61893C27.7037 8.67956 27.8399 8.6644 27.9004 8.57362L29.6563 5.97002C29.7168 5.87924 29.6866 5.74299 29.5957 5.68252Z" fill="white"/>
<path d="M29.8074 8.08924C29.7168 8.01345 29.6865 7.8772 29.7621 7.78642L30.6401 6.68142C30.7157 6.5908 30.8519 6.57549 30.9427 6.65127C31.0336 6.72689 31.0638 6.86314 30.988 6.95392L30.1102 8.05892C30.0346 8.1497 29.8982 8.16486 29.8074 8.08924Z" fill="#F3F3F3"/>
<path d="M29.7924 8.10441C29.6865 8.02863 29.6713 7.87722 29.7471 7.77128L30.6249 6.66644C30.7005 6.56035 30.8519 6.54519 30.9579 6.63613C31.0638 6.71175 31.079 6.86316 31.0032 6.9691L30.1254 8.0741C30.0497 8.18003 29.8983 8.19519 29.7924 8.10441ZM30.9275 6.66628C30.8369 6.59066 30.7157 6.60581 30.6401 6.6966L29.7621 7.8016C29.7016 7.89238 29.7168 8.01347 29.8074 8.0891C29.8983 8.16488 30.0194 8.14972 30.095 8.05894L30.973 6.95394C31.0336 6.86316 31.0183 6.72691 30.9277 6.66644L30.9275 6.66628Z" fill="white"/>
<path d="M29.656 10.3597C29.5652 10.2689 29.5652 10.1327 29.656 10.0569L31.8961 7.83187C31.9871 7.74109 32.1232 7.75609 32.1989 7.83187C32.2746 7.9075 32.2897 8.05891 32.1989 8.13453L29.9739 10.3597C29.883 10.4505 29.7468 10.4505 29.656 10.3597Z" fill="#F3F3F3"/>
<path d="M29.6409 10.3749C29.5972 10.3304 29.5728 10.2707 29.5728 10.2084C29.5728 10.1461 29.5972 10.0863 29.6409 10.0419L31.881 7.81673C31.9255 7.77303 31.9853 7.74854 32.0476 7.74854C32.1099 7.74854 32.1697 7.77303 32.2142 7.81673C32.2578 7.86115 32.2823 7.92094 32.2823 7.98322C32.2823 8.0455 32.2578 8.10529 32.2142 8.1497L29.9738 10.3747C29.9294 10.4184 29.8696 10.4428 29.8074 10.4428C29.7451 10.4428 29.6853 10.4185 29.6409 10.3749ZM32.199 7.83189C32.1234 7.75611 31.9871 7.75611 31.9115 7.83189L29.6712 10.0569C29.5954 10.1327 29.5954 10.2689 29.6712 10.3445C29.7468 10.4203 29.8831 10.4203 29.9587 10.3445L32.199 8.11955C32.2746 8.04376 32.2746 7.92267 32.199 7.83189Z" fill="white"/>
<path d="M31.9265 10.2386C31.8509 10.1479 31.8509 10.0116 31.9417 9.93583L33.0164 9.0277C33.1072 8.95208 33.2434 8.96708 33.3192 9.05802C33.3948 9.1488 33.3948 9.28505 33.304 9.36067L32.2293 10.269C32.1384 10.3446 32.0022 10.3294 31.9265 10.2386Z" fill="#F3F3F3"/>
<path d="M31.9116 10.2537C31.8208 10.1478 31.8359 9.99638 31.9267 9.92076L33.0014 9.01248C33.0922 8.9217 33.2436 8.93685 33.3344 9.04279C33.4253 9.14873 33.4102 9.30013 33.3194 9.37576L32.2445 10.284C32.1539 10.3747 32.0023 10.3597 31.9117 10.2537H31.9116ZM33.3042 9.05795C33.2284 8.96716 33.1073 8.96716 33.0167 9.02763L31.9419 9.93591C31.8663 10.0115 31.8511 10.1326 31.9267 10.2234C32.0023 10.3142 32.1236 10.3142 32.2142 10.2537L33.2891 9.34545C33.3798 9.26982 33.3798 9.14873 33.3042 9.05795Z" fill="white"/>
<path d="M31.3213 12.4183C31.2457 12.3123 31.276 12.1761 31.3819 12.1154L34.0157 10.3597C34.1216 10.299 34.2578 10.3294 34.3183 10.4203C34.3941 10.5262 34.3638 10.6625 34.2578 10.7229L31.6241 12.4787C31.5332 12.5394 31.3969 12.509 31.3213 12.4183Z" fill="#F3F3F3"/>
<path d="M31.3061 12.4182C31.2305 12.3123 31.2608 12.1609 31.3668 12.0852L34.0005 10.3293C34.1065 10.2537 34.2579 10.284 34.3335 10.4051C34.4093 10.511 34.3788 10.6624 34.273 10.7379L31.6393 12.494C31.5332 12.5698 31.3819 12.5393 31.3061 12.4182ZM34.3032 10.4354C34.2427 10.3444 34.1216 10.3141 34.0308 10.3748L31.3969 12.1305C31.3063 12.1912 31.2758 12.3123 31.3516 12.4182C31.4121 12.509 31.5332 12.5393 31.6241 12.4788L34.2579 10.7229C34.3486 10.6473 34.3638 10.526 34.3032 10.4354Z" fill="white"/>
<path d="M33.5768 12.7362C33.5162 12.6301 33.5465 12.494 33.6524 12.4334L34.8785 11.7371C34.9845 11.6765 35.1207 11.722 35.1812 11.8277C35.2418 11.9338 35.2115 12.0699 35.1056 12.1306L33.8795 12.827C33.7735 12.8874 33.6373 12.8421 33.5766 12.736L33.5768 12.7362Z" fill="#F3F3F3"/>
<path d="M33.5617 12.7512C33.501 12.6301 33.5314 12.4938 33.6373 12.4334L34.8634 11.7371C34.9693 11.6765 35.1207 11.722 35.1812 11.8277C35.2418 11.949 35.2115 12.0852 35.1056 12.1457L33.8795 12.8421C33.7735 12.9026 33.6221 12.8571 33.5617 12.7512ZM35.166 11.8431C35.1056 11.7371 34.9845 11.7068 34.8937 11.7673L33.6676 12.4637C33.5768 12.5242 33.5465 12.6452 33.5918 12.736C33.6524 12.842 33.7735 12.8723 33.8643 12.8118L35.0904 12.1154C35.1812 12.0701 35.2115 11.949 35.166 11.8431Z" fill="white"/>
<path d="M32.5626 14.7493C32.5173 14.6282 32.5626 14.5071 32.6837 14.4618L35.6051 13.2509C35.7111 13.2054 35.8473 13.2659 35.8926 13.3718C35.9381 13.4929 35.8926 13.614 35.7715 13.6593L32.8503 14.8703C32.7442 14.9157 32.6081 14.8703 32.5626 14.7493Z" fill="#F3F3F3"/>
<path d="M32.5475 14.7643C32.5022 14.6434 32.5475 14.5071 32.6686 14.4465L35.59 13.2356C35.6482 13.2136 35.7127 13.2156 35.7695 13.2412C35.8262 13.2667 35.8705 13.3137 35.8927 13.3718C35.9381 13.4929 35.8927 13.6292 35.7716 13.6896L32.8503 14.9006C32.7921 14.9226 32.7276 14.9206 32.6708 14.8951C32.614 14.8696 32.5697 14.8225 32.5475 14.7643ZM35.8625 13.387C35.817 13.281 35.6959 13.2356 35.6052 13.2659L32.6838 14.4768C32.5778 14.5221 32.5323 14.6434 32.5778 14.7493C32.6231 14.8553 32.7442 14.9007 32.8352 14.8704L35.7564 13.6595C35.8625 13.6142 35.908 13.4929 35.8625 13.387Z" fill="white"/>
<path d="M34.6967 15.5062C34.6514 15.385 34.7118 15.264 34.8329 15.2186L36.165 14.7795C36.2709 14.7342 36.4071 14.8098 36.4375 14.9158C36.4828 15.0369 36.4223 15.158 36.3012 15.2034L34.9692 15.6425C34.8632 15.6878 34.7421 15.6273 34.6967 15.5061V15.5062Z" fill="#F3F3F3"/>
<path d="M34.6814 15.5214C34.6361 15.4003 34.6965 15.264 34.8329 15.2187L36.1648 14.7796C36.2859 14.7343 36.4221 14.8099 36.4676 14.9312C36.5129 15.0521 36.4525 15.1884 36.3161 15.2339L34.9842 15.6729C34.8631 15.7031 34.7268 15.6424 34.6814 15.5214ZM36.4373 14.9464C36.407 14.8403 36.2859 14.7796 36.18 14.8099L34.8479 15.249C34.742 15.2792 34.6965 15.4003 34.7268 15.5064C34.7572 15.6123 34.8782 15.6728 34.9842 15.6424L36.3162 15.2035C36.4221 15.1582 36.4676 15.0523 36.4373 14.9464Z" fill="white"/>
<path d="M33.3343 17.3074C33.304 17.1863 33.3796 17.0652 33.5007 17.0501L36.6039 16.4446C36.7248 16.4143 36.8309 16.5051 36.861 16.6262C36.8914 16.7473 36.8157 16.8684 36.6946 16.8835L33.5915 17.489C33.4704 17.5041 33.3493 17.4285 33.3342 17.3074H33.3343Z" fill="#F3F3F3"/>
<path d="M33.3042 17.3074C33.2739 17.1712 33.3647 17.0501 33.4858 17.0198L36.5889 16.4143C36.71 16.384 36.8311 16.4749 36.8613 16.6112C36.8916 16.7473 36.8008 16.8684 36.6797 16.8987L33.5766 17.5041C33.4556 17.5344 33.3344 17.4437 33.3042 17.3073V17.3074ZM36.8311 16.6262C36.8159 16.5202 36.71 16.4446 36.6041 16.4598L33.5009 17.0652C33.395 17.0804 33.3194 17.2013 33.3495 17.3074C33.3647 17.4134 33.4706 17.489 33.5767 17.4738L36.6797 16.8684C36.7856 16.838 36.8613 16.7321 36.8311 16.6262Z" fill="white"/>
<path d="M35.2719 18.4729C35.2568 18.3518 35.3324 18.2458 35.4535 18.2307L36.846 18.0641C36.9671 18.0491 37.0732 18.1399 37.0882 18.261C37.1034 18.3821 37.0277 18.488 36.9066 18.5032L35.514 18.6696C35.408 18.6847 35.2871 18.594 35.2719 18.4729Z" fill="#F3F3F3"/>
<path d="M35.257 18.473C35.2419 18.3368 35.3327 18.2157 35.4537 18.2005L36.8462 18.0341C36.9673 18.019 37.0884 18.1097 37.1036 18.246C37.1187 18.3822 37.028 18.5033 36.9069 18.5185L35.5142 18.6849C35.3933 18.7001 35.272 18.6093 35.257 18.473ZM37.0884 18.2612C37.0734 18.1552 36.9675 18.0643 36.8614 18.0794L35.4689 18.246C35.363 18.2612 35.2872 18.3671 35.3023 18.473C35.3175 18.579 35.4234 18.6699 35.5294 18.6547L36.922 18.4882C37.028 18.473 37.1034 18.3671 37.0884 18.2612Z" fill="white"/>
<path d="M33.5767 19.9411C33.5767 19.82 33.6673 19.7141 33.7885 19.7141H36.9521C37.0732 19.7141 37.164 19.82 37.164 19.9411C37.164 20.0622 37.0732 20.1682 36.9521 20.1682H33.7885C33.6674 20.1682 33.5767 20.0622 33.5767 19.9411Z" fill="#F3F3F3"/>
<path d="M33.5615 19.9412C33.5615 19.8049 33.6675 19.699 33.7886 19.699H36.9521C37.0732 19.699 37.1792 19.8049 37.1792 19.9412C37.1792 20.0774 37.0732 20.1833 36.9521 20.1833H33.7886C33.6675 20.1833 33.5615 20.0774 33.5615 19.9412ZM37.1489 19.9563C37.1489 19.8504 37.0581 19.7444 36.952 19.7444H33.7887C33.6828 19.7444 33.5918 19.8351 33.5918 19.9563C33.5918 20.0623 33.6828 20.1682 33.7887 20.1682H36.9523C37.0582 20.153 37.1489 20.0623 37.1489 19.9563Z" fill="white"/>
<path d="M35.257 21.4699C35.272 21.3488 35.3629 21.2581 35.484 21.2581L36.8918 21.364C37.0128 21.3792 37.1036 21.4851 37.0884 21.6062C37.0734 21.7273 36.9825 21.8181 36.8614 21.8181L35.4537 21.7121C35.3478 21.697 35.257 21.591 35.257 21.4699Z" fill="#F3F3F3"/>
<path d="M35.2417 21.47C35.2569 21.3337 35.3628 21.2429 35.4839 21.2429L36.8917 21.3489C37.0126 21.364 37.1186 21.47 37.1034 21.6062C37.0884 21.7425 36.9823 21.8332 36.8612 21.8332L35.4536 21.7273C35.3325 21.7121 35.2417 21.591 35.2417 21.47ZM37.0884 21.6062C37.1034 21.5003 37.0126 21.3943 36.9067 21.3943L35.4989 21.2884C35.3931 21.2884 35.3022 21.364 35.287 21.4853C35.272 21.591 35.3628 21.697 35.4687 21.697L36.8765 21.8029C36.9823 21.8029 37.0733 21.7123 37.0884 21.6062Z" fill="white"/>
<path d="M33.3042 22.5749C33.3345 22.4538 33.4404 22.378 33.5615 22.3933L36.6645 23.0139C36.7856 23.0441 36.8614 23.15 36.8311 23.2711C36.8007 23.3922 36.6948 23.468 36.5737 23.4528L33.4706 22.8322C33.3646 22.8171 33.289 22.696 33.3042 22.5749Z" fill="#F3F3F3"/>
<path d="M33.289 22.575C33.3193 22.4387 33.4404 22.3631 33.5615 22.3781L36.6645 22.9989C36.7856 23.029 36.8764 23.1501 36.8461 23.2864C36.8159 23.4226 36.6948 23.4984 36.5737 23.4833L33.4706 22.8626C33.3495 22.8323 33.2739 22.7112 33.289 22.5751V22.575ZM36.8159 23.2864C36.8311 23.1804 36.7706 23.0745 36.6645 23.0442L33.5614 22.4236C33.4556 22.4086 33.3495 22.469 33.3192 22.5901C33.3042 22.6961 33.3647 22.802 33.4708 22.8323L36.5737 23.4529C36.6948 23.4681 36.7856 23.3923 36.8159 23.2864Z" fill="white"/>
<path d="M34.6665 24.3915C34.6735 24.3627 34.686 24.3355 34.7035 24.3115C34.7209 24.2876 34.7429 24.2673 34.7682 24.2518C34.7935 24.2364 34.8216 24.2261 34.8509 24.2215C34.8802 24.2169 34.9101 24.2181 34.9389 24.2251L36.3012 24.6033C36.4223 24.6337 36.4828 24.7549 36.4526 24.8758C36.4457 24.9047 36.4331 24.9319 36.4157 24.9559C36.3982 24.9799 36.3762 25.0002 36.3509 25.0156C36.3256 25.0311 36.2975 25.0414 36.2682 25.046C36.2389 25.0506 36.2089 25.0494 36.1801 25.0424L34.8178 24.664C34.6967 24.6337 34.6364 24.5126 34.6665 24.3915Z" fill="#F3F3F3"/>
<path d="M34.6511 24.3915C34.6814 24.2704 34.8177 24.1796 34.9388 24.2251L36.3011 24.6033C36.4222 24.6337 36.498 24.7699 36.4677 24.891C36.4374 25.0121 36.3011 25.1029 36.18 25.0576L34.8177 24.6791C34.6966 24.6488 34.6208 24.5277 34.6513 24.3916L34.6511 24.3915ZM36.4222 24.891C36.4525 24.7851 36.3919 24.664 36.286 24.6337L34.9236 24.2552C34.8177 24.2249 34.7117 24.2855 34.6814 24.4066C34.6513 24.5126 34.7117 24.6337 34.8177 24.664L36.18 25.0424C36.286 25.0576 36.3919 24.9971 36.4222 24.891Z" fill="white"/>
<path d="M32.5319 25.1179C32.5773 24.9968 32.7137 24.9513 32.8194 24.9968L35.741 26.2077C35.8469 26.253 35.9074 26.3894 35.8621 26.4952C35.8166 26.6165 35.6804 26.6618 35.5744 26.6165L32.653 25.4055C32.5319 25.3602 32.4865 25.2237 32.5319 25.1179Z" fill="#F3F3F3"/>
<path d="M32.5172 25.1028C32.5394 25.0447 32.5837 24.9977 32.6405 24.9721C32.6972 24.9466 32.7618 24.9446 32.82 24.9666L35.7415 26.1775C35.8625 26.223 35.9079 26.3592 35.8625 26.4955C35.8404 26.5536 35.7961 26.6007 35.7393 26.6262C35.6825 26.6517 35.618 26.6537 35.5597 26.6317L32.6383 25.4208C32.5172 25.3602 32.4719 25.2239 32.5172 25.1028ZM35.8322 26.4803C35.8775 26.3744 35.8322 26.2533 35.7263 26.2078L32.8049 24.9969C32.699 24.9516 32.593 25.012 32.5475 25.118C32.5022 25.2239 32.5475 25.345 32.6535 25.3905L35.5749 26.6014C35.6808 26.6317 35.8019 26.5863 35.8322 26.4803Z" fill="white"/>
<path d="M33.5159 27.1613C33.5765 27.0554 33.6975 27.0099 33.8034 27.0554L35.0598 27.6912C35.1658 27.7365 35.2112 27.8727 35.1508 27.9938C35.0901 28.0998 34.969 28.1454 34.8631 28.0998L33.6069 27.4642C33.5008 27.4035 33.4553 27.2673 33.5159 27.1613Z" fill="#F3F3F3"/>
<path d="M33.5008 27.1463C33.5614 27.0252 33.6977 26.9799 33.8188 27.0403L35.075 27.6761C35.1961 27.7367 35.2416 27.873 35.1809 27.9939C35.1205 28.115 34.9841 28.1605 34.8631 28.0999L33.6069 27.4642C33.4856 27.4189 33.4403 27.2674 33.5008 27.1463ZM35.1356 27.9788C35.1809 27.8728 35.1506 27.7517 35.0447 27.7064L33.7884 27.0707C33.6975 27.0253 33.5766 27.0707 33.5159 27.1614C33.4706 27.2674 33.5008 27.3885 33.6067 27.4339L34.863 28.0697C34.9691 28.115 35.0902 28.0849 35.1356 27.9788Z" fill="white"/>
<path d="M31.291 27.449C31.3668 27.3431 31.4879 27.3128 31.5938 27.3884L34.2276 29.1444C34.3335 29.2048 34.3487 29.3412 34.2882 29.447C34.2124 29.5531 34.0913 29.5833 33.9854 29.5076L31.3516 27.7517C31.2457 27.6761 31.2154 27.5398 31.291 27.449Z" fill="#F3F3F3"/>
<path d="M31.2757 27.4339C31.3515 27.328 31.5029 27.2977 31.6088 27.3583L34.2426 29.1141C34.3485 29.1897 34.3788 29.326 34.303 29.447C34.2274 29.5531 34.076 29.5833 33.9702 29.5228L31.3363 27.7669C31.2152 27.6913 31.2001 27.5399 31.2757 27.4339ZM34.2577 29.4319C34.3182 29.3413 34.303 29.2049 34.2124 29.1444L31.5785 27.3885C31.4877 27.328 31.3666 27.3583 31.306 27.4491C31.2455 27.5399 31.2607 27.6761 31.3513 27.7366L33.9852 29.4925C34.076 29.5531 34.1971 29.5228 34.2577 29.432V29.4319Z" fill="white"/>
<path d="M31.8512 29.644C31.9268 29.553 32.0631 29.5229 32.1539 29.5987L33.2589 30.4613C33.3497 30.5369 33.3648 30.6732 33.2892 30.7641C33.2136 30.8548 33.0773 30.8852 32.9864 30.8094L31.8814 29.9466C31.7907 29.871 31.7754 29.7348 31.8512 29.644Z" fill="#F3F3F3"/>
<path d="M31.8359 29.6288C31.9115 29.5229 32.0629 29.5077 32.1689 29.5835L33.2739 30.4462C33.3798 30.5218 33.3949 30.6732 33.3192 30.7791C33.2435 30.8852 33.0921 30.9002 32.9864 30.8246L31.8812 29.9618C31.7753 29.8862 31.7603 29.7348 31.8359 29.6288ZM33.289 30.7641C33.3646 30.6732 33.3495 30.5521 33.2587 30.4765L32.1537 29.6137C32.0629 29.5532 31.9418 29.5684 31.8662 29.659C31.7904 29.7499 31.8056 29.871 31.8964 29.9466L33.0014 30.8094C33.0921 30.8701 33.2132 30.8548 33.2889 30.7641H33.289Z" fill="white"/>
<path d="M29.5958 29.4924C29.6867 29.4016 29.823 29.4016 29.8986 29.4924L32.1387 31.7174C32.2297 31.8083 32.2145 31.9446 32.1387 32.0202C32.0481 32.111 31.9117 32.111 31.8361 32.0202L29.5958 29.7952C29.5202 29.7194 29.5202 29.568 29.5958 29.4924Z" fill="#F3F3F3"/>
<path d="M29.5956 29.4774C29.64 29.4337 29.6998 29.4092 29.7621 29.4092C29.8244 29.4092 29.8843 29.4337 29.9287 29.4774L32.1688 31.7024C32.2126 31.7468 32.237 31.8066 32.237 31.8689C32.237 31.9313 32.2126 31.9911 32.1688 32.0355C32.1244 32.0792 32.0646 32.1036 32.0024 32.1036C31.9401 32.1036 31.8803 32.0792 31.8359 32.0355L29.5956 29.8105C29.4896 29.7196 29.4896 29.5683 29.5956 29.4774ZM32.1385 32.0052C32.2143 31.9296 32.2143 31.7933 32.1385 31.7177L29.8984 29.4925C29.8228 29.4169 29.6865 29.4169 29.6109 29.4925C29.5351 29.5682 29.5351 29.7044 29.6109 29.78L31.851 32.0052C31.9267 32.0961 32.0479 32.0961 32.1385 32.0052Z" fill="white"/>
<path d="M29.732 31.7478C29.823 31.6722 29.9591 31.6722 30.0349 31.763L30.9583 32.8225C31.0338 32.9134 31.0188 33.0497 30.9278 33.1253C30.8372 33.2009 30.7008 33.2009 30.6252 33.1102L29.7017 32.0506C29.6261 31.975 29.6413 31.8388 29.732 31.7478Z" fill="#F3F3F3"/>
<path d="M29.7167 31.7477C29.8226 31.6571 29.9589 31.6721 30.0495 31.7628L30.9729 32.8224C31.0637 32.9133 31.0486 33.0646 30.9426 33.1555C30.8367 33.2463 30.7004 33.2311 30.6097 33.1403L29.6862 32.0808C29.6106 31.9749 29.6106 31.8235 29.7165 31.7477H29.7167ZM30.9276 33.1252C31.0183 33.0496 31.0183 32.9283 30.9578 32.8377L30.0343 31.778C29.9587 31.7024 29.8376 31.6872 29.7468 31.7628C29.6561 31.8386 29.6561 31.9597 29.7165 32.0503L30.64 33.11C30.7156 33.2008 30.8368 33.2008 30.9275 33.1252H30.9276Z" fill="white"/>
<path d="M27.5521 31.1726C27.6581 31.097 27.7943 31.1273 27.8549 31.2332L29.6106 33.8518C29.6712 33.9578 29.6409 34.094 29.5501 34.1546C29.4442 34.2303 29.3079 34.1999 29.2473 34.094L27.4915 31.4753C27.4309 31.3695 27.4612 31.2331 27.552 31.1726H27.5521Z" fill="#F3F3F3"/>
<path d="M27.5524 31.1575C27.6583 31.0818 27.8097 31.1122 27.8854 31.2181L29.6413 33.8368C29.7169 33.9426 29.6866 34.094 29.5657 34.1697C29.4596 34.2454 29.3083 34.2151 29.2325 34.1092L27.4768 31.4904C27.4011 31.3695 27.4314 31.2331 27.5524 31.1575ZM29.5505 34.1395C29.6413 34.0789 29.6716 33.9578 29.611 33.867L27.8552 31.2482C27.7946 31.1576 27.6735 31.1423 27.5677 31.2029C27.4768 31.2634 27.4464 31.3845 27.5071 31.4754L29.2629 34.094C29.3235 34.1697 29.4597 34.2 29.5504 34.1393L29.5505 34.1395Z" fill="white"/>
<path d="M27.2343 33.4129C27.3402 33.3524 27.4765 33.3827 27.537 33.4887L28.2334 34.7147C28.2938 34.8207 28.2484 34.9569 28.1424 35.0174C28.0365 35.078 27.9002 35.0477 27.8398 34.9418L27.1435 33.7157C27.098 33.6097 27.1284 33.4735 27.2341 33.413L27.2343 33.4129Z" fill="#F3F3F3"/>
<path d="M27.2344 33.3978C27.3555 33.3372 27.4917 33.3675 27.5522 33.4735L28.2484 34.6996C28.3091 34.8055 28.2788 34.9569 28.1578 35.0174C28.0366 35.078 27.9003 35.0477 27.8399 34.9418L27.1436 33.7157C27.083 33.6097 27.1133 33.4735 27.2342 33.3978H27.2344ZM28.1425 35.0024C28.2334 34.9418 28.2788 34.8207 28.2183 34.7299L27.522 33.5038C27.4614 33.413 27.3403 33.3827 27.2495 33.428C27.1586 33.4886 27.1133 33.6097 27.1738 33.7005L27.8702 34.9266C27.9155 35.0174 28.0517 35.063 28.1425 35.0024Z" fill="white"/>
<path d="M25.2212 32.414C25.3423 32.3687 25.4634 32.414 25.5089 32.5199L26.7349 35.4413C26.7803 35.5473 26.7198 35.6835 26.6139 35.7288C26.5079 35.7743 26.3717 35.7288 26.3264 35.6229L25.1003 32.7016C25.0548 32.5955 25.1153 32.4594 25.2212 32.414Z" fill="#F3F3F3"/>
<path d="M25.221 32.3988C25.3421 32.3535 25.4784 32.3988 25.539 32.5199L26.7651 35.4413C26.787 35.4995 26.785 35.5641 26.7595 35.6208C26.7339 35.6775 26.687 35.7218 26.6288 35.744C26.5077 35.7894 26.3715 35.744 26.311 35.6229L25.0849 32.7016C25.0395 32.5955 25.1001 32.4594 25.221 32.3988ZM26.5985 35.7138C26.7045 35.6684 26.7499 35.5473 26.7045 35.4565L25.4784 32.5351C25.433 32.4291 25.312 32.3837 25.206 32.4291C25.1001 32.4744 25.0545 32.5955 25.1001 32.6865L26.326 35.6079C26.3866 35.7138 26.4926 35.7591 26.5985 35.7138Z" fill="white"/>
<path d="M24.4793 34.5634C24.6005 34.5181 24.7214 34.5785 24.7669 34.6996L25.206 36.0317C25.2513 36.1376 25.1757 36.2738 25.0697 36.3042C24.9486 36.3495 24.8275 36.289 24.7822 36.1679L24.3432 34.8359C24.2978 34.7299 24.3583 34.6088 24.4794 34.5634H24.4793Z" fill="#F3F3F3"/>
<path d="M24.4643 34.5481C24.5225 34.5261 24.5871 34.5281 24.6438 34.5537C24.7005 34.5792 24.7448 34.6262 24.767 34.6843L25.206 36.0164C25.2513 36.1374 25.1757 36.2737 25.0545 36.3192C24.9963 36.3411 24.9317 36.3391 24.875 36.3135C24.8183 36.288 24.774 36.241 24.7518 36.1829L24.3129 34.8509C24.2826 34.7298 24.3432 34.5935 24.4643 34.5481ZM25.0546 36.2887C25.1606 36.2585 25.221 36.1374 25.1909 36.0315L24.7518 34.6995C24.7217 34.5935 24.6006 34.5481 24.4946 34.5784C24.3885 34.6087 24.3281 34.7298 24.3584 34.8357L24.7973 36.1678C24.805 36.1935 24.818 36.2172 24.8355 36.2376C24.8531 36.2579 24.8747 36.2743 24.8989 36.2857C24.9232 36.2971 24.9496 36.3033 24.9764 36.3039C25.0033 36.3044 25.0299 36.2993 25.0546 36.2889V36.2887Z" fill="white"/>
<path d="M22.6935 33.1859C22.8145 33.1556 22.9357 33.2312 22.9507 33.3523L23.5865 36.4554C23.6168 36.5764 23.5259 36.6825 23.4048 36.7126C23.2838 36.7429 23.1626 36.6673 23.1476 36.5462L22.5117 33.4431C22.4967 33.3371 22.5723 33.2161 22.6934 33.1857L22.6935 33.1859Z" fill="#F3F3F3"/>
<path d="M22.6933 33.1706C22.8294 33.1405 22.9505 33.2312 22.9808 33.3523L23.6166 36.4555C23.6469 36.5764 23.556 36.7127 23.4349 36.7278C23.2986 36.7581 23.1776 36.6673 23.1474 36.5462L22.5115 33.4431C22.4813 33.322 22.5571 33.2009 22.6932 33.1708L22.6933 33.1706ZM23.4046 36.6975C23.5107 36.6825 23.5863 36.5764 23.5711 36.4553L22.9354 33.3523C22.9204 33.2464 22.7993 33.1708 22.6932 33.2009C22.5872 33.2161 22.5116 33.322 22.5268 33.4431L23.1626 36.5462C23.1927 36.6522 23.2986 36.7127 23.4047 36.6977L23.4046 36.6975Z" fill="white"/>
<path d="M21.5431 35.1535C21.6642 35.1384 21.7701 35.2142 21.8004 35.3353L21.982 36.7278C21.9972 36.8488 21.9064 36.9548 21.7851 36.9699C21.6642 36.9851 21.5583 36.9095 21.5279 36.7884L21.3464 35.3957C21.3312 35.2746 21.422 35.1687 21.5431 35.1535Z" fill="#F3F3F3"/>
<path d="M21.5431 35.1383C21.6794 35.1233 21.8005 35.2141 21.8156 35.3352L21.9972 36.7277C22.0123 36.8488 21.9216 36.9699 21.7853 36.9851C21.6491 37.0002 21.528 36.9094 21.5128 36.7882L21.3312 35.3957C21.3161 35.2746 21.4069 35.1535 21.5431 35.1383ZM21.7701 36.9547C21.8761 36.9397 21.967 36.8337 21.9519 36.7277L21.7701 35.3352C21.755 35.2293 21.6491 35.1535 21.5431 35.1687C21.4372 35.1838 21.3462 35.2897 21.3614 35.3957L21.5431 36.7883C21.5583 36.8943 21.6642 36.9699 21.7701 36.9547Z" fill="white"/>
<path d="M19.9839 33.4583C20.105 33.4583 20.2109 33.5492 20.2109 33.6703V36.8337C20.2109 36.9548 20.105 37.0458 19.9839 37.0458C19.8628 37.0458 19.7568 36.9548 19.7568 36.8337V33.6703C19.772 33.5492 19.8628 33.4583 19.9839 33.4583Z" fill="#F3F3F3"/>
<path d="M19.9839 33.4431C20.1201 33.4431 20.2261 33.5491 20.2261 33.6701V36.8337C20.2261 36.9548 20.1201 37.0608 19.9839 37.0608C19.8476 37.0608 19.7417 36.9548 19.7417 36.8337V33.6703C19.7417 33.5492 19.8628 33.4431 19.9839 33.4431ZM19.9839 37.0306C20.0898 37.0306 20.1958 36.9398 20.1958 36.8337V33.6703C20.1958 33.5642 20.105 33.4734 19.9839 33.4734C19.8779 33.4734 19.772 33.5642 19.772 33.6703V36.8337C19.787 36.9398 19.8779 37.0306 19.9839 37.0306Z" fill="white"/>
<path d="M18.4702 35.1535C18.5913 35.1687 18.6821 35.2594 18.6821 35.3805L18.5761 36.7884C18.5611 36.9094 18.455 37.0002 18.3339 36.9852C18.2129 36.9699 18.1221 36.8791 18.1221 36.758L18.228 35.3502C18.2432 35.2293 18.3491 35.1384 18.4702 35.1535Z" fill="#F3F3F3"/>
<path d="M18.4702 35.1383C18.6065 35.1535 18.6972 35.2594 18.6972 35.3805L18.5913 36.7883C18.5762 36.9094 18.4702 37.0154 18.334 37.0002C18.1979 36.9851 18.1069 36.8791 18.1069 36.758L18.2129 35.3502C18.228 35.2141 18.334 35.1233 18.4702 35.1383ZM18.334 36.9699C18.4399 36.9699 18.546 36.8943 18.546 36.7883L18.6519 35.3805C18.6519 35.2746 18.5762 35.1838 18.4551 35.1686C18.3491 35.1686 18.2432 35.2443 18.2432 35.3504L18.1372 36.758C18.1372 36.864 18.2279 36.9549 18.334 36.9699Z" fill="white"/>
<path d="M17.335 33.186C17.4561 33.2162 17.5317 33.3221 17.5165 33.4432L16.8959 36.5463C16.8656 36.6674 16.7597 36.7432 16.6386 36.7127C16.5175 36.6826 16.4418 36.5766 16.457 36.4554L17.0776 33.3524C17.0928 33.2465 17.2139 33.1709 17.335 33.186Z" fill="#F3F3F3"/>
<path d="M17.335 33.1705C17.4711 33.2008 17.5469 33.3221 17.5317 33.443L16.9111 36.5461C16.8808 36.6672 16.7597 36.758 16.6236 36.7277C16.4873 36.6974 16.4116 36.5763 16.4267 36.4552L17.0473 33.3522C17.0777 33.2311 17.1987 33.1553 17.3348 33.1707L17.335 33.1705ZM16.6236 36.6974C16.7295 36.7125 16.8355 36.6521 16.8658 36.5461L17.4862 33.443C17.5014 33.3371 17.4409 33.2311 17.3198 33.2008C17.2139 33.1858 17.108 33.2463 17.0777 33.3524L16.457 36.4552C16.4419 36.5763 16.5175 36.6672 16.6236 36.6974Z" fill="white"/>
<path d="M15.5185 34.5482C15.6397 34.5785 15.7153 34.6996 15.685 34.8207L15.3066 36.183C15.2764 36.3041 15.1553 36.3646 15.0342 36.3344C15.0054 36.3275 14.9782 36.315 14.9542 36.2975C14.9302 36.2801 14.9099 36.258 14.8944 36.2327C14.879 36.2074 14.8686 36.1793 14.8641 36.15C14.8595 36.1207 14.8607 36.0908 14.8677 36.0619L15.2461 34.6996C15.2764 34.5785 15.3974 34.518 15.5185 34.5482Z" fill="#F3F3F3"/>
<path d="M15.5186 34.5332C15.6399 34.5634 15.7306 34.6996 15.6852 34.8207L15.3067 36.1831C15.2766 36.3041 15.1403 36.3799 15.0192 36.3495C14.8981 36.3193 14.8074 36.1831 14.8527 36.062L15.2311 34.6996C15.2614 34.5785 15.3825 34.5027 15.5186 34.5331V34.5332ZM15.0192 36.3041C15.1252 36.3345 15.2463 36.2738 15.2766 36.1679L15.6549 34.8056C15.6852 34.6996 15.6247 34.5937 15.5036 34.5634C15.3977 34.5331 15.2766 34.5937 15.2463 34.6996L14.8678 36.062C14.8527 36.1679 14.9131 36.2738 15.0192 36.3041Z" fill="white"/>
<path d="M14.7771 32.414C14.8981 32.4593 14.9435 32.5955 14.8981 32.7015L13.6872 35.6229C13.6419 35.729 13.5055 35.7894 13.3997 35.729C13.2936 35.6684 13.233 35.5473 13.2785 35.4413L14.4894 32.5199C14.5347 32.414 14.6713 32.3534 14.7771 32.414Z" fill="#F3F3F3"/>
<path d="M14.7769 32.3987C14.8351 32.4209 14.8821 32.4652 14.9076 32.522C14.9332 32.5787 14.9352 32.6433 14.9132 32.7015L13.7022 35.6228C13.6568 35.7439 13.5205 35.7893 13.3843 35.7439C13.3261 35.7217 13.2792 35.6774 13.2536 35.6207C13.2281 35.564 13.2261 35.4994 13.248 35.4412L14.459 32.5198C14.5196 32.3987 14.6558 32.3383 14.7769 32.3987ZM13.3994 35.7137C13.5054 35.759 13.6265 35.7137 13.6719 35.6078L14.8829 32.6864C14.9282 32.5804 14.8677 32.4743 14.7618 32.429C14.6558 32.3837 14.5347 32.429 14.4893 32.535L13.2783 35.4564C13.248 35.5472 13.2935 35.6683 13.3994 35.7137Z" fill="white"/>
<path d="M12.7334 33.3826C12.8394 33.4431 12.8847 33.5642 12.8394 33.6701L12.2036 34.9265C12.143 35.0325 12.0219 35.0779 11.9008 35.0173C11.7948 34.9568 11.7495 34.8357 11.7948 34.7298L12.4308 33.4736C12.4912 33.3675 12.6123 33.322 12.7334 33.3826Z" fill="#F3F3F3"/>
<path d="M12.7333 33.3675C12.8544 33.428 12.8997 33.5644 12.8392 33.6853L12.2034 34.9417C12.1428 35.0628 12.0065 35.1083 11.8856 35.0476C11.7645 34.9872 11.719 34.8508 11.7797 34.7298L12.4153 33.4736C12.4759 33.3523 12.6122 33.307 12.7333 33.3675ZM11.9008 35.0175C12.0067 35.0628 12.1278 35.0325 12.1731 34.9265L12.8089 33.6703C12.8542 33.5794 12.8089 33.4583 12.7181 33.3978C12.6122 33.3525 12.4911 33.3826 12.4456 33.4886L11.8098 34.7448C11.7645 34.8358 11.8098 34.957 11.9008 35.0175Z" fill="white"/>
<path d="M12.4307 31.1425C12.5366 31.2181 12.5669 31.3544 12.4913 31.4451L10.7353 34.0639C10.6749 34.1697 10.5385 34.1848 10.4327 34.1244C10.3268 34.0486 10.2964 33.9125 10.3721 33.8216L12.128 31.2028C12.1885 31.097 12.3247 31.0669 12.4307 31.1425Z" fill="#F3F3F3"/>
<path d="M12.4307 31.1272C12.5367 31.203 12.567 31.3544 12.5064 31.4603L10.7506 34.0791C10.675 34.1848 10.5387 34.2152 10.4176 34.1395C10.3117 34.0638 10.2814 33.9125 10.3418 33.8064L12.0978 31.1878C12.1734 31.0819 12.3248 31.0516 12.4307 31.1272ZM10.4328 34.1092C10.5234 34.1697 10.6598 34.1545 10.7203 34.0639L12.4762 31.4452C12.5367 31.3544 12.5065 31.2333 12.4156 31.1727C12.3248 31.1122 12.1885 31.1273 12.1281 31.218L10.3721 33.8216C10.3117 33.9125 10.3418 34.0488 10.4328 34.1092Z" fill="white"/>
<path d="M10.2205 31.7025C10.3114 31.7782 10.3416 31.9144 10.266 32.0052L9.388 33.1102C9.31237 33.201 9.17612 33.2161 9.08534 33.1405C8.99456 33.0649 8.96425 32.9286 9.04003 32.8377L9.91784 31.7327C9.99347 31.6421 10.1297 31.6268 10.2205 31.7025Z" fill="#F3F3F3"/>
<path d="M10.2357 31.6873C10.3416 31.763 10.3568 31.9144 10.281 32.0203L9.4032 33.1253C9.32757 33.2312 9.17616 33.2464 9.07023 33.1556C8.96429 33.0798 8.94913 32.9286 9.02491 32.8225L9.90273 31.7176C9.97835 31.6116 10.1298 31.5966 10.2357 31.6873ZM9.10054 33.1253C9.19116 33.2009 9.31241 33.1859 9.38804 33.095L10.266 31.99C10.3266 31.8994 10.3113 31.7781 10.2207 31.7025C10.1298 31.6267 10.0087 31.6419 9.93304 31.7328L9.05507 32.8376C8.9946 32.9286 9.00991 33.0647 9.10054 33.1253Z" fill="white"/>
<path d="M10.3721 29.432C10.4629 29.5226 10.4629 29.659 10.3721 29.7346L8.13195 31.9596C8.04101 32.0506 7.90491 32.0354 7.82913 31.9596C7.75351 31.884 7.73835 31.7326 7.82913 31.657L10.0541 29.432C10.1451 29.341 10.2813 29.341 10.3721 29.432Z" fill="#F3F3F3"/>
<path d="M10.3869 29.4168C10.4305 29.4612 10.455 29.5209 10.455 29.5832C10.455 29.6454 10.4305 29.7052 10.3869 29.7496L8.14662 31.9749C8.10221 32.0185 8.04245 32.0429 7.98021 32.0429C7.91797 32.0429 7.85821 32.0185 7.8138 31.9749C7.7701 31.9305 7.74561 31.8706 7.74561 31.8083C7.74561 31.746 7.7701 31.6862 7.8138 31.6418L10.054 29.4168C10.0984 29.3731 10.1582 29.3486 10.2204 29.3486C10.2827 29.3486 10.3425 29.3731 10.3869 29.4168ZM7.8288 31.9596C7.90443 32.0352 8.04068 32.0352 8.1163 31.9596L10.3566 29.7344C10.4324 29.6588 10.4324 29.5225 10.3566 29.4469C10.281 29.3711 10.1447 29.3711 10.0691 29.4469L7.8288 31.6719C7.75318 31.7475 7.75318 31.8688 7.8288 31.9594V31.9596Z" fill="white"/>
<path d="M8.10142 29.5532C8.17704 29.6438 8.17704 29.7802 8.08626 29.8559L7.01157 30.7641C6.92079 30.8398 6.78454 30.8246 6.70876 30.7338C6.63314 30.6429 6.63314 30.5068 6.72392 30.431L7.79861 29.5229C7.88954 29.4471 8.02564 29.4623 8.10142 29.5532Z" fill="#F3F3F3"/>
<path d="M8.11674 29.5378C8.20752 29.6438 8.19236 29.7951 8.10158 29.8709L7.02689 30.779C6.93611 30.8699 6.78471 30.8548 6.69392 30.7488C6.60299 30.6427 6.61814 30.4915 6.70892 30.4157L7.78377 29.5076C7.87439 29.4168 8.02596 29.432 8.11658 29.5379L8.11674 29.5378ZM6.72408 30.7337C6.79986 30.8245 6.92096 30.8245 7.01158 30.764L8.08642 29.8557C8.16205 29.7801 8.1772 29.6588 8.10158 29.5682C8.0258 29.4773 7.90471 29.4773 7.81408 29.5379L6.73924 30.446C6.64846 30.5217 6.64846 30.6431 6.72408 30.7337Z" fill="white"/>
<path d="M8.7071 27.3732C8.78273 27.4793 8.75242 27.6154 8.64648 27.676L6.01273 29.4319C5.90679 29.4924 5.77054 29.4621 5.71007 29.3713C5.63429 29.2654 5.6646 29.1291 5.77054 29.0685L8.40445 27.3127C8.49539 27.2523 8.63148 27.2824 8.70726 27.3732H8.7071Z" fill="#F3F3F3"/>
<path d="M8.72224 27.3732C8.79786 27.4793 8.76755 27.6305 8.66161 27.7063L6.02786 29.4621C5.92193 29.5379 5.77052 29.5074 5.69489 29.3865C5.61911 29.2805 5.64958 29.1291 5.75536 29.0535L8.38927 27.2976C8.49521 27.2219 8.64661 27.2522 8.72224 27.3732ZM5.72521 29.3562C5.78568 29.4469 5.90677 29.4773 5.99755 29.4168L8.6313 27.6608C8.72224 27.6004 8.75239 27.4793 8.67677 27.3733C8.6163 27.2824 8.49521 27.2522 8.40427 27.3127L5.77052 29.0687C5.67974 29.1443 5.66458 29.2654 5.72521 29.3562Z" fill="white"/>
<path d="M6.45169 27.0554C6.51231 27.1614 6.482 27.2976 6.37606 27.3583L5.14997 28.0545C5.04403 28.115 4.90778 28.0697 4.84731 27.9637C4.78669 27.8578 4.817 27.7215 4.92294 27.6609L6.14903 26.9647C6.25497 26.904 6.39122 26.9495 6.45184 27.0554H6.45169Z" fill="#F3F3F3"/>
<path d="M6.467 27.0403C6.52747 27.1614 6.49715 27.2976 6.39122 27.3583L5.16512 28.0545C5.05919 28.115 4.90778 28.0697 4.84731 27.9637C4.78669 27.8426 4.817 27.7064 4.92294 27.6458L6.14903 26.9495C6.25497 26.8889 6.40637 26.9344 6.46684 27.0403H6.467ZM4.86231 27.9486C4.92294 28.0545 5.04403 28.0848 5.13481 28.0242L6.3609 27.328C6.45169 27.2673 6.482 27.1462 6.43669 27.0555C6.37606 26.9495 6.25497 26.9192 6.16419 26.9798L4.93809 27.6761C4.84731 27.7214 4.81684 27.8426 4.86231 27.9486Z" fill="white"/>
<path d="M7.46595 25.0424C7.51126 25.1635 7.46595 25.2846 7.34486 25.3299L4.42345 26.5408C4.31751 26.5863 4.18126 26.5258 4.13595 26.4197C4.09048 26.2986 4.13595 26.1775 4.25704 26.1322L7.17845 24.9213C7.28439 24.876 7.42064 24.9213 7.46595 25.0424Z" fill="#F3F3F3"/>
<path d="M7.48111 25.0271C7.52642 25.1482 7.48111 25.2844 7.36001 25.3449L4.43861 26.5558C4.3804 26.5778 4.31586 26.5758 4.25914 26.5502C4.20241 26.5247 4.15812 26.4777 4.13595 26.4196C4.09048 26.2985 4.13595 26.1623 4.25704 26.1018L7.17845 24.8908C7.23666 24.8689 7.30119 24.8709 7.35792 24.8965C7.41464 24.922 7.45894 24.969 7.48111 25.0271ZM4.16611 26.4044C4.21158 26.5105 4.33267 26.556 4.42345 26.5255L7.34486 25.3146C7.45079 25.2693 7.49626 25.1482 7.45079 25.0422C7.40548 24.9363 7.28439 24.8908 7.19345 24.9212L4.27204 26.1321C4.16611 26.1774 4.12079 26.2985 4.16611 26.4046V26.4044Z" fill="white"/>
<path d="M5.3315 24.2856C5.37681 24.4067 5.31634 24.5277 5.19525 24.5731L3.86322 25.0121C3.75728 25.0574 3.62103 24.9818 3.59072 24.8759C3.54541 24.7548 3.60587 24.6337 3.72697 24.5884L5.059 24.1493C5.16494 24.104 5.28603 24.1645 5.3315 24.2856Z" fill="#F3F3F3"/>
<path d="M5.34637 24.2704C5.39184 24.3915 5.33137 24.5277 5.19512 24.5732L3.86309 25.0121C3.74199 25.0574 3.60574 24.9818 3.56028 24.8607C3.51496 24.7396 3.57543 24.6034 3.71184 24.5581L5.04371 24.119C5.16481 24.0888 5.30106 24.1493 5.34653 24.2706L5.34637 24.2704ZM3.59074 24.8457C3.62106 24.9517 3.74215 25.0123 3.84809 24.982L5.18012 24.5429C5.28606 24.5127 5.33152 24.3917 5.30121 24.2857C5.2709 24.1798 5.14981 24.1192 5.04387 24.1495L3.71184 24.5885C3.6059 24.6338 3.56043 24.7398 3.59074 24.8457Z" fill="white"/>
<path d="M6.69373 22.4841C6.72388 22.6052 6.64826 22.7263 6.52716 22.7415L3.42404 23.347C3.30294 23.3773 3.19701 23.2863 3.16685 23.1652C3.13654 23.0441 3.21216 22.9231 3.33326 22.9079L6.43638 22.3024C6.55748 22.2874 6.67873 22.363 6.69373 22.4841Z" fill="#F3F3F3"/>
<path d="M6.72405 22.4843C6.75436 22.6206 6.66358 22.7416 6.54248 22.7718L3.43936 23.3773C3.31827 23.4076 3.19717 23.3168 3.16702 23.1806C3.1367 23.0443 3.22748 22.9232 3.34858 22.8931L6.4517 22.2876C6.57264 22.2573 6.69389 22.3481 6.72405 22.4843ZM3.19717 23.1656C3.21233 23.2713 3.31827 23.3471 3.4242 23.332L6.52733 22.7265C6.63327 22.7113 6.70889 22.5902 6.67873 22.4843C6.66358 22.3784 6.55764 22.3026 6.45155 22.3177L3.34858 22.9232C3.24264 22.9535 3.16702 23.0595 3.19717 23.1654V23.1656Z" fill="white"/>
<path d="M4.75632 21.3186C4.77132 21.4396 4.69569 21.5457 4.5746 21.5608L3.1821 21.7272C3.06085 21.7424 2.95491 21.6516 2.93991 21.5304C2.92476 21.4094 3.00038 21.3035 3.12148 21.2882L4.51413 21.1218C4.62007 21.1066 4.74116 21.1974 4.75632 21.3186Z" fill="#F3F3F3"/>
<path d="M4.77171 21.3187C4.78671 21.4548 4.69593 21.5758 4.57484 21.591L3.18234 21.7576C3.06109 21.7727 2.94015 21.6819 2.92499 21.5457C2.90984 21.4094 3.00062 21.2883 3.12171 21.2732L4.51437 21.1066C4.63531 21.0915 4.75656 21.1824 4.77156 21.3185L4.77171 21.3187ZM2.93999 21.5305C2.95515 21.6365 3.06124 21.7274 3.16718 21.7121L4.55968 21.5457C4.66562 21.5305 4.7414 21.4246 4.72624 21.3187C4.71109 21.2126 4.60515 21.1218 4.49921 21.1369L3.10656 21.3035C3.00062 21.3187 2.92499 21.4246 2.93999 21.5305Z" fill="white"/>
<path d="M6.45145 19.8503C6.45145 19.9716 6.36082 20.0775 6.23957 20.0775H3.07613C2.95504 20.0775 2.86426 19.9716 2.86426 19.8505C2.86426 19.7294 2.95504 19.6233 3.07613 19.6233H6.23973C6.36082 19.6233 6.45176 19.7294 6.45176 19.8505L6.45145 19.8503Z" fill="#F3F3F3"/>
<path d="M6.46678 19.8503C6.46678 19.9867 6.36068 20.0925 6.23959 20.0925H3.07615C2.95506 20.0925 2.84912 19.9866 2.84912 19.8503C2.84912 19.7142 2.95506 19.6082 3.07615 19.6082H6.23975C6.36084 19.6082 6.46678 19.7142 6.46678 19.8503ZM2.87928 19.8353C2.87928 19.9413 2.97006 20.0472 3.07615 20.0472H6.23959C6.34553 20.0472 6.43646 19.9564 6.43646 19.8353C6.43646 19.7294 6.34553 19.6233 6.23959 19.6233H3.07615C2.97021 19.6385 2.87928 19.7294 2.87928 19.8353Z" fill="white"/>
<path d="M4.77133 18.3215C4.75602 18.4426 4.66524 18.5334 4.54414 18.5334L3.13633 18.4275C3.01539 18.4123 2.92461 18.3064 2.93961 18.1853C2.95477 18.0642 3.04571 17.9734 3.1668 17.9734L4.57446 18.0793C4.68039 18.0945 4.77133 18.2004 4.77133 18.3215Z" fill="#E2E2E2"/>
<path d="M4.78651 18.3215C4.77135 18.4578 4.66541 18.5486 4.54432 18.5486L3.13651 18.4426C3.01557 18.4275 2.90963 18.3215 2.92479 18.1853C2.93979 18.0492 3.04588 17.9583 3.16698 17.9583L4.57463 18.0642C4.69573 18.0793 4.78651 18.2004 4.78651 18.3215ZM2.93979 18.1853C2.92479 18.2912 3.01557 18.3973 3.12151 18.3973L4.52932 18.5033C4.6351 18.5033 4.72604 18.4275 4.7412 18.3064C4.75635 18.2004 4.66541 18.0945 4.55948 18.0945L3.15166 17.9886C3.04588 17.9886 2.95495 18.0792 2.93979 18.1853Z" fill="white"/>
<path d="M6.72399 17.2165C6.69368 17.3376 6.58774 17.4133 6.46665 17.3982L3.36368 16.7624C3.24258 16.7321 3.1668 16.6261 3.19711 16.5051C3.22743 16.384 3.33336 16.3082 3.45446 16.3235L6.55758 16.9441C6.66352 16.9743 6.73915 17.0954 6.72399 17.2165Z" fill="#F3F3F3"/>
<path d="M6.73918 17.2164C6.70887 17.3527 6.58778 17.4285 6.46668 17.4133L3.36371 16.7927C3.24262 16.7624 3.15184 16.6413 3.18215 16.5052C3.21231 16.3688 3.3334 16.2932 3.4545 16.3083L6.55762 16.9289C6.67871 16.9592 6.75434 17.0803 6.73918 17.2164ZM3.21231 16.505C3.19715 16.611 3.25762 16.7169 3.36371 16.7472L6.46684 17.3678C6.57278 17.383 6.67871 17.3225 6.70903 17.2013C6.72403 17.0953 6.66356 16.9894 6.55746 16.9591L3.45465 16.3386C3.33356 16.3235 3.24262 16.3991 3.21231 16.505Z" fill="white"/>
<path d="M5.36179 15.4002C5.35484 15.429 5.34228 15.4562 5.32482 15.4802C5.30736 15.5042 5.28535 15.5244 5.26004 15.5399C5.23473 15.5554 5.20662 15.5657 5.17732 15.5703C5.14803 15.5748 5.11811 15.5736 5.08929 15.5666L3.72695 15.1882C3.60585 15.1579 3.54539 15.0368 3.57554 14.9157C3.58249 14.8868 3.59505 14.8597 3.61251 14.8357C3.62997 14.8117 3.65199 14.7914 3.6773 14.776C3.7026 14.7605 3.73071 14.7502 3.76001 14.7456C3.78931 14.741 3.81922 14.7423 3.84804 14.7493L5.21039 15.1277C5.33148 15.1579 5.39195 15.2791 5.36179 15.4002Z" fill="#F3F3F3"/>
<path d="M5.3768 15.4002C5.34665 15.5211 5.2104 15.6121 5.0893 15.5666L3.72696 15.1882C3.60586 15.1578 3.53008 15.0216 3.5604 14.9007C3.59071 14.7794 3.72696 14.6886 3.84805 14.7341L5.2104 15.1125C5.33149 15.1428 5.40727 15.2641 5.3768 15.4002ZM3.60586 14.9003C3.57555 15.0064 3.63618 15.1275 3.74211 15.1577L5.10446 15.5361C5.2104 15.5664 5.31633 15.5058 5.34665 15.3847C5.3768 15.2788 5.31633 15.1577 5.2104 15.1275L3.84805 14.7491C3.74211 14.7339 3.63618 14.7943 3.60586 14.9003Z" fill="white"/>
<path d="M7.49625 14.6739C7.45093 14.7948 7.31453 14.8403 7.20875 14.7948L4.28718 13.5839C4.18125 13.5385 4.12078 13.4023 4.16609 13.2964C4.21156 13.1753 4.34781 13.1298 4.45375 13.1753L7.37515 14.3862C7.49625 14.4315 7.54172 14.5679 7.49625 14.6739Z" fill="#F3F3F3"/>
<path d="M7.51098 14.6887C7.48882 14.7469 7.44449 14.7939 7.38773 14.8194C7.33097 14.8449 7.2664 14.8469 7.20817 14.8249L4.28676 13.614C4.16567 13.5687 4.12036 13.4324 4.16567 13.2962C4.18784 13.238 4.23216 13.191 4.28892 13.1655C4.34568 13.1399 4.41025 13.1379 4.46848 13.1599L7.38989 14.3709C7.51098 14.4313 7.55629 14.5678 7.51098 14.6887ZM4.19598 13.3113C4.15067 13.4173 4.19598 13.5384 4.30192 13.5837L7.22333 14.7946C7.32926 14.8401 7.4352 14.7795 7.48067 14.6735C7.52598 14.5676 7.48067 14.4465 7.37473 14.4012L4.45333 13.1903C4.34739 13.1599 4.22629 13.2054 4.19598 13.3113Z" fill="white"/>
<path d="M6.51194 12.6301C6.45147 12.736 6.33038 12.7815 6.22444 12.736L4.96804 12.1004C4.8621 12.0549 4.81663 11.9187 4.87726 11.7976C4.93772 11.6916 5.05882 11.6462 5.16476 11.6916L6.42101 12.3274C6.5271 12.3879 6.57257 12.5243 6.51194 12.6301Z" fill="#F3F3F3"/>
<path d="M6.52721 12.6454C6.46658 12.7665 6.33033 12.8119 6.20924 12.7513L4.95299 12.1155C4.8319 12.0551 4.78643 11.9188 4.84705 11.7977C4.90752 11.6766 5.04393 11.6312 5.16487 11.6918L6.42112 12.3276C6.54237 12.3729 6.58768 12.5244 6.52721 12.6454ZM4.89237 11.8129C4.84705 11.9188 4.87737 12.0399 4.9833 12.0854L6.23955 12.7212C6.33049 12.7665 6.45158 12.7212 6.51205 12.6302C6.55737 12.5243 6.52721 12.4032 6.42127 12.3577L5.14955 11.7222C5.05877 11.6769 4.93768 11.7071 4.89221 11.813L4.89237 11.8129Z" fill="white"/>
<path d="M8.73696 12.3425C8.66133 12.4486 8.54024 12.4789 8.4343 12.4031L5.81555 10.6625C5.70977 10.6019 5.69461 10.4656 5.75508 10.3597C5.81571 10.2538 5.95196 10.2234 6.0579 10.2991L8.69165 12.055C8.78243 12.1156 8.81274 12.2519 8.73696 12.3425Z" fill="#F3F3F3"/>
<path d="M8.75242 12.3577C8.67679 12.4638 8.52538 12.4939 8.4196 12.4335L5.80085 10.6775C5.69492 10.6019 5.6646 10.4657 5.74023 10.3447C5.81601 10.2386 5.96742 10.2083 6.07335 10.2689L8.69195 12.0247C8.81304 12.1005 8.8282 12.2517 8.75242 12.3577ZM5.77054 10.3597C5.71007 10.4505 5.72523 10.5867 5.81585 10.6472L8.44976 12.4033C8.54054 12.4639 8.66163 12.4336 8.72226 12.3428C8.78273 12.2519 8.76757 12.1157 8.67695 12.0552L6.04288 10.2992C5.9521 10.2386 5.83117 10.2689 5.77054 10.3597Z" fill="white"/>
<path d="M8.17729 10.1479C8.10167 10.2387 7.96542 10.269 7.87464 10.1932L6.76964 9.33054C6.67886 9.25476 6.6637 9.11851 6.73932 9.02773C6.81495 8.93694 6.9512 8.90663 7.04214 8.98241L8.14698 9.84507C8.23792 9.92085 8.25307 10.0569 8.17729 10.1479Z" fill="#F3F3F3"/>
<path d="M8.19228 10.1628C8.11665 10.2688 7.96525 10.284 7.85931 10.2082L6.75431 9.34557C6.64837 9.26994 6.63321 9.11854 6.709 9.01275C6.78462 8.90666 6.93603 8.8915 7.04181 8.96729L8.14681 9.82994C8.2529 9.90572 8.26806 10.057 8.19228 10.1631V10.1628ZM6.73915 9.0276C6.66353 9.11838 6.67868 9.23947 6.76946 9.3151L7.87446 10.1781C7.96525 10.2385 8.08634 10.2234 8.16196 10.1326C8.23775 10.0418 8.22259 9.92072 8.13181 9.8451L7.02681 8.98213C6.93603 8.92166 6.81462 8.93682 6.73915 9.0276Z" fill="white"/>
<path d="M10.4324 10.2992C10.3418 10.3901 10.2054 10.3901 10.1298 10.2992L7.8746 8.07415C7.78382 7.98337 7.79882 7.84712 7.8746 7.77134C7.96538 7.68071 8.10163 7.68071 8.17726 7.77134L10.4176 9.99649C10.5083 10.0721 10.5083 10.2235 10.4327 10.2993L10.4324 10.2992Z" fill="#F3F3F3"/>
<path d="M10.4325 10.3143C10.3881 10.3579 10.3283 10.3823 10.2661 10.3823C10.2038 10.3823 10.1441 10.3579 10.0997 10.3143L7.85921 8.08899C7.81551 8.04457 7.79102 7.98475 7.79102 7.92243C7.79102 7.86011 7.81551 7.80029 7.85921 7.75587C7.90363 7.71221 7.96342 7.68774 8.0257 7.68774C8.08798 7.68774 8.14777 7.71221 8.19218 7.75587L10.4325 9.98102C10.5384 10.0718 10.5384 10.2232 10.4325 10.314V10.3143ZM7.88984 7.78618C7.81406 7.86196 7.81406 7.99821 7.88984 8.07368L10.13 10.2988C10.2058 10.3746 10.3419 10.3746 10.4175 10.2988C10.4933 10.2232 10.4933 10.087 10.4175 10.0113L8.17734 7.77118C8.10171 7.69555 7.98046 7.6954 7.88984 7.78618Z" fill="white"/>
<path d="M10.2966 8.04376C10.2058 8.11954 10.0695 8.11954 9.99374 8.0286L9.0703 6.96907C8.99483 6.87829 9.00983 6.74204 9.10077 6.66642C9.19139 6.59063 9.3278 6.59063 9.40343 6.68142L10.3269 7.7411C10.4025 7.81673 10.3873 7.95298 10.2966 8.04376Z" fill="#F3F3F3"/>
<path d="M10.3116 8.0437C10.2057 8.13449 10.0694 8.11949 9.97848 8.02855L9.0552 6.96902C8.96442 6.87823 8.97958 6.72683 9.08551 6.63605C9.19145 6.54511 9.3277 6.56027 9.41848 6.6512L10.3419 7.71058C10.4175 7.81667 10.4175 7.96808 10.3116 8.0437ZM9.10067 6.66636C9.00973 6.74199 9.00973 6.86308 9.07036 6.95386L9.99379 8.01339C10.0694 8.08917 10.1905 8.10433 10.2813 8.02855C10.3721 7.95292 10.3721 7.83167 10.3116 7.74105L9.38817 6.68136C9.31254 6.59073 9.19129 6.59074 9.10067 6.66636Z" fill="white"/>
<path d="M12.4759 8.61899C12.37 8.69461 12.2337 8.6643 12.1731 8.55836L10.4022 5.93961C10.3415 5.83368 10.3718 5.69743 10.4626 5.63696C10.5686 5.56133 10.7048 5.59164 10.7654 5.69758L12.5212 8.31618C12.597 8.42211 12.5667 8.55852 12.4759 8.61899Z" fill="#F3F3F3"/>
<path d="M12.4758 8.63397C12.3699 8.70975 12.2185 8.67928 12.1427 8.5735L10.3869 5.95475C10.3113 5.84881 10.3416 5.69756 10.4625 5.62194C10.5685 5.54616 10.7199 5.57647 10.7957 5.68241L12.5514 8.301C12.6271 8.42209 12.5968 8.55834 12.4758 8.63397ZM10.4775 5.65209C10.3868 5.71256 10.3564 5.83366 10.4171 5.92459L12.1729 8.54319C12.2335 8.63397 12.3546 8.64913 12.4604 8.5885C12.5513 8.52803 12.5816 8.40694 12.521 8.31616L10.7654 5.71256C10.7047 5.62194 10.5685 5.59147 10.4779 5.65209H10.4775Z" fill="white"/>
<path d="M12.7937 6.37877C12.6878 6.43924 12.5515 6.40908 12.4911 6.30314L11.7947 5.07705C11.7342 4.97111 11.7795 4.83486 11.8856 4.77424C11.9915 4.71377 12.1278 4.74392 12.1883 4.85002L12.8845 6.07596C12.93 6.18189 12.8995 6.31814 12.7937 6.37877Z" fill="#F3F3F3"/>
<path d="M12.7939 6.39392C12.6728 6.45439 12.5366 6.42424 12.4761 6.31814L11.7797 5.09221C11.7193 4.98611 11.7496 4.83486 11.8707 4.77424C11.9918 4.71377 12.128 4.74392 12.1885 4.85002L12.8847 6.07596C12.9453 6.18189 12.9149 6.31814 12.7939 6.39392ZM11.8858 4.78939C11.7949 4.84986 11.7496 4.97096 11.81 5.06189L12.5064 6.28799C12.5669 6.37861 12.688 6.40908 12.7788 6.36361C12.8697 6.30314 12.915 6.18189 12.8546 6.09111L12.1582 4.86502C12.1128 4.77439 11.9766 4.72877 11.8858 4.78939Z" fill="white"/>
<path d="M14.8071 7.37781C14.6862 7.42313 14.5649 7.37781 14.5196 7.27188L13.2935 4.35031C13.2482 4.24438 13.3087 4.10813 13.4146 4.06266C13.5357 4.01735 13.6568 4.06266 13.7021 4.1686L14.9282 7.09C14.9737 7.19594 14.9132 7.33219 14.8071 7.3775V7.37781Z" fill="#F3F3F3"/>
<path d="M14.8071 7.39306C14.6862 7.43837 14.5499 7.39306 14.4893 7.27181L13.2632 4.35056C13.2412 4.29233 13.2432 4.22776 13.2688 4.171C13.2943 4.11424 13.3413 4.06992 13.3995 4.04775C13.5206 4.00244 13.6568 4.04775 13.7174 4.16884L14.9434 7.09025C14.9888 7.19619 14.9282 7.33244 14.8071 7.39306ZM13.4298 4.07806C13.3238 4.12337 13.2784 4.24462 13.3238 4.33541L14.5498 7.25666C14.5951 7.36259 14.7162 7.40791 14.8221 7.36259C14.9281 7.31728 14.9737 7.19603 14.9281 7.10525L13.7021 4.18384C13.6415 4.07791 13.5356 4.03244 13.4296 4.07791L13.4298 4.07806Z" fill="white"/>
<path d="M15.5486 5.22839C15.4275 5.2737 15.3064 5.21308 15.2611 5.09214L14.822 3.75995C14.7767 3.65402 14.8523 3.51777 14.9582 3.48761C15.0642 3.4573 15.2004 3.50277 15.2457 3.62386L15.6848 4.95589C15.7301 5.06183 15.6697 5.18308 15.5486 5.22839Z" fill="#F3F3F3"/>
<path d="M15.5641 5.24332C15.5059 5.26526 15.4413 5.26324 15.3846 5.23771C15.3279 5.21217 15.2836 5.1652 15.2614 5.10707L14.8224 3.77504C14.777 3.65395 14.8527 3.51785 14.9739 3.47239C15.0321 3.45045 15.0967 3.45247 15.1534 3.478C15.2101 3.50354 15.2544 3.55051 15.2766 3.60864L15.7155 4.94067C15.7458 5.06176 15.6852 5.19801 15.5641 5.24332ZM14.9738 3.5027C14.8678 3.53285 14.8072 3.65395 14.8375 3.75989L15.2766 5.09207C15.3067 5.19801 15.4278 5.24332 15.5339 5.21301C15.6399 5.18286 15.7003 5.06176 15.67 4.95582L15.2311 3.62364C15.2234 3.59794 15.2104 3.57416 15.1928 3.55384C15.1753 3.53351 15.1537 3.51711 15.1294 3.50568C15.1052 3.49426 15.0788 3.48808 15.0519 3.48754C15.0251 3.48699 14.9985 3.49211 14.9738 3.50254V3.5027Z" fill="white"/>
<path d="M17.335 6.60583C17.2139 6.63615 17.0928 6.56052 17.0777 6.43927L16.4419 3.3363C16.4116 3.21521 16.5025 3.10927 16.6235 3.07896C16.7447 3.04865 16.8657 3.12427 16.8808 3.24552L17.5168 6.34865C17.5318 6.45443 17.4561 6.57552 17.335 6.60583Z" fill="#F3F3F3"/>
<path d="M17.3351 6.62092C17.1988 6.65124 17.0777 6.5603 17.0474 6.43921L16.4116 3.33624C16.3813 3.21514 16.4723 3.07889 16.5934 3.06374C16.7296 3.03342 16.8507 3.12436 16.8809 3.24546L17.5168 6.34858C17.547 6.46952 17.4713 6.59077 17.3351 6.62092ZM16.6237 3.09405C16.5176 3.10921 16.4419 3.21514 16.4571 3.33624L17.0929 6.43936C17.108 6.54514 17.229 6.62092 17.3351 6.59061C17.441 6.57546 17.5166 6.46952 17.5015 6.34842L16.8657 3.2453C16.8355 3.13952 16.7298 3.07889 16.6237 3.09405Z" fill="white"/>
<path d="M18.4855 4.63791C18.3644 4.65306 18.2585 4.57744 18.2281 4.45635L18.0466 3.06369C18.0314 2.9426 18.1222 2.83666 18.2435 2.8215C18.3644 2.80635 18.4703 2.88213 18.5006 3.00322L18.6822 4.39572C18.6974 4.51681 18.6066 4.62275 18.4855 4.63791Z" fill="#F3F3F3"/>
<path d="M18.4855 4.65303C18.3492 4.66819 18.2282 4.5774 18.213 4.45615L18.0314 3.06365C18.0163 2.94256 18.1071 2.82147 18.2433 2.80631C18.3796 2.79131 18.5007 2.88209 18.5158 3.00319L18.6974 4.39569C18.7125 4.51678 18.6217 4.63787 18.4855 4.65303ZM18.2585 2.83662C18.1525 2.85178 18.0616 2.95772 18.0767 3.06365L18.2585 4.45631C18.2736 4.56225 18.3796 4.63787 18.4855 4.62272C18.5914 4.60772 18.6824 4.50162 18.6672 4.39569L18.4855 3.00319C18.4703 2.89725 18.3644 2.82147 18.2585 2.83662Z" fill="white"/>
<path d="M20.1201 37.8025C30.0181 37.8025 38.042 29.7786 38.042 19.8806C38.042 9.98264 30.0181 1.95874 20.1201 1.95874C10.2221 1.95874 2.19824 9.98264 2.19824 19.8806C2.19824 29.7786 10.2221 37.8025 20.1201 37.8025Z" fill="url(#paint2_linear_183_798)" fill-opacity="0.2"/>
<g filter="url(#filter1_d_183_798)">
<path d="M32.5321 8.51294L18.0765 17.7767H18.0613V17.7917L18.0462 17.8068L9.0249 32.6864L22.2846 22.015L22.2997 22V21.9848L32.5322 8.5131L32.5321 8.51294Z" fill="black" fill-opacity="0.05"/>
</g>
<path d="M32.2598 7.65015L17.9707 17.8069L22.209 22.0148L32.2598 7.65015Z" fill="#CD151E"/>
<path d="M17.9858 17.7767L20.1202 19.8806L32.2597 7.65015L17.9858 17.7767Z" fill="#FA5153"/>
<path d="M17.9858 17.7768L22.2241 21.9846L7.93506 32.1415L17.9858 17.7766V17.7768Z" fill="#ACACAC"/>
<path d="M7.93506 32.1415L20.1201 19.8807L17.9857 17.7766L7.93506 32.1415Z" fill="#EEEEEE"/>
</g>
<defs>
<filter id="filter0_d_183_798" x="-3.36084" y="-1.47925" width="46.75" height="46.75" filterUnits="userSpaceOnUse" color-interpolation-filters="sRGB">
<feFlood flood-opacity="0" result="BackgroundImageFix"/>
<feColorMatrix in="SourceAlpha" type="matrix" values="0 0 0 0 0 0 0 0 0 0 0 0 0 0 0 0 0 0 127 0" result="hardAlpha"/>
<feOffset dy="2"/>
<feGaussianBlur stdDeviation="2"/>
<feColorMatrix type="matrix" values="0 0 0 0 0 0 0 0 0 0 0 0 0 0 0 0 0 0 0.266007 0"/>
<feBlend mode="normal" in2="BackgroundImageFix" result="effect1_dropShadow_183_798"/>
<feBlend mode="normal" in="SourceGraphic" in2="effect1_dropShadow_183_798" result="shape"/>
</filter>
<filter id="filter1_d_183_798" x="5.0249" y="5.51294" width="31.5073" height="32.1733" filterUnits="userSpaceOnUse" color-interpolation-filters="sRGB">
<feFlood flood-opacity="0" result="BackgroundImageFix"/>
<feColorMatrix in="SourceAlpha" type="matrix" values="0 0 0 0 0 0 0 0 0 0 0 0 0 0 0 0 0 0 127 0" result="hardAlpha"/>
<feOffset dy="1"/>
<feGaussianBlur stdDeviation="2"/>
<feColorMatrix type="matrix" values="0 0 0 0 0 0 0 0 0 0 0 0 0 0 0 0 0 0 0.0509804 0"/>
<feBlend mode="normal" in2="BackgroundImageFix" result="effect1_dropShadow_183_798"/>
<feBlend mode="normal" in="SourceGraphic" in2="effect1_dropShadow_183_798" result="shape"/>
</filter>
<linearGradient id="paint0_linear_183_798" x1="1938.14" y1="3875.52" x2="1938.14" y2="0.520752" gradientUnits="userSpaceOnUse">
<stop offset="0.25" stop-color="#DBDBDA"/>
<stop offset="1" stop-color="white"/>
</linearGradient>
<radialGradient id="paint1_radial_183_798" cx="0" cy="0" r="1" gradientUnits="userSpaceOnUse" gradientTransform="translate(2046.08 1400.49) scale(2187.62)">
<stop stop-color="#2ABCE1"/>
<stop offset="0.11363" stop-color="#2ABBE1"/>
<stop offset="1" stop-color="#3375F8"/>
</radialGradient>
<linearGradient id="paint2_linear_183_798" x1="1760.33" y1="1281.69" x2="923.849" y2="2782.43" gradientUnits="userSpaceOnUse">
<stop stop-opacity="0"/>
<stop offset="1"/>
</linearGradient>
<clipPath id="clip0_183_798">
<rect width="40" height="40" fill="white" transform="translate(0.0141602 0.208252)"/>
</clipPath>
</defs>
</svg>
