<svg width="38" height="51" viewBox="0 0 38 51" fill="none" xmlns="http://www.w3.org/2000/svg">
<path fill-rule="evenodd" clip-rule="evenodd" d="M23.8535 45.8128L5.10352 38.0003V13.0003L23.8535 5.18783V45.8128ZM2.33789 41.9253C1.76866 41.6879 1.28242 41.2873 0.940425 40.774C0.598427 40.2607 0.415964 39.6577 0.416016 39.041V11.9597C0.415964 11.3429 0.598427 10.7399 0.940425 10.2267C1.28242 9.71338 1.76866 9.31279 2.33789 9.07533L22.0504 0.859702C22.7628 0.562806 23.5376 0.446425 24.3058 0.520894C25.074 0.595362 25.812 0.858375 26.4541 1.28658C27.0963 1.71478 27.6227 2.29492 27.9868 2.97549C28.3509 3.65606 28.5412 4.416 28.541 5.18783V6.75033H32.4473C35.466 6.75033 37.916 9.1972 37.916 12.2191V38.7816C37.916 40.232 37.3398 41.623 36.3143 42.6486C35.2887 43.6742 33.8977 44.2503 32.4473 44.2503H28.541V45.8128C28.5412 46.5847 28.3509 47.3446 27.9868 48.0252C27.6227 48.7057 27.0963 49.2859 26.4541 49.7141C25.812 50.1423 25.074 50.4053 24.3058 50.4798C23.5376 50.5542 22.7628 50.4378 22.0504 50.141L2.33789 41.9253ZM28.541 39.5628H32.4473C32.6545 39.5628 32.8532 39.4805 32.9997 39.334C33.1462 39.1875 33.2285 38.9888 33.2285 38.7816V12.2191C33.2285 12.0119 33.1462 11.8132 32.9997 11.6666C32.8532 11.5201 32.6545 11.4378 32.4473 11.4378H28.541V39.5628Z" fill="white"/>
</svg>
