<svg width="56" height="51" viewBox="0 0 56 51" fill="none" xmlns="http://www.w3.org/2000/svg">
<path d="M35.7618 20.1944C38.4451 20.1944 40.6229 22.3722 40.6229 25.0556V38.2472C40.6229 41.5632 39.3056 44.7433 36.9609 47.088C34.6162 49.4327 31.436 50.75 28.1201 50.75C24.8042 50.75 21.624 49.4327 19.2793 47.088C16.9346 44.7433 15.6173 41.5632 15.6173 38.2472V25.0556C15.6173 22.3722 17.7923 20.1944 20.4784 20.1944H35.7618ZM35.7618 24.3611H20.4784C20.2942 24.3611 20.1176 24.4343 19.9874 24.5645C19.8571 24.6947 19.784 24.8714 19.784 25.0556V38.2472C19.784 40.4581 20.6623 42.5784 22.2256 44.1417C23.7889 45.7051 25.9092 46.5833 28.1201 46.5833C30.331 46.5833 32.4513 45.7051 34.0146 44.1417C35.5779 42.5784 36.4562 40.4581 36.4562 38.2472V25.0556C36.4562 24.8714 36.383 24.6947 36.2528 24.5645C36.1226 24.4343 35.9459 24.3611 35.7618 24.3611ZM5.19509 20.1944H14.5868C13.6068 21.378 13.0083 22.8307 12.8701 24.3611H5.19509C5.01092 24.3611 4.83428 24.4343 4.70405 24.5645C4.57382 24.6947 4.50065 24.8714 4.50065 25.0556V34.0806C4.50047 35.1302 4.73816 36.1663 5.19585 37.1109C5.65354 38.0556 6.31934 38.8842 7.14324 39.5346C7.96713 40.185 8.9277 40.6403 9.95278 40.8662C10.9779 41.0921 12.0408 41.0827 13.0618 40.8389C13.2979 42.2389 13.7284 43.575 14.3201 44.8167C12.6737 45.2571 10.948 45.313 9.27647 44.98C7.60497 44.647 6.03245 43.9341 4.6805 42.8963C3.32855 41.8585 2.2334 40.5237 1.47972 38.995C0.726033 37.4664 0.334019 35.7849 0.333984 34.0806V25.0556C0.333984 22.3722 2.51176 20.1944 5.19509 20.1944ZM41.6534 20.1944H51.0284C53.7118 20.1944 55.8895 22.3722 55.8895 25.0556V34.0833C55.8899 35.7866 55.4987 37.4671 54.7462 38.9951C53.9936 40.523 52.8999 41.8575 51.5494 42.8955C50.199 43.9334 48.628 44.647 46.9579 44.9811C45.2877 45.3152 43.5631 45.2608 41.9173 44.8222C42.5118 43.5778 42.9423 42.2417 43.1812 40.8417C44.2009 41.0827 45.2619 41.0898 46.2847 40.8625C47.3075 40.6352 48.2657 40.1795 49.0874 39.5293C49.909 38.8792 50.573 38.0516 51.0294 37.1084C51.4858 36.1653 51.7229 35.1311 51.7229 34.0833V25.0556C51.7229 24.8714 51.6497 24.6947 51.5195 24.5645C51.3892 24.4343 51.2126 24.3611 51.0284 24.3611H43.3701C43.2319 22.8307 42.6334 21.378 41.6534 20.1944ZM28.1118 0.75C30.3219 0.75 32.4415 1.62797 34.0043 3.19078C35.5671 4.75358 36.4451 6.8732 36.4451 9.08333C36.4451 11.2935 35.5671 13.4131 34.0043 14.9759C32.4415 16.5387 30.3219 17.4167 28.1118 17.4167C25.9016 17.4167 23.782 16.5387 22.2192 14.9759C20.6564 13.4131 19.7784 11.2935 19.7784 9.08333C19.7784 6.8732 20.6564 4.75358 22.2192 3.19078C23.782 1.62797 25.9016 0.75 28.1118 0.75ZM46.1673 3.52778C48.0091 3.52778 49.7754 4.25942 51.0778 5.56176C52.3801 6.86409 53.1118 8.63044 53.1118 10.4722C53.1118 12.314 52.3801 14.0803 51.0778 15.3827C49.7754 16.685 48.0091 17.4167 46.1673 17.4167C44.3255 17.4167 42.5592 16.685 41.2569 15.3827C39.9545 14.0803 39.2229 12.314 39.2229 10.4722C39.2229 8.63044 39.9545 6.86409 41.2569 5.56176C42.5592 4.25942 44.3255 3.52778 46.1673 3.52778ZM10.0562 3.52778C11.898 3.52778 13.6643 4.25942 14.9667 5.56176C16.269 6.86409 17.0006 8.63044 17.0006 10.4722C17.0006 12.314 16.269 14.0803 14.9667 15.3827C13.6643 16.685 11.898 17.4167 10.0562 17.4167C8.21442 17.4167 6.44808 16.685 5.14574 15.3827C3.84341 14.0803 3.11176 12.314 3.11176 10.4722C3.11176 8.63044 3.84341 6.86409 5.14574 5.56176C6.44808 4.25942 8.21442 3.52778 10.0562 3.52778ZM28.1118 4.91667C27.0067 4.91667 25.9469 5.35565 25.1655 6.13705C24.3841 6.91846 23.9451 7.97826 23.9451 9.08333C23.9451 10.1884 24.3841 11.2482 25.1655 12.0296C25.9469 12.811 27.0067 13.25 28.1118 13.25C29.2168 13.25 30.2766 12.811 31.058 12.0296C31.8394 11.2482 32.2784 10.1884 32.2784 9.08333C32.2784 7.97826 31.8394 6.91846 31.058 6.13705C30.2766 5.35565 29.2168 4.91667 28.1118 4.91667ZM46.1673 7.69444C45.4306 7.69444 44.7241 7.9871 44.2031 8.50804C43.6822 9.02897 43.3895 9.73551 43.3895 10.4722C43.3895 11.2089 43.6822 11.9155 44.2031 12.4364C44.7241 12.9573 45.4306 13.25 46.1673 13.25C46.904 13.25 47.6106 12.9573 48.1315 12.4364C48.6524 11.9155 48.9451 11.2089 48.9451 10.4722C48.9451 9.73551 48.6524 9.02897 48.1315 8.50804C47.6106 7.9871 46.904 7.69444 46.1673 7.69444ZM10.0562 7.69444C9.31949 7.69444 8.61296 7.9871 8.09202 8.50804C7.57109 9.02897 7.27843 9.73551 7.27843 10.4722C7.27843 11.2089 7.57109 11.9155 8.09202 12.4364C8.61296 12.9573 9.31949 13.25 10.0562 13.25C10.7929 13.25 11.4995 12.9573 12.0204 12.4364C12.5413 11.9155 12.834 11.2089 12.834 10.4722C12.834 9.73551 12.5413 9.02897 12.0204 8.50804C11.4995 7.9871 10.7929 7.69444 10.0562 7.69444Z" fill="white"/>
</svg>
