<svg width="47" height="51" viewBox="0 0 47 51" fill="none" xmlns="http://www.w3.org/2000/svg">
<path d="M10.9097 0.500714C10.8558 0.50199 10.8023 0.505287 10.7497 0.512413C7.59571 0.922103 5.13321 4.35054 5.13321 8.48807C5.13321 10.7798 5.91919 12.8261 7.12922 14.2846C0.569294 15.5176 0.0732422 26.5625 0.0732422 34.3167H4.62237L5.82932 50.4999H17.3883L18.4556 34.3168H22.773C22.773 26.5412 22.9293 15.3019 15.7636 14.1918C16.9218 12.7404 17.6666 10.7232 17.6666 8.48807C17.6666 4.07465 14.854 0.512307 11.3997 0.512307C11.2377 0.512307 11.0714 0.496778 10.9096 0.500607L10.9097 0.500714ZM36.4173 0.500714C36.3633 0.50199 36.3098 0.505287 36.2573 0.512413C33.1033 0.922209 30.6408 4.35054 30.6408 8.48818C30.6408 10.7799 31.4268 12.8262 32.6368 14.2847C26.0769 15.5177 25.581 26.5626 25.581 34.3168H28.8061L27.7244 33.102C27.6915 27.5887 27.922 22.9789 30.2779 18.6922L30.1138 34.3168H30.1299L31.3369 50.5H40.485L33.4622 49.2231C32.1991 38.1225 31.505 27.3619 33.0272 16.4266C33.0272 16.4266 34.0328 15.781 35.583 15.0018C34.0773 13.717 33.0781 11.4665 33.0781 8.90276C33.0781 4.90754 35.5027 1.66905 38.4936 1.66905C39.4388 1.66905 40.3272 1.99302 41.1004 2.56161C39.989 1.28744 38.518 0.512307 36.9074 0.512307C36.7454 0.512307 36.579 0.496885 36.4173 0.500714ZM43.7764 18.7206L43.9556 34.378L46.3299 34.3501C46.3629 28.837 46.1321 23.0074 43.7765 18.7209L43.7764 18.7206ZM43.9556 34.378H43.9554L43.9556 34.3786V34.378Z" fill="white"/>
</svg>
