<svg width="52" height="51" viewBox="0 0 52 51" fill="none" xmlns="http://www.w3.org/2000/svg">
<path d="M25.5905 50.5C28.411 50.5 30.7187 48.1923 30.7187 45.3718H20.4623C20.4623 48.1923 22.77 50.5 25.5905 50.5ZM40.9751 35.1154V22.2949C40.9751 14.4231 36.7956 7.83333 29.4366 6.08974V4.34615C29.4366 2.21795 27.7187 0.5 25.5905 0.5C23.4623 0.5 21.7443 2.21795 21.7443 4.34615V6.08974C14.411 7.83333 10.2059 14.3974 10.2059 22.2949V35.1154L5.07765 40.2436V42.8077H46.1033V40.2436L40.9751 35.1154ZM35.8469 37.6795H15.3341V22.2949C15.3341 15.9359 19.2059 10.7564 25.5905 10.7564C31.9751 10.7564 35.8469 15.9359 35.8469 22.2949V37.6795ZM14.2571 4.55128L10.5905 0.884616C4.43662 5.57692 0.385342 12.8077 0.0263672 21.0128H5.15457C5.3362 17.7611 6.249 14.5921 7.825 11.742C9.40101 8.89189 11.5996 6.43398 14.2571 4.55128ZM46.0264 21.0128H51.1546C50.77 12.8077 46.7187 5.57692 40.5905 0.884616L36.9494 4.55128C39.5956 6.44325 41.7844 8.90387 43.3551 11.7525C44.9258 14.6011 45.8386 17.7653 46.0264 21.0128Z" fill="white"/>
</svg>
