<svg width="50" height="48" viewBox="0 0 50 48" fill="none" xmlns="http://www.w3.org/2000/svg">
<path d="M45.8008 15.2118H24.6094L14.7461 1.19966C14.3555 0.527618 13.8021 0.157995 13.0859 0.0907906C12.3698 0.0235863 11.6862 0.258801 11.0352 0.796436C10.0586 1.8717 9.99349 2.94697 10.8398 4.02224L18.5547 15.2118H4.19922C3.02734 15.2118 2.03451 15.6318 1.2207 16.4718C0.406901 17.3119 0 18.3032 0 19.4456V21.6634C0 23.5451 0.846354 24.822 2.53906 25.494L8.30078 43.74C8.5612 44.6808 9.08203 45.5377 9.86328 46.3106C10.6445 47.0834 11.5234 47.4698 12.5 47.4698H37.5C38.4766 47.4698 39.3555 47.0834 40.1367 46.3106C40.918 45.5377 41.4388 44.6808 41.6992 43.74L47.4609 25.6956C49.1536 25.0236 50 23.7467 50 21.865V19.6472C50 18.3704 49.5931 17.3119 48.7793 16.4718C47.9655 15.6318 46.9727 15.2118 45.8008 15.2118ZM4.19922 19.4456H21.6797L23.1445 21.4618C23.2747 21.4618 23.3398 21.529 23.3398 21.6634H4.19922V19.4456ZM37.6953 42.5303V42.7319C37.6953 42.7991 37.6628 42.8663 37.5977 42.9335C37.5326 43.0007 37.5 43.0679 37.5 43.1351H12.6953C12.5651 43.1351 12.5 43.0007 12.5 42.7319L7.12891 25.8972H42.8711L37.6953 42.5303ZM26.8555 21.6634C27.3112 20.8569 27.5391 20.1177 27.5391 19.4456H45.8008V21.6634H26.8555ZM14.5508 39.3045C14.6159 39.7749 14.8763 40.1782 15.332 40.5142C15.7878 40.8502 16.2435 41.0182 16.6992 41.0182H17.0898C17.6107 40.8838 18.0339 40.5478 18.3594 40.0101C18.6849 39.4725 18.75 38.9349 18.5547 38.3972L16.5039 29.8287C16.3737 29.2911 16.0482 28.8542 15.5273 28.5182C15.0065 28.1822 14.4857 28.115 13.9648 28.3166C13.444 28.451 13.0208 28.787 12.6953 29.3247C12.3698 29.8623 12.3047 30.3663 12.5 30.8368L14.5508 39.3045ZM32.9102 41.0182H33.3008C33.7565 41.0182 34.2122 40.8502 34.668 40.5142C35.1237 40.1782 35.3841 39.7749 35.4492 39.3045L37.5 30.6351C37.6302 30.0975 37.5488 29.5599 37.2559 29.0222C36.9629 28.4846 36.556 28.1822 36.0352 28.115C34.668 27.8462 33.8216 28.3502 33.4961 29.6271L31.4453 38.1956C31.0547 39.5397 31.543 40.4806 32.9102 41.0182ZM25 41.0182C26.3672 41.0182 27.0508 40.279 27.0508 38.8005V30.2319C27.0508 28.8206 26.3672 28.115 25 28.115C23.6328 28.115 22.9492 28.8206 22.9492 30.2319V38.8005C22.9492 40.279 23.6328 41.0182 25 41.0182Z" fill="#5C61F2"/>
</svg>
