<svg width="53" height="48" viewBox="0 0 53 48" fill="none" xmlns="http://www.w3.org/2000/svg">
<path d="M33.6564 18.4722C36.2056 18.4722 38.2744 20.5411 38.2744 23.0903V35.6224C38.2744 38.7725 37.0231 41.7936 34.7956 44.0211C32.5681 46.2486 29.5469 47.5 26.3968 47.5C23.2467 47.5 20.2255 46.2486 17.998 44.0211C15.7706 41.7936 14.5192 38.7725 14.5192 35.6224V23.0903C14.5192 20.5411 16.5854 18.4722 19.1372 18.4722H33.6564ZM33.6564 22.4306H19.1372C18.9623 22.4306 18.7944 22.5001 18.6707 22.6238C18.547 22.7475 18.4775 22.9153 18.4775 23.0903V35.6224C18.4775 37.7227 19.3119 39.737 20.797 41.2222C22.2822 42.7073 24.2965 43.5417 26.3968 43.5417C28.4971 43.5417 30.5114 42.7073 31.9966 41.2222C33.4818 39.737 34.3161 37.7227 34.3161 35.6224V23.0903C34.3161 22.9153 34.2466 22.7475 34.1229 22.6238C33.9992 22.5001 33.8314 22.4306 33.6564 22.4306ZM4.61805 18.4722H13.5401C12.6091 19.5966 12.0406 20.9767 11.9093 22.4306H4.61805C4.44309 22.4306 4.27528 22.5001 4.15156 22.6238C4.02784 22.7475 3.95833 22.9153 3.95833 23.0903V31.664C3.95816 32.6612 4.18397 33.6455 4.61877 34.5429C5.05358 35.4403 5.68609 36.2275 6.46879 36.8454C7.25149 37.4633 8.16403 37.8957 9.13785 38.1104C10.1117 38.325 11.1215 38.3161 12.0914 38.0844C12.3157 39.4144 12.7247 40.6838 13.2868 41.8633C11.7227 42.2818 10.0833 42.3349 8.49536 42.0185C6.90744 41.7022 5.41355 41.0249 4.12919 40.039C2.84484 39.0531 1.80444 37.785 1.08844 36.3328C0.372446 34.8806 3.24577e-05 33.2831 0 31.664V23.0903C0 20.5411 2.06889 18.4722 4.61805 18.4722ZM39.2535 18.4722H48.1597C50.7089 18.4722 52.7778 20.5411 52.7778 23.0903V31.6667C52.7781 33.2847 52.4065 34.8812 51.6916 36.3328C50.9767 37.7844 49.9376 39.0522 48.6547 40.0382C47.3717 41.0242 45.8793 41.7021 44.2927 42.0195C42.706 42.3369 41.0677 42.2853 39.5042 41.8686C40.0689 40.6864 40.4779 39.4171 40.7049 38.0871C41.6736 38.316 42.6815 38.3228 43.6532 38.1069C44.6249 37.891 45.5351 37.458 46.3157 36.8404C47.0963 36.2228 47.727 35.4365 48.1606 34.5405C48.5942 33.6445 48.8194 32.6621 48.8194 31.6667V23.0903C48.8194 22.9153 48.7499 22.7475 48.6262 22.6238C48.5025 22.5001 48.3347 22.4306 48.1597 22.4306H40.8843C40.753 20.9767 40.1845 19.5966 39.2535 18.4722ZM26.3889 0C28.4885 0 30.5022 0.834075 31.9868 2.31874C33.4715 3.8034 34.3056 5.81704 34.3056 7.91667C34.3056 10.0163 33.4715 12.0299 31.9868 13.5146C30.5022 14.9993 28.4885 15.8333 26.3889 15.8333C24.2893 15.8333 22.2756 14.9993 20.791 13.5146C19.3063 12.0299 18.4722 10.0163 18.4722 7.91667C18.4722 5.81704 19.3063 3.8034 20.791 2.31874C22.2756 0.834075 24.2893 0 26.3889 0ZM43.5417 2.63889C45.2914 2.63889 46.9694 3.33395 48.2066 4.57117C49.4438 5.80839 50.1389 7.48642 50.1389 9.23611C50.1389 10.9858 49.4438 12.6638 48.2066 13.9011C46.9694 15.1383 45.2914 15.8333 43.5417 15.8333C41.792 15.8333 40.1139 15.1383 38.8767 13.9011C37.6395 12.6638 36.9444 10.9858 36.9444 9.23611C36.9444 7.48642 37.6395 5.80839 38.8767 4.57117C40.1139 3.33395 41.792 2.63889 43.5417 2.63889ZM9.23611 2.63889C10.9858 2.63889 12.6638 3.33395 13.901 4.57117C15.1383 5.80839 15.8333 7.48642 15.8333 9.23611C15.8333 10.9858 15.1383 12.6638 13.901 13.9011C12.6638 15.1383 10.9858 15.8333 9.23611 15.8333C7.48642 15.8333 5.80839 15.1383 4.57117 13.9011C3.33395 12.6638 2.63889 10.9858 2.63889 9.23611C2.63889 7.48642 3.33395 5.80839 4.57117 4.57117C5.80839 3.33395 7.48642 2.63889 9.23611 2.63889ZM26.3889 3.95833C25.3391 3.95833 24.3323 4.37537 23.5899 5.1177C22.8476 5.86003 22.4306 6.86685 22.4306 7.91667C22.4306 8.96648 22.8476 9.9733 23.5899 10.7156C24.3323 11.458 25.3391 11.875 26.3889 11.875C27.4387 11.875 28.4455 11.458 29.1879 10.7156C29.9302 9.9733 30.3472 8.96648 30.3472 7.91667C30.3472 6.86685 29.9302 5.86003 29.1879 5.1177C28.4455 4.37537 27.4387 3.95833 26.3889 3.95833ZM43.5417 6.59722C42.8418 6.59722 42.1706 6.87525 41.6757 7.37013C41.1808 7.86502 40.9028 8.53623 40.9028 9.23611C40.9028 9.93599 41.1808 10.6072 41.6757 11.1021C42.1706 11.597 42.8418 11.875 43.5417 11.875C44.2415 11.875 44.9128 11.597 45.4076 11.1021C45.9025 10.6072 46.1805 9.93599 46.1805 9.23611C46.1805 8.53623 45.9025 7.86502 45.4076 7.37013C44.9128 6.87525 44.2415 6.59722 43.5417 6.59722ZM9.23611 6.59722C8.53623 6.59722 7.86502 6.87525 7.37013 7.37013C6.87525 7.86502 6.59722 8.53623 6.59722 9.23611C6.59722 9.93599 6.87525 10.6072 7.37013 11.1021C7.86502 11.597 8.53623 11.875 9.23611 11.875C9.93599 11.875 10.6072 11.597 11.1021 11.1021C11.597 10.6072 11.875 9.93599 11.875 9.23611C11.875 8.53623 11.597 7.86502 11.1021 7.37013C10.6072 6.87525 9.93599 6.59722 9.23611 6.59722Z" fill="#ED4C5C"/>
</svg>
