<svg width="52" height="52" viewBox="0 0 52 52" fill="none" xmlns="http://www.w3.org/2000/svg">
<mask id="path-1-outside-1_151_4" maskUnits="userSpaceOnUse" x="0" y="0" width="52" height="52" fill="black">
<rect fill="white" width="52" height="52"/>
<path d="M51 26C51 39.8071 39.8071 51 26 51C12.1929 51 1 39.8071 1 26C1 12.1929 12.1929 1 26 1C39.8071 1 51 12.1929 51 26ZM5.98152 26C5.98152 37.0559 14.9441 46.0185 26 46.0185C37.0559 46.0185 46.0185 37.0559 46.0185 26C46.0185 14.9441 37.0559 5.98152 26 5.98152C14.9441 5.98152 5.98152 14.9441 5.98152 26Z"/>
</mask>
<path d="M51 26C51 39.8071 39.8071 51 26 51C12.1929 51 1 39.8071 1 26C1 12.1929 12.1929 1 26 1C39.8071 1 51 12.1929 51 26ZM5.98152 26C5.98152 37.0559 14.9441 46.0185 26 46.0185C37.0559 46.0185 46.0185 37.0559 46.0185 26C46.0185 14.9441 37.0559 5.98152 26 5.98152C14.9441 5.98152 5.98152 14.9441 5.98152 26Z" fill="#5C61F2"/>
<path d="M51 26C51 39.8071 39.8071 51 26 51C12.1929 51 1 39.8071 1 26C1 12.1929 12.1929 1 26 1C39.8071 1 51 12.1929 51 26ZM5.98152 26C5.98152 37.0559 14.9441 46.0185 26 46.0185C37.0559 46.0185 46.0185 37.0559 46.0185 26C46.0185 14.9441 37.0559 5.98152 26 5.98152C14.9441 5.98152 5.98152 14.9441 5.98152 26Z" stroke="white" stroke-width="2" mask="url(#path-1-outside-1_151_4)"/>
<mask id="path-2-outside-2_151_4" maskUnits="userSpaceOnUse" x="0" y="0" width="52" height="52" fill="black">
<rect fill="white" width="52" height="52"/>
<path d="M51 26C51 30.6106 49.725 35.1313 47.316 39.0625C44.907 42.9936 41.4578 46.182 37.3498 48.2752C33.2417 50.3683 28.6349 51.2847 24.0385 50.9229C19.4422 50.5612 15.0354 48.9354 11.3054 46.2254C7.57535 43.5154 4.6674 39.8267 2.90301 35.5671C1.13863 31.3075 0.586541 26.6429 1.30779 22.0891C2.02904 17.5353 3.99553 13.2697 6.98985 9.7638C9.98417 6.2579 13.8897 3.64833 18.2746 2.22359L19.8139 6.9613C16.3028 8.10214 13.1755 10.1917 10.7778 12.999C8.38016 15.8063 6.80552 19.222 6.22798 22.8684C5.65045 26.5148 6.09253 30.2499 7.50534 33.6607C8.91815 37.0716 11.2467 40.0253 14.2334 42.1953C17.2202 44.3653 20.7489 45.6671 24.4294 45.9568C28.1098 46.2464 31.7987 45.5127 35.0882 43.8366C38.3777 42.1605 41.1396 39.6074 43.0686 36.4596C44.9975 33.3118 46.0185 29.6919 46.0185 26H51Z"/>
</mask>
<path d="M51 26C51 30.6106 49.725 35.1313 47.316 39.0625C44.907 42.9936 41.4578 46.182 37.3498 48.2752C33.2417 50.3683 28.6349 51.2847 24.0385 50.9229C19.4422 50.5612 15.0354 48.9354 11.3054 46.2254C7.57535 43.5154 4.6674 39.8267 2.90301 35.5671C1.13863 31.3075 0.586541 26.6429 1.30779 22.0891C2.02904 17.5353 3.99553 13.2697 6.98985 9.7638C9.98417 6.2579 13.8897 3.64833 18.2746 2.22359L19.8139 6.9613C16.3028 8.10214 13.1755 10.1917 10.7778 12.999C8.38016 15.8063 6.80552 19.222 6.22798 22.8684C5.65045 26.5148 6.09253 30.2499 7.50534 33.6607C8.91815 37.0716 11.2467 40.0253 14.2334 42.1953C17.2202 44.3653 20.7489 45.6671 24.4294 45.9568C28.1098 46.2464 31.7987 45.5127 35.0882 43.8366C38.3777 42.1605 41.1396 39.6074 43.0686 36.4596C44.9975 33.3118 46.0185 29.6919 46.0185 26H51Z" fill="#2ED47E"/>
<path d="M51 26C51 30.6106 49.725 35.1313 47.316 39.0625C44.907 42.9936 41.4578 46.182 37.3498 48.2752C33.2417 50.3683 28.6349 51.2847 24.0385 50.9229C19.4422 50.5612 15.0354 48.9354 11.3054 46.2254C7.57535 43.5154 4.6674 39.8267 2.90301 35.5671C1.13863 31.3075 0.586541 26.6429 1.30779 22.0891C2.02904 17.5353 3.99553 13.2697 6.98985 9.7638C9.98417 6.2579 13.8897 3.64833 18.2746 2.22359L19.8139 6.9613C16.3028 8.10214 13.1755 10.1917 10.7778 12.999C8.38016 15.8063 6.80552 19.222 6.22798 22.8684C5.65045 26.5148 6.09253 30.2499 7.50534 33.6607C8.91815 37.0716 11.2467 40.0253 14.2334 42.1953C17.2202 44.3653 20.7489 45.6671 24.4294 45.9568C28.1098 46.2464 31.7987 45.5127 35.0882 43.8366C38.3777 42.1605 41.1396 39.6074 43.0686 36.4596C44.9975 33.3118 46.0185 29.6919 46.0185 26H51Z" stroke="white" stroke-width="2" mask="url(#path-2-outside-2_151_4)"/>
</svg>
