<svg width="28" height="47" viewBox="0 0 28 47" fill="none" xmlns="http://www.w3.org/2000/svg">
<path fill-rule="evenodd" clip-rule="evenodd" d="M13.6034 2.47368C13.2754 2.47368 12.9608 2.60399 12.7288 2.83595C12.4969 3.0679 12.3666 3.3825 12.3666 3.71053V7.42105H11.1297C9.99277 7.42105 8.86693 7.645 7.81651 8.0801C6.76609 8.5152 5.81165 9.15293 5.00769 9.95689C4.20373 10.7609 3.56599 11.7153 3.13089 12.7657C2.69579 13.8161 2.47185 14.942 2.47185 16.0789C2.47185 17.2159 2.69579 18.3418 3.13089 19.3922C3.56599 20.4426 4.20373 21.397 5.00769 22.201C5.81165 23.005 6.76609 23.6427 7.81651 24.0778C8.86693 24.5129 9.99277 24.7368 11.1297 24.7368H12.3666V37.1053H11.1297C9.8506 37.1054 8.60286 36.7091 7.55827 35.9709C6.51368 35.2326 5.7236 34.1887 5.29679 32.9829C5.24615 32.8254 5.16444 32.6798 5.05651 32.5545C4.94858 32.4292 4.81662 32.3268 4.66843 32.2534C4.52024 32.1799 4.35883 32.137 4.19375 32.1271C4.02868 32.1171 3.86328 32.1404 3.70735 32.1955C3.55142 32.2506 3.40812 32.3364 3.28593 32.4478C3.16374 32.5592 3.06513 32.6941 2.99595 32.8443C2.92677 32.9945 2.88842 33.157 2.88317 33.3223C2.87791 33.4876 2.90585 33.6523 2.96535 33.8066C3.56249 35.4948 4.66823 36.9563 6.13035 37.9901C7.59248 39.0238 9.33909 39.5789 11.1297 39.5789H12.3666V43.2895C12.3666 43.6175 12.4969 43.9321 12.7288 44.1641C12.9608 44.396 13.2754 44.5263 13.6034 44.5263C13.9315 44.5263 14.2461 44.396 14.478 44.1641C14.71 43.9321 14.8403 43.6175 14.8403 43.2895V39.5789H16.0771C18.3733 39.5789 20.5755 38.6668 22.1992 37.0431C23.8228 35.4194 24.735 33.2173 24.735 30.9211C24.735 28.6248 23.8228 26.4227 22.1992 24.799C20.5755 23.1753 18.3733 22.2632 16.0771 22.2632H14.8403V9.89474H16.0771C17.3562 9.89457 18.604 10.2909 19.6486 11.0291C20.6932 11.7674 21.4832 12.8113 21.9101 14.0171C21.9607 14.1746 22.0424 14.3202 22.1503 14.4455C22.2583 14.5708 22.3902 14.6732 22.5384 14.7466C22.6866 14.8201 22.848 14.863 23.0131 14.873C23.1782 14.8829 23.3436 14.8596 23.4995 14.8045C23.6554 14.7494 23.7987 14.6636 23.9209 14.5522C24.0431 14.4408 24.1417 14.3059 24.2109 14.1557C24.2801 14.0055 24.3184 13.843 24.3237 13.6777C24.3289 13.5124 24.301 13.3477 24.2415 13.1934C23.6444 11.5052 22.5386 10.0437 21.0765 9.00995C19.6144 7.97621 17.8678 7.4211 16.0771 7.42105H14.8403V3.71053C14.8403 3.3825 14.71 3.0679 14.478 2.83595C14.2461 2.60399 13.9315 2.47368 13.6034 2.47368ZM9.8929 3.71053C9.8929 2.72643 10.2838 1.78265 10.9797 1.08679C11.6755 0.390929 12.6193 0 13.6034 0C14.5875 0 15.5313 0.390929 16.2272 1.08679C16.923 1.78265 17.3139 2.72643 17.3139 3.71053V5.0154C19.392 5.24854 21.3624 6.06176 23 7.36208C24.6376 8.66239 25.8762 10.3973 26.5742 12.3684C26.7366 12.8278 26.807 13.3147 26.7812 13.8014C26.7555 14.288 26.6341 14.7647 26.4241 15.2044C26.2141 15.6441 25.9195 16.0382 25.5573 16.3641C25.195 16.6899 24.772 16.9412 24.3126 17.1037C23.8532 17.2661 23.3663 17.3364 22.8797 17.3107C22.3931 17.2849 21.9163 17.1636 21.4766 16.9536C21.0369 16.7436 20.6429 16.449 20.317 16.0867C19.9911 15.7245 19.7398 15.3015 19.5774 14.8421C19.3923 14.3202 19.0931 13.8461 18.7015 13.4545C18.3099 13.063 17.8359 12.7637 17.3139 12.5787V19.8575C20.0348 20.1624 22.5479 21.4593 24.3729 23.5003C26.1979 25.5412 27.2069 28.1831 27.2069 30.9211C27.2069 33.659 26.1979 36.3009 24.3729 38.3418C22.5479 40.3828 20.0348 41.6797 17.3139 41.9846V43.2895C17.3139 44.2736 16.923 45.2174 16.2272 45.9132C15.5313 46.6091 14.5875 47 13.6034 47C12.6193 47 11.6755 46.6091 10.9797 45.9132C10.2838 45.2174 9.8929 44.2736 9.8929 43.2895V41.9846C7.81488 41.7515 5.84442 40.9382 4.20684 39.6379C2.56925 38.3376 1.33065 36.6027 0.632663 34.6316C0.470238 34.1722 0.399894 33.6853 0.425644 33.1986C0.451395 32.712 0.572738 32.2353 0.782743 31.7956C1.20687 30.9075 1.96639 30.2244 2.89423 29.8963C3.82206 29.5683 4.84221 29.6223 5.73024 30.0464C6.61827 30.4705 7.30145 31.2301 7.62948 32.1579C7.81452 32.6798 8.11374 33.1539 8.50532 33.5455C8.8969 33.9371 9.37095 34.2363 9.8929 34.4213V27.1425C7.17202 26.8376 4.65892 25.5407 2.83392 23.4997C1.00892 21.4588 0 18.8169 0 16.0789C0 13.341 1.00892 10.6991 2.83392 8.65817C4.65892 6.61721 7.17202 5.32033 9.8929 5.0154V3.71053ZM4.94553 16.0789C4.94553 14.4388 5.59708 12.8658 6.75684 11.7061C7.91661 10.5463 9.48959 9.89474 11.1297 9.89474H12.3666V22.2632H11.1297C9.48959 22.2632 7.91661 21.6116 6.75684 20.4518C5.59708 19.2921 4.94553 17.7191 4.94553 16.0789ZM9.8929 12.5787C9.16869 12.8342 8.54157 13.3081 8.09798 13.935C7.6544 14.5619 7.41618 15.311 7.41618 16.0789C7.41618 16.8469 7.6544 17.596 8.09798 18.2229C8.54157 18.8498 9.16869 19.3237 9.8929 19.5792V12.5787ZM14.8403 24.7368H16.0771C17.7173 24.7368 19.2902 25.3884 20.45 26.5482C21.6098 27.7079 22.2613 29.2809 22.2613 30.9211C22.2613 32.5612 21.6098 34.1342 20.45 35.294C19.2902 36.4537 17.7173 37.1053 16.0771 37.1053H14.8403V24.7368ZM17.3139 27.4208V34.4213C18.0382 34.1658 18.6653 33.6919 19.1089 33.065C19.5525 32.4381 19.7907 31.689 19.7907 30.9211C19.7907 30.1531 19.5525 29.404 19.1089 28.7771C18.6653 28.1502 18.0382 27.6763 17.3139 27.4208Z" fill="#FFBA5C"/>
</svg>
