<svg width="50" height="51" viewBox="0 0 50 51" fill="none" xmlns="http://www.w3.org/2000/svg">
<path d="M10.5 40.0664H15.5C15.775 40.0664 16 39.8414 16 39.5664V10.5664C16 10.2914 15.775 10.0664 15.5 10.0664H10.5C10.225 10.0664 10 10.2914 10 10.5664V39.5664C10 39.8414 10.225 40.0664 10.5 40.0664ZM22.5 22.5664H27.5C27.775 22.5664 28 22.3414 28 22.0664V10.5664C28 10.2914 27.775 10.0664 27.5 10.0664H22.5C22.225 10.0664 22 10.2914 22 10.5664V22.0664C22 22.3414 22.225 22.5664 22.5 22.5664ZM34.5 27.0664H39.5C39.775 27.0664 40 26.8414 40 26.5664V10.5664C40 10.2914 39.775 10.0664 39.5 10.0664H34.5C34.225 10.0664 34 10.2914 34 10.5664V26.5664C34 26.8414 34.225 27.0664 34.5 27.0664ZM48 0.0664062H2C0.89375 0.0664062 0 0.960156 0 2.06641V48.0664C0 49.1727 0.89375 50.0664 2 50.0664H48C49.1063 50.0664 50 49.1727 50 48.0664V2.06641C50 0.960156 49.1063 0.0664062 48 0.0664062ZM45.5 45.5664H4.5V4.56641H45.5V45.5664Z" fill="#2ED47E"/>
</svg>
