<svg width="50" height="51" viewBox="0 0 50 51" fill="none" xmlns="http://www.w3.org/2000/svg">
<path d="M25 22.5664C28.3152 22.5664 31.4946 23.8834 33.8388 26.2276C36.183 28.5718 37.5 31.7512 37.5 35.0664V50.0664H32.5V35.0664C32.5001 33.1534 31.7692 31.3126 30.4568 29.9208C29.1444 28.5289 27.3497 27.6911 25.44 27.5789L25 27.5664C23.087 27.5663 21.2462 28.2972 19.8543 29.6096C18.4625 30.922 17.6247 32.7167 17.5125 34.6264L17.5 35.0664V50.0664H12.5V35.0664C12.5 31.7512 13.817 28.5718 16.1612 26.2276C18.5054 23.8834 21.6848 22.5664 25 22.5664ZM8.75 30.0664C9.4475 30.0664 10.125 30.1489 10.775 30.3014C10.3476 31.5739 10.0944 32.8985 10.0225 34.2389L10 35.0664V35.2814C9.71263 35.1786 9.41373 35.1114 9.11 35.0814L8.75 35.0664C7.81779 35.0665 6.91902 35.4137 6.22895 36.0405C5.53888 36.6672 5.10699 37.5285 5.0175 38.4564L5 38.8164V50.0664H0V38.8164C0 36.4958 0.921872 34.2702 2.56282 32.6292C4.20376 30.9883 6.42936 30.0664 8.75 30.0664ZM41.25 30.0664C43.5706 30.0664 45.7962 30.9883 47.4372 32.6292C49.0781 34.2702 50 36.4958 50 38.8164V50.0664H45V38.8164C45 37.8842 44.6527 36.9854 44.026 36.2954C43.3992 35.6053 42.5379 35.1734 41.61 35.0839L41.25 35.0664C40.8125 35.0664 40.3925 35.1414 40 35.2789V35.0664C40 33.4014 39.73 31.8014 39.2275 30.3064C39.8897 30.1461 40.5687 30.0655 41.25 30.0664ZM8.75 15.0664C10.4076 15.0664 11.9973 15.7249 13.1694 16.897C14.3415 18.0691 15 19.6588 15 21.3164C15 22.974 14.3415 24.5637 13.1694 25.7358C11.9973 26.9079 10.4076 27.5664 8.75 27.5664C7.0924 27.5664 5.50269 26.9079 4.33058 25.7358C3.15848 24.5637 2.5 22.974 2.5 21.3164C2.5 19.6588 3.15848 18.0691 4.33058 16.897C5.50269 15.7249 7.0924 15.0664 8.75 15.0664ZM41.25 15.0664C42.9076 15.0664 44.4973 15.7249 45.6694 16.897C46.8415 18.0691 47.5 19.6588 47.5 21.3164C47.5 22.974 46.8415 24.5637 45.6694 25.7358C44.4973 26.9079 42.9076 27.5664 41.25 27.5664C39.5924 27.5664 38.0027 26.9079 36.8306 25.7358C35.6585 24.5637 35 22.974 35 21.3164C35 19.6588 35.6585 18.0691 36.8306 16.897C38.0027 15.7249 39.5924 15.0664 41.25 15.0664ZM8.75 20.0664C8.41848 20.0664 8.10054 20.1981 7.86612 20.4325C7.6317 20.6669 7.5 20.9849 7.5 21.3164C7.5 21.6479 7.6317 21.9659 7.86612 22.2003C8.10054 22.4347 8.41848 22.5664 8.75 22.5664C9.08152 22.5664 9.39946 22.4347 9.63388 22.2003C9.8683 21.9659 10 21.6479 10 21.3164C10 20.9849 9.8683 20.6669 9.63388 20.4325C9.39946 20.1981 9.08152 20.0664 8.75 20.0664ZM41.25 20.0664C40.9185 20.0664 40.6005 20.1981 40.3661 20.4325C40.1317 20.6669 40 20.9849 40 21.3164C40 21.6479 40.1317 21.9659 40.3661 22.2003C40.6005 22.4347 40.9185 22.5664 41.25 22.5664C41.5815 22.5664 41.8995 22.4347 42.1339 22.2003C42.3683 21.9659 42.5 21.6479 42.5 21.3164C42.5 20.9849 42.3683 20.6669 42.1339 20.4325C41.8995 20.1981 41.5815 20.0664 41.25 20.0664ZM25 0.0664062C27.6522 0.0664063 30.1957 1.11997 32.0711 2.99534C33.9464 4.8707 35 7.41424 35 10.0664C35 12.7186 33.9464 15.2621 32.0711 17.1375C30.1957 19.0128 27.6522 20.0664 25 20.0664C22.3478 20.0664 19.8043 19.0128 17.9289 17.1375C16.0536 15.2621 15 12.7186 15 10.0664C15 7.41424 16.0536 4.8707 17.9289 2.99534C19.8043 1.11997 22.3478 0.0664063 25 0.0664062ZM25 5.06641C23.6739 5.06641 22.4021 5.59319 21.4645 6.53087C20.5268 7.46855 20 8.74032 20 10.0664C20 11.3925 20.5268 12.6643 21.4645 13.6019C22.4021 14.5396 23.6739 15.0664 25 15.0664C26.3261 15.0664 27.5979 14.5396 28.5355 13.6019C29.4732 12.6643 30 11.3925 30 10.0664C30 8.74032 29.4732 7.46855 28.5355 6.53087C27.5979 5.59319 26.3261 5.06641 25 5.06641Z" fill="#FFBA5C"/>
</svg>
