<svg width="50" height="51" viewBox="0 0 50 51" fill="none" xmlns="http://www.w3.org/2000/svg">
<g clip-path="url(#clip0_62_19)">
<path fill-rule="evenodd" clip-rule="evenodd" d="M29.6875 46.0535L10.9375 38.241V13.241L29.6875 5.42855V46.0535ZM8.17188 42.166C7.60264 41.9286 7.11641 41.528 6.77441 41.0147C6.43241 40.5014 6.24995 39.8984 6.25 39.2817V12.2004C6.24995 11.5836 6.43241 10.9806 6.77441 10.4674C7.11641 9.9541 7.60264 9.55351 8.17188 9.31605L27.8844 1.10042C28.5968 0.803529 29.3715 0.687148 30.1398 0.761616C30.908 0.836084 31.6459 1.0991 32.2881 1.5273C32.9302 1.9555 33.4567 2.53565 33.8208 3.21622C34.1848 3.89679 34.3752 4.65672 34.375 5.42855V6.99105H38.2812C41.3 6.99105 43.75 9.43792 43.75 12.4598V39.0223C43.75 40.4727 43.1738 41.8637 42.1482 42.8893C41.1227 43.9149 39.7317 44.491 38.2812 44.491H34.375V46.0535C34.3752 46.8254 34.1848 47.5853 33.8208 48.2659C33.4567 48.9465 32.9302 49.5266 32.2881 49.9548C31.6459 50.383 30.908 50.646 30.1398 50.7205C29.3715 50.7949 28.5968 50.6786 27.8844 50.3817L8.17188 42.166ZM34.375 39.8035H38.2812C38.4884 39.8035 38.6872 39.7212 38.8337 39.5747C38.9802 39.4282 39.0625 39.2295 39.0625 39.0223V12.4598C39.0625 12.2526 38.9802 12.0539 38.8337 11.9074C38.6872 11.7609 38.4884 11.6785 38.2812 11.6785H34.375V39.8035Z" fill="#5C61F2"/>
</g>
<defs>
<clipPath id="clip0_62_19">
<rect width="50" height="50" fill="white" transform="translate(0 0.741211)"/>
</clipPath>
</defs>
</svg>
