<svg width="50" height="51" viewBox="0 0 50 51" fill="none" xmlns="http://www.w3.org/2000/svg">
<path d="M4.6875 2.74498V44.7093H47.6562C48.2779 44.7093 48.874 44.9915 49.3135 45.4938C49.7531 45.9961 50 46.6774 50 47.3878C50 48.0982 49.7531 48.7795 49.3135 49.2819C48.874 49.7842 48.2779 50.0664 47.6562 50.0664H2.34375C1.72215 50.0664 1.12601 49.7842 0.686468 49.2819C0.24693 48.7795 0 48.0982 0 47.3878L0 2.74498C0 2.03458 0.24693 1.35327 0.686468 0.850942C1.12601 0.348612 1.72215 0.0664063 2.34375 0.0664062C2.96535 0.0664063 3.56149 0.348612 4.00103 0.850942C4.44057 1.35327 4.6875 2.03458 4.6875 2.74498ZM49.3125 11.7807L32.9062 30.5307C32.4668 31.0323 31.8711 31.314 31.25 31.314C30.6289 31.314 30.0332 31.0323 29.5938 30.5307L21.875 21.7093L13.375 31.4235C12.9304 31.8964 12.3428 32.1539 11.7355 32.142C11.1283 32.13 10.5488 31.8494 10.1187 31.3593C9.68986 30.8678 9.44438 30.2055 9.43389 29.5115C9.4234 28.8175 9.64872 28.1459 10.0625 27.6378L20.2187 16.0307C20.6582 15.5291 21.2539 15.2473 21.875 15.2473C22.4961 15.2473 23.0918 15.5291 23.5313 16.0307L31.25 24.8521L46 7.99498C46.4446 7.52209 47.0322 7.26458 47.6395 7.27657C48.2467 7.28855 48.8262 7.56911 49.2563 8.05926C49.6851 8.5507 49.9306 9.21302 49.9411 9.90701C49.9516 10.601 49.7263 11.2726 49.3125 11.7807Z" fill="#ED4C5C"/>
</svg>
